<?xml version="1.0" encoding="utf-8"?>
<svg xmlns="http://www.w3.org/2000/svg" xmlns:xlink="http://www.w3.org/1999/xlink" width="600" height="400" viewBox="0 0 2400 1600">
<defs>
  <clipPath id="clip650">
    <rect x="0" y="0" width="2400" height="1600"/>
  </clipPath>
</defs>
<path clip-path="url(#clip650)" d="
M0 1600 L2400 1600 L2400 0 L0 0  Z
  " fill="#ffffff" fill-rule="evenodd" fill-opacity="1"/>
<defs>
  <clipPath id="clip651">
    <rect x="480" y="0" width="1681" height="1600"/>
  </clipPath>
</defs>
<path clip-path="url(#clip650)" d="
M249.542 1423.18 L2352.76 1423.18 L2352.76 47.2441 L249.542 47.2441  Z
  " fill="#ffffff" fill-rule="evenodd" fill-opacity="1"/>
<defs>
  <clipPath id="clip652">
    <rect x="249" y="47" width="2104" height="1377"/>
  </clipPath>
</defs>
<polyline clip-path="url(#clip652)" style="stroke:#000000; stroke-width:2; stroke-opacity:0.1; fill:none" points="
  654.139,1423.18 654.139,47.2441 
  "/>
<polyline clip-path="url(#clip652)" style="stroke:#000000; stroke-width:2; stroke-opacity:0.1; fill:none" points="
  1085.48,1423.18 1085.48,47.2441 
  "/>
<polyline clip-path="url(#clip652)" style="stroke:#000000; stroke-width:2; stroke-opacity:0.1; fill:none" points="
  1516.82,1423.18 1516.82,47.2441 
  "/>
<polyline clip-path="url(#clip652)" style="stroke:#000000; stroke-width:2; stroke-opacity:0.1; fill:none" points="
  1948.16,1423.18 1948.16,47.2441 
  "/>
<polyline clip-path="url(#clip650)" style="stroke:#000000; stroke-width:4; stroke-opacity:1; fill:none" points="
  249.542,1423.18 2352.76,1423.18 
  "/>
<polyline clip-path="url(#clip650)" style="stroke:#000000; stroke-width:4; stroke-opacity:1; fill:none" points="
  654.139,1423.18 654.139,1406.67 
  "/>
<polyline clip-path="url(#clip650)" style="stroke:#000000; stroke-width:4; stroke-opacity:1; fill:none" points="
  1085.48,1423.18 1085.48,1406.67 
  "/>
<polyline clip-path="url(#clip650)" style="stroke:#000000; stroke-width:4; stroke-opacity:1; fill:none" points="
  1516.82,1423.18 1516.82,1406.67 
  "/>
<polyline clip-path="url(#clip650)" style="stroke:#000000; stroke-width:4; stroke-opacity:1; fill:none" points="
  1948.16,1423.18 1948.16,1406.67 
  "/>
<path clip-path="url(#clip650)" d="M 0 0 M621.79 1479.92 L629.428 1479.92 L629.428 1453.55 L621.118 1455.22 L621.118 1450.96 L629.382 1449.29 L634.058 1449.29 L634.058 1479.92 L641.697 1479.92 L641.697 1483.85 L621.79 1483.85 L621.79 1479.92 Z" fill="#000000" fill-rule="evenodd" fill-opacity="1" /><path clip-path="url(#clip650)" d="M 0 0 M651.141 1477.97 L656.026 1477.97 L656.026 1483.85 L651.141 1483.85 L651.141 1477.97 Z" fill="#000000" fill-rule="evenodd" fill-opacity="1" /><path clip-path="url(#clip650)" d="M 0 0 M666.257 1449.29 L684.613 1449.29 L684.613 1453.23 L670.539 1453.23 L670.539 1461.7 Q671.558 1461.35 672.576 1461.19 Q673.595 1461 674.613 1461 Q680.4 1461 683.78 1464.18 Q687.16 1467.35 687.16 1472.76 Q687.16 1478.34 683.687 1481.44 Q680.215 1484.52 673.896 1484.52 Q671.72 1484.52 669.451 1484.15 Q667.206 1483.78 664.799 1483.04 L664.799 1478.34 Q666.882 1479.48 669.104 1480.03 Q671.326 1480.59 673.803 1480.59 Q677.808 1480.59 680.146 1478.48 Q682.484 1476.38 682.484 1472.76 Q682.484 1469.15 680.146 1467.05 Q677.808 1464.94 673.803 1464.94 Q671.928 1464.94 670.053 1465.36 Q668.201 1465.77 666.257 1466.65 L666.257 1449.29 Z" fill="#000000" fill-rule="evenodd" fill-opacity="1" /><path clip-path="url(#clip650)" d="M 0 0 M1056.72 1479.92 L1073.04 1479.92 L1073.04 1483.85 L1051.09 1483.85 L1051.09 1479.92 Q1053.75 1477.16 1058.34 1472.53 Q1062.94 1467.88 1064.12 1466.54 Q1066.37 1464.01 1067.25 1462.28 Q1068.15 1460.52 1068.15 1458.83 Q1068.15 1456.07 1066.21 1454.34 Q1064.29 1452.6 1061.19 1452.6 Q1058.99 1452.6 1056.53 1453.37 Q1054.1 1454.13 1051.32 1455.68 L1051.32 1450.96 Q1054.15 1449.82 1056.6 1449.25 Q1059.06 1448.67 1061.09 1448.67 Q1066.46 1448.67 1069.66 1451.35 Q1072.85 1454.04 1072.85 1458.53 Q1072.85 1460.66 1072.04 1462.58 Q1071.25 1464.48 1069.15 1467.07 Q1068.57 1467.74 1065.47 1470.96 Q1062.37 1474.15 1056.72 1479.92 Z" fill="#000000" fill-rule="evenodd" fill-opacity="1" /><path clip-path="url(#clip650)" d="M 0 0 M1082.85 1477.97 L1087.74 1477.97 L1087.74 1483.85 L1082.85 1483.85 L1082.85 1477.97 Z" fill="#000000" fill-rule="evenodd" fill-opacity="1" /><path clip-path="url(#clip650)" d="M 0 0 M1107.92 1452.37 Q1104.31 1452.37 1102.48 1455.94 Q1100.68 1459.48 1100.68 1466.61 Q1100.68 1473.71 1102.48 1477.28 Q1104.31 1480.82 1107.92 1480.82 Q1111.56 1480.82 1113.36 1477.28 Q1115.19 1473.71 1115.19 1466.61 Q1115.19 1459.48 1113.36 1455.94 Q1111.56 1452.37 1107.92 1452.37 M1107.92 1448.67 Q1113.73 1448.67 1116.79 1453.27 Q1119.87 1457.86 1119.87 1466.61 Q1119.87 1475.33 1116.79 1479.94 Q1113.73 1484.52 1107.92 1484.52 Q1102.11 1484.52 1099.03 1479.94 Q1095.98 1475.33 1095.98 1466.61 Q1095.98 1457.86 1099.03 1453.27 Q1102.11 1448.67 1107.92 1448.67 Z" fill="#000000" fill-rule="evenodd" fill-opacity="1" /><path clip-path="url(#clip650)" d="M 0 0 M1488.56 1479.92 L1504.87 1479.92 L1504.87 1483.85 L1482.93 1483.85 L1482.93 1479.92 Q1485.59 1477.16 1490.18 1472.53 Q1494.78 1467.88 1495.96 1466.54 Q1498.21 1464.01 1499.09 1462.28 Q1499.99 1460.52 1499.99 1458.83 Q1499.99 1456.07 1498.05 1454.34 Q1496.12 1452.6 1493.02 1452.6 Q1490.82 1452.6 1488.37 1453.37 Q1485.94 1454.13 1483.16 1455.68 L1483.16 1450.96 Q1485.99 1449.82 1488.44 1449.25 Q1490.89 1448.67 1492.93 1448.67 Q1498.3 1448.67 1501.49 1451.35 Q1504.69 1454.04 1504.69 1458.53 Q1504.69 1460.66 1503.88 1462.58 Q1503.09 1464.48 1500.99 1467.07 Q1500.41 1467.74 1497.31 1470.96 Q1494.2 1474.15 1488.56 1479.92 Z" fill="#000000" fill-rule="evenodd" fill-opacity="1" /><path clip-path="url(#clip650)" d="M 0 0 M1514.69 1477.97 L1519.57 1477.97 L1519.57 1483.85 L1514.69 1483.85 L1514.69 1477.97 Z" fill="#000000" fill-rule="evenodd" fill-opacity="1" /><path clip-path="url(#clip650)" d="M 0 0 M1529.81 1449.29 L1548.16 1449.29 L1548.16 1453.23 L1534.09 1453.23 L1534.09 1461.7 Q1535.11 1461.35 1536.12 1461.19 Q1537.14 1461 1538.16 1461 Q1543.95 1461 1547.33 1464.18 Q1550.71 1467.35 1550.71 1472.76 Q1550.71 1478.34 1547.24 1481.44 Q1543.76 1484.52 1537.44 1484.52 Q1535.27 1484.52 1533 1484.15 Q1530.75 1483.78 1528.35 1483.04 L1528.35 1478.34 Q1530.43 1479.48 1532.65 1480.03 Q1534.87 1480.59 1537.35 1480.59 Q1541.36 1480.59 1543.69 1478.48 Q1546.03 1476.38 1546.03 1472.76 Q1546.03 1469.15 1543.69 1467.05 Q1541.36 1464.94 1537.35 1464.94 Q1535.48 1464.94 1533.6 1465.36 Q1531.75 1465.77 1529.81 1466.65 L1529.81 1449.29 Z" fill="#000000" fill-rule="evenodd" fill-opacity="1" /><path clip-path="url(#clip650)" d="M 0 0 M1929.47 1465.22 Q1932.82 1465.94 1934.7 1468.2 Q1936.6 1470.47 1936.6 1473.81 Q1936.6 1478.92 1933.08 1481.72 Q1929.56 1484.52 1923.08 1484.52 Q1920.9 1484.52 1918.59 1484.08 Q1916.3 1483.67 1913.84 1482.81 L1913.84 1478.3 Q1915.79 1479.43 1918.1 1480.01 Q1920.42 1480.59 1922.94 1480.59 Q1927.34 1480.59 1929.63 1478.85 Q1931.94 1477.12 1931.94 1473.81 Q1931.94 1470.75 1929.79 1469.04 Q1927.66 1467.3 1923.84 1467.3 L1919.81 1467.3 L1919.81 1463.46 L1924.03 1463.46 Q1927.48 1463.46 1929.3 1462.09 Q1931.13 1460.7 1931.13 1458.11 Q1931.13 1455.45 1929.24 1454.04 Q1927.36 1452.6 1923.84 1452.6 Q1921.92 1452.6 1919.72 1453.02 Q1917.52 1453.44 1914.88 1454.31 L1914.88 1450.15 Q1917.55 1449.41 1919.86 1449.04 Q1922.2 1448.67 1924.26 1448.67 Q1929.58 1448.67 1932.68 1451.1 Q1935.79 1453.5 1935.79 1457.63 Q1935.79 1460.5 1934.14 1462.49 Q1932.5 1464.45 1929.47 1465.22 Z" fill="#000000" fill-rule="evenodd" fill-opacity="1" /><path clip-path="url(#clip650)" d="M 0 0 M1945.46 1477.97 L1950.35 1477.97 L1950.35 1483.85 L1945.46 1483.85 L1945.46 1477.97 Z" fill="#000000" fill-rule="evenodd" fill-opacity="1" /><path clip-path="url(#clip650)" d="M 0 0 M1970.53 1452.37 Q1966.92 1452.37 1965.09 1455.94 Q1963.29 1459.48 1963.29 1466.61 Q1963.29 1473.71 1965.09 1477.28 Q1966.92 1480.82 1970.53 1480.82 Q1974.17 1480.82 1975.97 1477.28 Q1977.8 1473.71 1977.8 1466.61 Q1977.8 1459.48 1975.97 1455.94 Q1974.17 1452.37 1970.53 1452.37 M1970.53 1448.67 Q1976.34 1448.67 1979.4 1453.27 Q1982.48 1457.86 1982.48 1466.61 Q1982.48 1475.33 1979.4 1479.94 Q1976.34 1484.52 1970.53 1484.52 Q1964.72 1484.52 1961.64 1479.94 Q1958.59 1475.33 1958.59 1466.61 Q1958.59 1457.86 1961.64 1453.27 Q1964.72 1448.67 1970.53 1448.67 Z" fill="#000000" fill-rule="evenodd" fill-opacity="1" /><path clip-path="url(#clip650)" d="M 0 0 M1281.05 1520.52 L1321.25 1520.52 L1321.25 1525.93 L1304.38 1525.93 L1304.38 1568.04 L1297.92 1568.04 L1297.92 1525.93 L1281.05 1525.93 L1281.05 1520.52 Z" fill="#000000" fill-rule="evenodd" fill-opacity="1" /><polyline clip-path="url(#clip652)" style="stroke:#000000; stroke-width:2; stroke-opacity:0.1; fill:none" points="
  249.542,1384.24 2352.76,1384.24 
  "/>
<polyline clip-path="url(#clip652)" style="stroke:#000000; stroke-width:2; stroke-opacity:0.1; fill:none" points="
  249.542,1059.73 2352.76,1059.73 
  "/>
<polyline clip-path="url(#clip652)" style="stroke:#000000; stroke-width:2; stroke-opacity:0.1; fill:none" points="
  249.542,735.212 2352.76,735.212 
  "/>
<polyline clip-path="url(#clip652)" style="stroke:#000000; stroke-width:2; stroke-opacity:0.1; fill:none" points="
  249.542,410.699 2352.76,410.699 
  "/>
<polyline clip-path="url(#clip652)" style="stroke:#000000; stroke-width:2; stroke-opacity:0.1; fill:none" points="
  249.542,86.1857 2352.76,86.1857 
  "/>
<polyline clip-path="url(#clip650)" style="stroke:#000000; stroke-width:4; stroke-opacity:1; fill:none" points="
  249.542,1423.18 249.542,47.2441 
  "/>
<polyline clip-path="url(#clip650)" style="stroke:#000000; stroke-width:4; stroke-opacity:1; fill:none" points="
  249.542,1384.24 274.781,1384.24 
  "/>
<polyline clip-path="url(#clip650)" style="stroke:#000000; stroke-width:4; stroke-opacity:1; fill:none" points="
  249.542,1059.73 274.781,1059.73 
  "/>
<polyline clip-path="url(#clip650)" style="stroke:#000000; stroke-width:4; stroke-opacity:1; fill:none" points="
  249.542,735.212 274.781,735.212 
  "/>
<polyline clip-path="url(#clip650)" style="stroke:#000000; stroke-width:4; stroke-opacity:1; fill:none" points="
  249.542,410.699 274.781,410.699 
  "/>
<polyline clip-path="url(#clip650)" style="stroke:#000000; stroke-width:4; stroke-opacity:1; fill:none" points="
  249.542,86.1857 274.781,86.1857 
  "/>
<path clip-path="url(#clip650)" d="M 0 0 M126.205 1370.04 Q122.593 1370.04 120.765 1373.6 Q118.959 1377.14 118.959 1384.27 Q118.959 1391.38 120.765 1394.94 Q122.593 1398.49 126.205 1398.49 Q129.839 1398.49 131.644 1394.94 Q133.473 1391.38 133.473 1384.27 Q133.473 1377.14 131.644 1373.6 Q129.839 1370.04 126.205 1370.04 M126.205 1366.33 Q132.015 1366.33 135.07 1370.94 Q138.149 1375.52 138.149 1384.27 Q138.149 1393 135.07 1397.61 Q132.015 1402.19 126.205 1402.19 Q120.394 1402.19 117.316 1397.61 Q114.26 1393 114.26 1384.27 Q114.26 1375.52 117.316 1370.94 Q120.394 1366.33 126.205 1366.33 Z" fill="#000000" fill-rule="evenodd" fill-opacity="1" /><path clip-path="url(#clip650)" d="M 0 0 M146.366 1395.64 L151.251 1395.64 L151.251 1401.52 L146.366 1401.52 L146.366 1395.64 Z" fill="#000000" fill-rule="evenodd" fill-opacity="1" /><path clip-path="url(#clip650)" d="M 0 0 M171.436 1370.04 Q167.825 1370.04 165.996 1373.6 Q164.19 1377.14 164.19 1384.27 Q164.19 1391.38 165.996 1394.94 Q167.825 1398.49 171.436 1398.49 Q175.07 1398.49 176.876 1394.94 Q178.704 1391.38 178.704 1384.27 Q178.704 1377.14 176.876 1373.6 Q175.07 1370.04 171.436 1370.04 M171.436 1366.33 Q177.246 1366.33 180.301 1370.94 Q183.38 1375.52 183.38 1384.27 Q183.38 1393 180.301 1397.61 Q177.246 1402.19 171.436 1402.19 Q165.626 1402.19 162.547 1397.61 Q159.491 1393 159.491 1384.27 Q159.491 1375.52 162.547 1370.94 Q165.626 1366.33 171.436 1366.33 Z" fill="#000000" fill-rule="evenodd" fill-opacity="1" /><path clip-path="url(#clip650)" d="M 0 0 M201.598 1370.04 Q197.987 1370.04 196.158 1373.6 Q194.352 1377.14 194.352 1384.27 Q194.352 1391.38 196.158 1394.94 Q197.987 1398.49 201.598 1398.49 Q205.232 1398.49 207.037 1394.94 Q208.866 1391.38 208.866 1384.27 Q208.866 1377.14 207.037 1373.6 Q205.232 1370.04 201.598 1370.04 M201.598 1366.33 Q207.408 1366.33 210.463 1370.94 Q213.542 1375.52 213.542 1384.27 Q213.542 1393 210.463 1397.61 Q207.408 1402.19 201.598 1402.19 Q195.787 1402.19 192.709 1397.61 Q189.653 1393 189.653 1384.27 Q189.653 1375.52 192.709 1370.94 Q195.787 1366.33 201.598 1366.33 Z" fill="#000000" fill-rule="evenodd" fill-opacity="1" /><path clip-path="url(#clip650)" d="M 0 0 M127.2 1045.52 Q123.589 1045.52 121.76 1049.09 Q119.955 1052.63 119.955 1059.76 Q119.955 1066.87 121.76 1070.43 Q123.589 1073.97 127.2 1073.97 Q130.834 1073.97 132.64 1070.43 Q134.468 1066.87 134.468 1059.76 Q134.468 1052.63 132.64 1049.09 Q130.834 1045.52 127.2 1045.52 M127.2 1041.82 Q133.01 1041.82 136.066 1046.43 Q139.144 1051.01 139.144 1059.76 Q139.144 1068.49 136.066 1073.09 Q133.01 1077.68 127.2 1077.68 Q121.39 1077.68 118.311 1073.09 Q115.256 1068.49 115.256 1059.76 Q115.256 1051.01 118.311 1046.43 Q121.39 1041.82 127.2 1041.82 Z" fill="#000000" fill-rule="evenodd" fill-opacity="1" /><path clip-path="url(#clip650)" d="M 0 0 M147.362 1071.13 L152.246 1071.13 L152.246 1077.01 L147.362 1077.01 L147.362 1071.13 Z" fill="#000000" fill-rule="evenodd" fill-opacity="1" /><path clip-path="url(#clip650)" d="M 0 0 M166.459 1073.07 L182.778 1073.07 L182.778 1077.01 L160.834 1077.01 L160.834 1073.07 Q163.496 1070.32 168.079 1065.69 Q172.686 1061.03 173.866 1059.69 Q176.112 1057.17 176.991 1055.43 Q177.894 1053.67 177.894 1051.98 Q177.894 1049.23 175.95 1047.49 Q174.028 1045.76 170.927 1045.76 Q168.727 1045.76 166.274 1046.52 Q163.843 1047.28 161.065 1048.83 L161.065 1044.11 Q163.89 1042.98 166.343 1042.4 Q168.797 1041.82 170.834 1041.82 Q176.204 1041.82 179.399 1044.51 Q182.593 1047.19 182.593 1051.68 Q182.593 1053.81 181.783 1055.73 Q180.996 1057.63 178.889 1060.22 Q178.311 1060.89 175.209 1064.11 Q172.107 1067.31 166.459 1073.07 Z" fill="#000000" fill-rule="evenodd" fill-opacity="1" /><path clip-path="url(#clip650)" d="M 0 0 M192.639 1042.45 L210.996 1042.45 L210.996 1046.38 L196.922 1046.38 L196.922 1054.85 Q197.94 1054.51 198.959 1054.34 Q199.977 1054.16 200.996 1054.16 Q206.783 1054.16 210.162 1057.33 Q213.542 1060.5 213.542 1065.92 Q213.542 1071.5 210.07 1074.6 Q206.598 1077.68 200.278 1077.68 Q198.102 1077.68 195.834 1077.31 Q193.588 1076.94 191.181 1076.19 L191.181 1071.5 Q193.264 1072.63 195.487 1073.19 Q197.709 1073.74 200.186 1073.74 Q204.19 1073.74 206.528 1071.63 Q208.866 1069.53 208.866 1065.92 Q208.866 1062.31 206.528 1060.2 Q204.19 1058.09 200.186 1058.09 Q198.311 1058.09 196.436 1058.51 Q194.584 1058.93 192.639 1059.81 L192.639 1042.45 Z" fill="#000000" fill-rule="evenodd" fill-opacity="1" /><path clip-path="url(#clip650)" d="M 0 0 M126.205 721.011 Q122.593 721.011 120.765 724.575 Q118.959 728.117 118.959 735.247 Q118.959 742.353 120.765 745.918 Q122.593 749.46 126.205 749.46 Q129.839 749.46 131.644 745.918 Q133.473 742.353 133.473 735.247 Q133.473 728.117 131.644 724.575 Q129.839 721.011 126.205 721.011 M126.205 717.307 Q132.015 717.307 135.07 721.913 Q138.149 726.497 138.149 735.247 Q138.149 743.973 135.07 748.58 Q132.015 753.163 126.205 753.163 Q120.394 753.163 117.316 748.58 Q114.26 743.973 114.26 735.247 Q114.26 726.497 117.316 721.913 Q120.394 717.307 126.205 717.307 Z" fill="#000000" fill-rule="evenodd" fill-opacity="1" /><path clip-path="url(#clip650)" d="M 0 0 M146.366 746.612 L151.251 746.612 L151.251 752.492 L146.366 752.492 L146.366 746.612 Z" fill="#000000" fill-rule="evenodd" fill-opacity="1" /><path clip-path="url(#clip650)" d="M 0 0 M161.482 717.932 L179.839 717.932 L179.839 721.867 L165.765 721.867 L165.765 730.339 Q166.783 729.992 167.802 729.83 Q168.82 729.645 169.839 729.645 Q175.626 729.645 179.005 732.816 Q182.385 735.987 182.385 741.404 Q182.385 746.983 178.913 750.085 Q175.44 753.163 169.121 753.163 Q166.945 753.163 164.677 752.793 Q162.431 752.423 160.024 751.682 L160.024 746.983 Q162.107 748.117 164.329 748.673 Q166.552 749.228 169.028 749.228 Q173.033 749.228 175.371 747.122 Q177.709 745.015 177.709 741.404 Q177.709 737.793 175.371 735.687 Q173.033 733.58 169.028 733.58 Q167.153 733.58 165.278 733.997 Q163.427 734.413 161.482 735.293 L161.482 717.932 Z" fill="#000000" fill-rule="evenodd" fill-opacity="1" /><path clip-path="url(#clip650)" d="M 0 0 M201.598 721.011 Q197.987 721.011 196.158 724.575 Q194.352 728.117 194.352 735.247 Q194.352 742.353 196.158 745.918 Q197.987 749.46 201.598 749.46 Q205.232 749.46 207.037 745.918 Q208.866 742.353 208.866 735.247 Q208.866 728.117 207.037 724.575 Q205.232 721.011 201.598 721.011 M201.598 717.307 Q207.408 717.307 210.463 721.913 Q213.542 726.497 213.542 735.247 Q213.542 743.973 210.463 748.58 Q207.408 753.163 201.598 753.163 Q195.787 753.163 192.709 748.58 Q189.653 743.973 189.653 735.247 Q189.653 726.497 192.709 721.913 Q195.787 717.307 201.598 717.307 Z" fill="#000000" fill-rule="evenodd" fill-opacity="1" /><path clip-path="url(#clip650)" d="M 0 0 M127.2 396.498 Q123.589 396.498 121.76 400.062 Q119.955 403.604 119.955 410.734 Q119.955 417.84 121.76 421.405 Q123.589 424.946 127.2 424.946 Q130.834 424.946 132.64 421.405 Q134.468 417.84 134.468 410.734 Q134.468 403.604 132.64 400.062 Q130.834 396.498 127.2 396.498 M127.2 392.794 Q133.01 392.794 136.066 397.4 Q139.144 401.984 139.144 410.734 Q139.144 419.46 136.066 424.067 Q133.01 428.65 127.2 428.65 Q121.39 428.65 118.311 424.067 Q115.256 419.46 115.256 410.734 Q115.256 401.984 118.311 397.4 Q121.39 392.794 127.2 392.794 Z" fill="#000000" fill-rule="evenodd" fill-opacity="1" /><path clip-path="url(#clip650)" d="M 0 0 M147.362 422.099 L152.246 422.099 L152.246 427.979 L147.362 427.979 L147.362 422.099 Z" fill="#000000" fill-rule="evenodd" fill-opacity="1" /><path clip-path="url(#clip650)" d="M 0 0 M161.251 393.419 L183.473 393.419 L183.473 395.41 L170.927 427.979 L166.042 427.979 L177.848 397.354 L161.251 397.354 L161.251 393.419 Z" fill="#000000" fill-rule="evenodd" fill-opacity="1" /><path clip-path="url(#clip650)" d="M 0 0 M192.639 393.419 L210.996 393.419 L210.996 397.354 L196.922 397.354 L196.922 405.826 Q197.94 405.479 198.959 405.317 Q199.977 405.132 200.996 405.132 Q206.783 405.132 210.162 408.303 Q213.542 411.474 213.542 416.891 Q213.542 422.47 210.07 425.571 Q206.598 428.65 200.278 428.65 Q198.102 428.65 195.834 428.28 Q193.588 427.909 191.181 427.169 L191.181 422.47 Q193.264 423.604 195.487 424.159 Q197.709 424.715 200.186 424.715 Q204.19 424.715 206.528 422.608 Q208.866 420.502 208.866 416.891 Q208.866 413.28 206.528 411.173 Q204.19 409.067 200.186 409.067 Q198.311 409.067 196.436 409.484 Q194.584 409.9 192.639 410.78 L192.639 393.419 Z" fill="#000000" fill-rule="evenodd" fill-opacity="1" /><path clip-path="url(#clip650)" d="M 0 0 M117.015 99.5305 L124.654 99.5305 L124.654 73.1649 L116.343 74.8316 L116.343 70.5723 L124.607 68.9057 L129.283 68.9057 L129.283 99.5305 L136.922 99.5305 L136.922 103.466 L117.015 103.466 L117.015 99.5305 Z" fill="#000000" fill-rule="evenodd" fill-opacity="1" /><path clip-path="url(#clip650)" d="M 0 0 M146.366 97.5861 L151.251 97.5861 L151.251 103.466 L146.366 103.466 L146.366 97.5861 Z" fill="#000000" fill-rule="evenodd" fill-opacity="1" /><path clip-path="url(#clip650)" d="M 0 0 M171.436 71.9844 Q167.825 71.9844 165.996 75.5492 Q164.19 79.0908 164.19 86.2204 Q164.19 93.3268 165.996 96.8916 Q167.825 100.433 171.436 100.433 Q175.07 100.433 176.876 96.8916 Q178.704 93.3268 178.704 86.2204 Q178.704 79.0908 176.876 75.5492 Q175.07 71.9844 171.436 71.9844 M171.436 68.2807 Q177.246 68.2807 180.301 72.8871 Q183.38 77.4704 183.38 86.2204 Q183.38 94.9472 180.301 99.5537 Q177.246 104.137 171.436 104.137 Q165.626 104.137 162.547 99.5537 Q159.491 94.9472 159.491 86.2204 Q159.491 77.4704 162.547 72.8871 Q165.626 68.2807 171.436 68.2807 Z" fill="#000000" fill-rule="evenodd" fill-opacity="1" /><path clip-path="url(#clip650)" d="M 0 0 M201.598 71.9844 Q197.987 71.9844 196.158 75.5492 Q194.352 79.0908 194.352 86.2204 Q194.352 93.3268 196.158 96.8916 Q197.987 100.433 201.598 100.433 Q205.232 100.433 207.037 96.8916 Q208.866 93.3268 208.866 86.2204 Q208.866 79.0908 207.037 75.5492 Q205.232 71.9844 201.598 71.9844 M201.598 68.2807 Q207.408 68.2807 210.463 72.8871 Q213.542 77.4704 213.542 86.2204 Q213.542 94.9472 210.463 99.5537 Q207.408 104.137 201.598 104.137 Q195.787 104.137 192.709 99.5537 Q189.653 94.9472 189.653 86.2204 Q189.653 77.4704 192.709 72.8871 Q195.787 68.2807 201.598 68.2807 Z" fill="#000000" fill-rule="evenodd" fill-opacity="1" /><path clip-path="url(#clip650)" d="M 0 0 M20.1444 958.457 L26.9239 958.457 Q23.9002 961.704 22.4043 965.396 Q20.9083 969.056 20.9083 973.194 Q20.9083 981.342 25.9054 985.671 Q30.8707 989.999 40.2919 989.999 Q49.6813 989.999 54.6784 985.671 Q59.6436 981.342 59.6436 973.194 Q59.6436 969.056 58.1477 965.396 Q56.6518 961.704 53.6281 958.457 L60.3439 958.457 Q62.6355 961.831 63.7814 965.619 Q64.9272 969.374 64.9272 973.576 Q64.9272 984.366 58.3387 990.572 Q51.7183 996.779 40.2919 996.779 Q28.8336 996.779 22.2451 990.572 Q15.6248 984.366 15.6248 973.576 Q15.6248 969.311 16.7706 965.555 Q17.8846 961.767 20.1444 958.457 Z" fill="#000000" fill-rule="evenodd" fill-opacity="1" /><path clip-path="url(#clip650)" d="M 0 0 M16.4842 948.527 L16.4842 939.869 L56.238 918.799 L16.4842 918.799 L16.4842 912.561 L64.0042 912.561 L64.0042 921.218 L24.2503 942.288 L64.0042 942.288 L64.0042 948.527 L16.4842 948.527 Z" fill="#000000" fill-rule="evenodd" fill-opacity="1" /><path clip-path="url(#clip650)" d="M 0 0 M16.4842 899.765 L16.4842 891.108 L56.238 870.038 L16.4842 870.038 L16.4842 863.799 L64.0042 863.799 L64.0042 872.457 L24.2503 893.527 L64.0042 893.527 L64.0042 899.765 L16.4842 899.765 Z" fill="#000000" fill-rule="evenodd" fill-opacity="1" /><path clip-path="url(#clip650)" d="M 0 0 M20.1444 794.699 L26.9239 794.699 Q23.9002 797.946 22.4043 801.638 Q20.9083 805.298 20.9083 809.436 Q20.9083 817.584 25.9054 821.913 Q30.8707 826.242 40.2919 826.242 Q49.6813 826.242 54.6784 821.913 Q59.6436 817.584 59.6436 809.436 Q59.6436 805.298 58.1477 801.638 Q56.6518 797.946 53.6281 794.699 L60.3439 794.699 Q62.6355 798.073 63.7814 801.861 Q64.9272 805.617 64.9272 809.818 Q64.9272 820.608 58.3387 826.814 Q51.7183 833.021 40.2919 833.021 Q28.8336 833.021 22.2451 826.814 Q15.6248 820.608 15.6248 809.818 Q15.6248 805.553 16.7706 801.797 Q17.8846 798.01 20.1444 794.699 Z" fill="#000000" fill-rule="evenodd" fill-opacity="1" /><path clip-path="url(#clip650)" d="M 0 0 M32.4621 771.21 Q32.4621 775.921 36.1542 778.658 Q39.8145 781.395 46.212 781.395 Q52.6095 781.395 56.3017 778.69 Q59.9619 775.952 59.9619 771.21 Q59.9619 766.531 56.2698 763.794 Q52.5777 761.057 46.212 761.057 Q39.8781 761.057 36.186 763.794 Q32.4621 766.531 32.4621 771.21 M27.4968 771.21 Q27.4968 763.571 32.4621 759.211 Q37.4273 754.85 46.212 754.85 Q54.9649 754.85 59.9619 759.211 Q64.9272 763.571 64.9272 771.21 Q64.9272 778.881 59.9619 783.241 Q54.9649 787.57 46.212 787.57 Q37.4273 787.57 32.4621 783.241 Q27.4968 778.881 27.4968 771.21 Z" fill="#000000" fill-rule="evenodd" fill-opacity="1" /><path clip-path="url(#clip650)" d="M 0 0 M42.4881 715.51 L64.0042 715.51 L64.0042 721.367 L42.679 721.367 Q37.6183 721.367 35.1038 723.34 Q32.5894 725.313 32.5894 729.26 Q32.5894 734.002 35.6131 736.74 Q38.6368 739.477 43.8567 739.477 L64.0042 739.477 L64.0042 745.365 L28.3562 745.365 L28.3562 739.477 L33.8944 739.477 Q30.6797 737.376 29.0883 734.544 Q27.4968 731.679 27.4968 727.955 Q27.4968 721.812 31.3163 718.661 Q35.1038 715.51 42.4881 715.51 Z" fill="#000000" fill-rule="evenodd" fill-opacity="1" /><path clip-path="url(#clip650)" d="M 0 0 M14.479 685.782 L19.3487 685.782 L19.3487 691.384 Q19.3487 694.535 20.6219 695.776 Q21.895 696.986 25.2052 696.986 L28.3562 696.986 L28.3562 687.342 L32.9077 687.342 L32.9077 696.986 L64.0042 696.986 L64.0042 702.874 L32.9077 702.874 L32.9077 708.476 L28.3562 708.476 L28.3562 702.874 L25.8736 702.874 Q19.9216 702.874 17.2162 700.105 Q14.479 697.336 14.479 691.32 L14.479 685.782 Z" fill="#000000" fill-rule="evenodd" fill-opacity="1" /><path clip-path="url(#clip650)" d="M 0 0 M28.3562 680.881 L28.3562 675.024 L64.0042 675.024 L64.0042 680.881 L28.3562 680.881 M14.479 680.881 L14.479 675.024 L21.895 675.024 L21.895 680.881 L14.479 680.881 Z" fill="#000000" fill-rule="evenodd" fill-opacity="1" /><path clip-path="url(#clip650)" d="M 0 0 M33.7671 639.313 L14.479 639.313 L14.479 633.456 L64.0042 633.456 L64.0042 639.313 L58.657 639.313 Q61.8398 641.159 63.3994 643.991 Q64.9272 646.792 64.9272 650.739 Q64.9272 657.2 59.771 661.274 Q54.6147 665.317 46.212 665.317 Q37.8093 665.317 32.6531 661.274 Q27.4968 657.2 27.4968 650.739 Q27.4968 646.792 29.0564 643.991 Q30.5842 641.159 33.7671 639.313 M46.212 659.269 Q52.6732 659.269 56.3653 656.627 Q60.0256 653.954 60.0256 649.307 Q60.0256 644.66 56.3653 641.986 Q52.6732 639.313 46.212 639.313 Q39.7508 639.313 36.0905 641.986 Q32.3984 644.66 32.3984 649.307 Q32.3984 653.954 36.0905 656.627 Q39.7508 659.269 46.212 659.269 Z" fill="#000000" fill-rule="evenodd" fill-opacity="1" /><path clip-path="url(#clip650)" d="M 0 0 M44.7161 590.901 L47.5806 590.901 L47.5806 617.828 Q53.6281 617.446 56.8109 614.2 Q59.9619 610.922 59.9619 605.097 Q59.9619 601.723 59.1344 598.572 Q58.3069 595.389 56.6518 592.27 L62.1899 592.27 Q63.5267 595.421 64.227 598.731 Q64.9272 602.041 64.9272 605.447 Q64.9272 613.977 59.9619 618.974 Q54.9967 623.939 46.5303 623.939 Q37.7774 623.939 32.6531 619.229 Q27.4968 614.486 27.4968 606.466 Q27.4968 599.272 32.1438 595.103 Q36.7589 590.901 44.7161 590.901 M42.9973 596.758 Q38.1912 596.822 35.3266 599.463 Q32.4621 602.073 32.4621 606.402 Q32.4621 611.303 35.2312 614.264 Q38.0002 617.192 43.0292 617.637 L42.9973 596.758 Z" fill="#000000" fill-rule="evenodd" fill-opacity="1" /><path clip-path="url(#clip650)" d="M 0 0 M42.4881 551.657 L64.0042 551.657 L64.0042 557.513 L42.679 557.513 Q37.6183 557.513 35.1038 559.487 Q32.5894 561.46 32.5894 565.407 Q32.5894 570.149 35.6131 572.886 Q38.6368 575.624 43.8567 575.624 L64.0042 575.624 L64.0042 581.512 L28.3562 581.512 L28.3562 575.624 L33.8944 575.624 Q30.6797 573.523 29.0883 570.69 Q27.4968 567.826 27.4968 564.102 Q27.4968 557.959 31.3163 554.808 Q35.1038 551.657 42.4881 551.657 Z" fill="#000000" fill-rule="evenodd" fill-opacity="1" /><path clip-path="url(#clip650)" d="M 0 0 M29.7248 514.322 L35.1993 514.322 Q33.8307 516.805 33.1623 519.319 Q32.4621 521.802 32.4621 524.348 Q32.4621 530.045 36.0905 533.196 Q39.6872 536.347 46.212 536.347 Q52.7369 536.347 56.3653 533.196 Q59.9619 530.045 59.9619 524.348 Q59.9619 521.802 59.2935 519.319 Q58.5933 516.805 57.2247 514.322 L62.6355 514.322 Q63.7814 516.773 64.3543 519.415 Q64.9272 522.024 64.9272 524.985 Q64.9272 533.037 59.8664 537.78 Q54.8057 542.522 46.212 542.522 Q37.491 542.522 32.4939 537.748 Q27.4968 532.942 27.4968 524.603 Q27.4968 521.897 28.0697 519.319 Q28.6108 516.741 29.7248 514.322 Z" fill="#000000" fill-rule="evenodd" fill-opacity="1" /><path clip-path="url(#clip650)" d="M 0 0 M44.7161 473.645 L47.5806 473.645 L47.5806 500.572 Q53.6281 500.19 56.8109 496.944 Q59.9619 493.665 59.9619 487.841 Q59.9619 484.467 59.1344 481.316 Q58.3069 478.133 56.6518 475.014 L62.1899 475.014 Q63.5267 478.165 64.227 481.475 Q64.9272 484.785 64.9272 488.191 Q64.9272 496.721 59.9619 501.718 Q54.9967 506.683 46.5303 506.683 Q37.7774 506.683 32.6531 501.972 Q27.4968 497.23 27.4968 489.209 Q27.4968 482.016 32.1438 477.846 Q36.7589 473.645 44.7161 473.645 M42.9973 479.502 Q38.1912 479.565 35.3266 482.207 Q32.4621 484.817 32.4621 489.146 Q32.4621 494.047 35.2312 497.007 Q38.0002 499.935 43.0292 500.381 L42.9973 479.502 Z" fill="#000000" fill-rule="evenodd" fill-opacity="1" /><polyline clip-path="url(#clip652)" style="stroke:#009af9; stroke-width:4; stroke-opacity:1; fill:none" points="
  309.067,1379.42 450.793,1377.9 592.519,1375.4 734.245,1363.76 875.971,1329.28 1017.7,1258.72 1159.42,1113.94 1301.15,832.246 1442.87,497.86 1584.6,302.204 
  1726.33,188.924 1868.05,146.813 2009.78,117.409 2151.5,107.136 2293.23,95.7046 
  "/>
<circle clip-path="url(#clip652)" cx="309.067" cy="1379.42" r="14" fill="#009af9" fill-rule="evenodd" fill-opacity="1" stroke="#000000" stroke-opacity="1" stroke-width="3.2"/>
<circle clip-path="url(#clip652)" cx="450.793" cy="1377.9" r="14" fill="#009af9" fill-rule="evenodd" fill-opacity="1" stroke="#000000" stroke-opacity="1" stroke-width="3.2"/>
<circle clip-path="url(#clip652)" cx="592.519" cy="1375.4" r="14" fill="#009af9" fill-rule="evenodd" fill-opacity="1" stroke="#000000" stroke-opacity="1" stroke-width="3.2"/>
<circle clip-path="url(#clip652)" cx="734.245" cy="1363.76" r="14" fill="#009af9" fill-rule="evenodd" fill-opacity="1" stroke="#000000" stroke-opacity="1" stroke-width="3.2"/>
<circle clip-path="url(#clip652)" cx="875.971" cy="1329.28" r="14" fill="#009af9" fill-rule="evenodd" fill-opacity="1" stroke="#000000" stroke-opacity="1" stroke-width="3.2"/>
<circle clip-path="url(#clip652)" cx="1017.7" cy="1258.72" r="14" fill="#009af9" fill-rule="evenodd" fill-opacity="1" stroke="#000000" stroke-opacity="1" stroke-width="3.2"/>
<circle clip-path="url(#clip652)" cx="1159.42" cy="1113.94" r="14" fill="#009af9" fill-rule="evenodd" fill-opacity="1" stroke="#000000" stroke-opacity="1" stroke-width="3.2"/>
<circle clip-path="url(#clip652)" cx="1301.15" cy="832.246" r="14" fill="#009af9" fill-rule="evenodd" fill-opacity="1" stroke="#000000" stroke-opacity="1" stroke-width="3.2"/>
<circle clip-path="url(#clip652)" cx="1442.87" cy="497.86" r="14" fill="#009af9" fill-rule="evenodd" fill-opacity="1" stroke="#000000" stroke-opacity="1" stroke-width="3.2"/>
<circle clip-path="url(#clip652)" cx="1584.6" cy="302.204" r="14" fill="#009af9" fill-rule="evenodd" fill-opacity="1" stroke="#000000" stroke-opacity="1" stroke-width="3.2"/>
<circle clip-path="url(#clip652)" cx="1726.33" cy="188.924" r="14" fill="#009af9" fill-rule="evenodd" fill-opacity="1" stroke="#000000" stroke-opacity="1" stroke-width="3.2"/>
<circle clip-path="url(#clip652)" cx="1868.05" cy="146.813" r="14" fill="#009af9" fill-rule="evenodd" fill-opacity="1" stroke="#000000" stroke-opacity="1" stroke-width="3.2"/>
<circle clip-path="url(#clip652)" cx="2009.78" cy="117.409" r="14" fill="#009af9" fill-rule="evenodd" fill-opacity="1" stroke="#000000" stroke-opacity="1" stroke-width="3.2"/>
<circle clip-path="url(#clip652)" cx="2151.5" cy="107.136" r="14" fill="#009af9" fill-rule="evenodd" fill-opacity="1" stroke="#000000" stroke-opacity="1" stroke-width="3.2"/>
<circle clip-path="url(#clip652)" cx="2293.23" cy="95.7046" r="14" fill="#009af9" fill-rule="evenodd" fill-opacity="1" stroke="#000000" stroke-opacity="1" stroke-width="3.2"/>
<polyline clip-path="url(#clip652)" style="stroke:#e26f46; stroke-width:4; stroke-opacity:1; fill:none" points="
  309.067,91.0082 450.793,92.5238 592.519,95.0216 734.245,106.664 875.971,141.141 1017.7,211.706 1159.42,356.485 1301.15,638.178 1442.87,972.564 1584.6,1168.22 
  1726.33,1281.5 1868.05,1323.61 2009.78,1353.02 2151.5,1363.29 2293.23,1374.72 
  "/>
<circle clip-path="url(#clip652)" cx="309.067" cy="91.0082" r="14" fill="#e26f46" fill-rule="evenodd" fill-opacity="1" stroke="#000000" stroke-opacity="1" stroke-width="3.2"/>
<circle clip-path="url(#clip652)" cx="450.793" cy="92.5238" r="14" fill="#e26f46" fill-rule="evenodd" fill-opacity="1" stroke="#000000" stroke-opacity="1" stroke-width="3.2"/>
<circle clip-path="url(#clip652)" cx="592.519" cy="95.0216" r="14" fill="#e26f46" fill-rule="evenodd" fill-opacity="1" stroke="#000000" stroke-opacity="1" stroke-width="3.2"/>
<circle clip-path="url(#clip652)" cx="734.245" cy="106.664" r="14" fill="#e26f46" fill-rule="evenodd" fill-opacity="1" stroke="#000000" stroke-opacity="1" stroke-width="3.2"/>
<circle clip-path="url(#clip652)" cx="875.971" cy="141.141" r="14" fill="#e26f46" fill-rule="evenodd" fill-opacity="1" stroke="#000000" stroke-opacity="1" stroke-width="3.2"/>
<circle clip-path="url(#clip652)" cx="1017.7" cy="211.706" r="14" fill="#e26f46" fill-rule="evenodd" fill-opacity="1" stroke="#000000" stroke-opacity="1" stroke-width="3.2"/>
<circle clip-path="url(#clip652)" cx="1159.42" cy="356.485" r="14" fill="#e26f46" fill-rule="evenodd" fill-opacity="1" stroke="#000000" stroke-opacity="1" stroke-width="3.2"/>
<circle clip-path="url(#clip652)" cx="1301.15" cy="638.178" r="14" fill="#e26f46" fill-rule="evenodd" fill-opacity="1" stroke="#000000" stroke-opacity="1" stroke-width="3.2"/>
<circle clip-path="url(#clip652)" cx="1442.87" cy="972.564" r="14" fill="#e26f46" fill-rule="evenodd" fill-opacity="1" stroke="#000000" stroke-opacity="1" stroke-width="3.2"/>
<circle clip-path="url(#clip652)" cx="1584.6" cy="1168.22" r="14" fill="#e26f46" fill-rule="evenodd" fill-opacity="1" stroke="#000000" stroke-opacity="1" stroke-width="3.2"/>
<circle clip-path="url(#clip652)" cx="1726.33" cy="1281.5" r="14" fill="#e26f46" fill-rule="evenodd" fill-opacity="1" stroke="#000000" stroke-opacity="1" stroke-width="3.2"/>
<circle clip-path="url(#clip652)" cx="1868.05" cy="1323.61" r="14" fill="#e26f46" fill-rule="evenodd" fill-opacity="1" stroke="#000000" stroke-opacity="1" stroke-width="3.2"/>
<circle clip-path="url(#clip652)" cx="2009.78" cy="1353.02" r="14" fill="#e26f46" fill-rule="evenodd" fill-opacity="1" stroke="#000000" stroke-opacity="1" stroke-width="3.2"/>
<circle clip-path="url(#clip652)" cx="2151.5" cy="1363.29" r="14" fill="#e26f46" fill-rule="evenodd" fill-opacity="1" stroke="#000000" stroke-opacity="1" stroke-width="3.2"/>
<circle clip-path="url(#clip652)" cx="2293.23" cy="1374.72" r="14" fill="#e26f46" fill-rule="evenodd" fill-opacity="1" stroke="#000000" stroke-opacity="1" stroke-width="3.2"/>
<polyline clip-path="url(#clip652)" style="stroke:#000000; stroke-width:4; stroke-opacity:1; fill:none" stroke-dasharray="16, 10" points="
  1317.7,1384.24 1317.7,86.1857 
  "/>
<path clip-path="url(#clip650)" d="
M1647.59 335.029 L2282.65 335.029 L2282.65 93.1086 L1647.59 93.1086  Z
  " fill="#ffffff" fill-rule="evenodd" fill-opacity="1"/>
<polyline clip-path="url(#clip650)" style="stroke:#000000; stroke-width:4; stroke-opacity:1; fill:none" points="
  1647.59,335.029 2282.65,335.029 2282.65,93.1086 1647.59,93.1086 1647.59,335.029 
  "/>
<polyline clip-path="url(#clip650)" style="stroke:#009af9; stroke-width:4; stroke-opacity:1; fill:none" points="
  1670.96,153.589 1811.18,153.589 
  "/>
<circle clip-path="url(#clip650)" cx="1741.07" cy="153.589" r="23" fill="#009af9" fill-rule="evenodd" fill-opacity="1" stroke="#000000" stroke-opacity="1" stroke-width="5.12"/>
<path clip-path="url(#clip650)" d="M 0 0 M1838.83 166.98 L1838.83 180.73 L1834.55 180.73 L1834.55 144.943 L1838.83 144.943 L1838.83 148.878 Q1840.17 146.563 1842.21 145.452 Q1844.27 144.318 1847.12 144.318 Q1851.84 144.318 1854.78 148.068 Q1857.74 151.818 1857.74 157.929 Q1857.74 164.04 1854.78 167.79 Q1851.84 171.54 1847.12 171.54 Q1844.27 171.54 1842.21 170.429 Q1840.17 169.295 1838.83 166.98 M1853.32 157.929 Q1853.32 153.23 1851.38 150.568 Q1849.45 147.883 1846.07 147.883 Q1842.7 147.883 1840.75 150.568 Q1838.83 153.23 1838.83 157.929 Q1838.83 162.628 1840.75 165.313 Q1842.7 167.975 1846.07 167.975 Q1849.45 167.975 1851.38 165.313 Q1853.32 162.628 1853.32 157.929 Z" fill="#000000" fill-rule="evenodd" fill-opacity="1" /><path clip-path="url(#clip650)" d="M 0 0 M1876.58 157.836 Q1871.42 157.836 1869.43 159.017 Q1867.44 160.197 1867.44 163.045 Q1867.44 165.313 1868.92 166.656 Q1870.43 167.975 1873 167.975 Q1876.54 167.975 1878.67 165.475 Q1880.82 162.952 1880.82 158.785 L1880.82 157.836 L1876.58 157.836 M1885.08 156.077 L1885.08 170.869 L1880.82 170.869 L1880.82 166.933 Q1879.36 169.295 1877.19 170.429 Q1875.01 171.54 1871.86 171.54 Q1867.88 171.54 1865.52 169.318 Q1863.18 167.072 1863.18 163.322 Q1863.18 158.947 1866.1 156.725 Q1869.04 154.503 1874.85 154.503 L1880.82 154.503 L1880.82 154.086 Q1880.82 151.147 1878.88 149.549 Q1876.95 147.929 1873.46 147.929 Q1871.24 147.929 1869.13 148.461 Q1867.02 148.994 1865.08 150.059 L1865.08 146.123 Q1867.42 145.221 1869.62 144.781 Q1871.82 144.318 1873.9 144.318 Q1879.52 144.318 1882.3 147.234 Q1885.08 150.151 1885.08 156.077 Z" fill="#000000" fill-rule="evenodd" fill-opacity="1" /><path clip-path="url(#clip650)" d="M 0 0 M1908.88 148.924 Q1908.16 148.508 1907.3 148.322 Q1906.47 148.114 1905.45 148.114 Q1901.84 148.114 1899.89 150.475 Q1897.97 152.813 1897.97 157.211 L1897.97 170.869 L1893.69 170.869 L1893.69 144.943 L1897.97 144.943 L1897.97 148.971 Q1899.32 146.609 1901.47 145.475 Q1903.62 144.318 1906.7 144.318 Q1907.14 144.318 1907.67 144.387 Q1908.2 144.434 1908.85 144.549 L1908.88 148.924 Z" fill="#000000" fill-rule="evenodd" fill-opacity="1" /><path clip-path="url(#clip650)" d="M 0 0 M1925.13 157.836 Q1919.96 157.836 1917.97 159.017 Q1915.98 160.197 1915.98 163.045 Q1915.98 165.313 1917.46 166.656 Q1918.97 167.975 1921.54 167.975 Q1925.08 167.975 1927.21 165.475 Q1929.36 162.952 1929.36 158.785 L1929.36 157.836 L1925.13 157.836 M1933.62 156.077 L1933.62 170.869 L1929.36 170.869 L1929.36 166.933 Q1927.9 169.295 1925.73 170.429 Q1923.55 171.54 1920.4 171.54 Q1916.42 171.54 1914.06 169.318 Q1911.72 167.072 1911.72 163.322 Q1911.72 158.947 1914.64 156.725 Q1917.58 154.503 1923.39 154.503 L1929.36 154.503 L1929.36 154.086 Q1929.36 151.147 1927.42 149.549 Q1925.5 147.929 1922 147.929 Q1919.78 147.929 1917.67 148.461 Q1915.57 148.994 1913.62 150.059 L1913.62 146.123 Q1915.96 145.221 1918.16 144.781 Q1920.36 144.318 1922.44 144.318 Q1928.07 144.318 1930.84 147.234 Q1933.62 150.151 1933.62 156.077 Z" fill="#000000" fill-rule="evenodd" fill-opacity="1" /><path clip-path="url(#clip650)" d="M 0 0 M1962.58 149.92 Q1964.18 147.049 1966.4 145.684 Q1968.62 144.318 1971.63 144.318 Q1975.68 144.318 1977.88 147.165 Q1980.08 149.989 1980.08 155.221 L1980.08 170.869 L1975.8 170.869 L1975.8 155.359 Q1975.8 151.633 1974.48 149.827 Q1973.16 148.022 1970.45 148.022 Q1967.14 148.022 1965.22 150.221 Q1963.3 152.42 1963.3 156.216 L1963.3 170.869 L1959.01 170.869 L1959.01 155.359 Q1959.01 151.609 1957.69 149.827 Q1956.38 148.022 1953.62 148.022 Q1950.36 148.022 1948.44 150.244 Q1946.51 152.443 1946.51 156.216 L1946.51 170.869 L1942.23 170.869 L1942.23 144.943 L1946.51 144.943 L1946.51 148.971 Q1947.97 146.586 1950.01 145.452 Q1952.05 144.318 1954.85 144.318 Q1957.67 144.318 1959.64 145.753 Q1961.63 147.188 1962.58 149.92 Z" fill="#000000" fill-rule="evenodd" fill-opacity="1" /><path clip-path="url(#clip650)" d="M 0 0 M2000.36 157.836 Q1995.19 157.836 1993.2 159.017 Q1991.21 160.197 1991.21 163.045 Q1991.21 165.313 1992.69 166.656 Q1994.2 167.975 1996.77 167.975 Q2000.31 167.975 2002.44 165.475 Q2004.59 162.952 2004.59 158.785 L2004.59 157.836 L2000.36 157.836 M2008.85 156.077 L2008.85 170.869 L2004.59 170.869 L2004.59 166.933 Q2003.13 169.295 2000.96 170.429 Q1998.78 171.54 1995.63 171.54 Q1991.65 171.54 1989.29 169.318 Q1986.95 167.072 1986.95 163.322 Q1986.95 158.947 1989.87 156.725 Q1992.81 154.503 1998.62 154.503 L2004.59 154.503 L2004.59 154.086 Q2004.59 151.147 2002.65 149.549 Q2000.73 147.929 1997.23 147.929 Q1995.01 147.929 1992.9 148.461 Q1990.8 148.994 1988.85 150.059 L1988.85 146.123 Q1991.19 145.221 1993.39 144.781 Q1995.59 144.318 1997.67 144.318 Q2003.3 144.318 2006.07 147.234 Q2008.85 150.151 2008.85 156.077 Z" fill="#000000" fill-rule="evenodd" fill-opacity="1" /><path clip-path="url(#clip650)" d="M 0 0 M2034.68 157.605 Q2034.68 152.975 2032.76 150.429 Q2030.87 147.883 2027.42 147.883 Q2023.99 147.883 2022.07 150.429 Q2020.17 152.975 2020.17 157.605 Q2020.17 162.211 2022.07 164.758 Q2023.99 167.304 2027.42 167.304 Q2030.87 167.304 2032.76 164.758 Q2034.68 162.211 2034.68 157.605 M2038.94 167.651 Q2038.94 174.271 2036 177.489 Q2033.06 180.73 2027 180.73 Q2024.75 180.73 2022.76 180.382 Q2020.77 180.058 2018.9 179.364 L2018.9 175.22 Q2020.77 176.239 2022.6 176.725 Q2024.43 177.211 2026.33 177.211 Q2030.52 177.211 2032.6 175.012 Q2034.68 172.836 2034.68 168.415 L2034.68 166.308 Q2033.37 168.6 2031.31 169.734 Q2029.25 170.869 2026.37 170.869 Q2021.61 170.869 2018.69 167.234 Q2015.77 163.6 2015.77 157.605 Q2015.77 151.586 2018.69 147.952 Q2021.61 144.318 2026.37 144.318 Q2029.25 144.318 2031.31 145.452 Q2033.37 146.586 2034.68 148.878 L2034.68 144.943 L2038.94 144.943 L2038.94 167.651 Z" fill="#000000" fill-rule="evenodd" fill-opacity="1" /><path clip-path="url(#clip650)" d="M 0 0 M2069.27 155.221 L2069.27 170.869 L2065.01 170.869 L2065.01 155.359 Q2065.01 151.679 2063.57 149.85 Q2062.14 148.022 2059.27 148.022 Q2055.82 148.022 2053.83 150.221 Q2051.84 152.42 2051.84 156.216 L2051.84 170.869 L2047.56 170.869 L2047.56 144.943 L2051.84 144.943 L2051.84 148.971 Q2053.37 146.633 2055.43 145.475 Q2057.51 144.318 2060.22 144.318 Q2064.68 144.318 2066.98 147.096 Q2069.27 149.85 2069.27 155.221 Z" fill="#000000" fill-rule="evenodd" fill-opacity="1" /><path clip-path="url(#clip650)" d="M 0 0 M2099.94 156.841 L2099.94 158.924 L2080.36 158.924 Q2080.63 163.322 2082.99 165.637 Q2085.38 167.929 2089.62 167.929 Q2092.07 167.929 2094.36 167.327 Q2096.68 166.725 2098.94 165.521 L2098.94 169.549 Q2096.65 170.521 2094.24 171.031 Q2091.84 171.54 2089.36 171.54 Q2083.16 171.54 2079.52 167.929 Q2075.91 164.318 2075.91 158.16 Q2075.91 151.795 2079.34 148.068 Q2082.79 144.318 2088.62 144.318 Q2093.85 144.318 2096.88 147.697 Q2099.94 151.054 2099.94 156.841 M2095.68 155.591 Q2095.63 152.096 2093.71 150.012 Q2091.81 147.929 2088.67 147.929 Q2085.1 147.929 2082.95 149.943 Q2080.82 151.957 2080.49 155.614 L2095.68 155.591 Z" fill="#000000" fill-rule="evenodd" fill-opacity="1" /><path clip-path="url(#clip650)" d="M 0 0 M2111.14 137.582 L2111.14 144.943 L2119.92 144.943 L2119.92 148.253 L2111.14 148.253 L2111.14 162.327 Q2111.14 165.498 2112 166.401 Q2112.88 167.304 2115.54 167.304 L2119.92 167.304 L2119.92 170.869 L2115.54 170.869 Q2110.61 170.869 2108.74 169.04 Q2106.86 167.188 2106.86 162.327 L2106.86 148.253 L2103.74 148.253 L2103.74 144.943 L2106.86 144.943 L2106.86 137.582 L2111.14 137.582 Z" fill="#000000" fill-rule="evenodd" fill-opacity="1" /><path clip-path="url(#clip650)" d="M 0 0 M2125.52 144.943 L2129.78 144.943 L2129.78 170.869 L2125.52 170.869 L2125.52 144.943 M2125.52 134.85 L2129.78 134.85 L2129.78 140.244 L2125.52 140.244 L2125.52 134.85 Z" fill="#000000" fill-rule="evenodd" fill-opacity="1" /><path clip-path="url(#clip650)" d="M 0 0 M2157.35 145.938 L2157.35 149.92 Q2155.54 148.924 2153.71 148.438 Q2151.91 147.929 2150.05 147.929 Q2145.91 147.929 2143.62 150.568 Q2141.33 153.184 2141.33 157.929 Q2141.33 162.674 2143.62 165.313 Q2145.91 167.929 2150.05 167.929 Q2151.91 167.929 2153.71 167.443 Q2155.54 166.933 2157.35 165.938 L2157.35 169.873 Q2155.56 170.707 2153.64 171.123 Q2151.74 171.54 2149.59 171.54 Q2143.74 171.54 2140.29 167.859 Q2136.84 164.179 2136.84 157.929 Q2136.84 151.586 2140.31 147.952 Q2143.8 144.318 2149.87 144.318 Q2151.84 144.318 2153.71 144.735 Q2155.59 145.128 2157.35 145.938 Z" fill="#000000" fill-rule="evenodd" fill-opacity="1" /><polyline clip-path="url(#clip650)" style="stroke:#e26f46; stroke-width:4; stroke-opacity:1; fill:none" points="
  1670.96,214.069 1811.18,214.069 
  "/>
<circle clip-path="url(#clip650)" cx="1741.07" cy="214.069" r="23" fill="#e26f46" fill-rule="evenodd" fill-opacity="1" stroke="#000000" stroke-opacity="1" stroke-width="5.12"/>
<path clip-path="url(#clip650)" d="M 0 0 M1851.05 195.33 L1851.05 198.872 L1846.98 198.872 Q1844.69 198.872 1843.78 199.798 Q1842.9 200.724 1842.9 203.131 L1842.9 205.423 L1849.92 205.423 L1849.92 208.733 L1842.9 208.733 L1842.9 231.349 L1838.62 231.349 L1838.62 208.733 L1834.55 208.733 L1834.55 205.423 L1838.62 205.423 L1838.62 203.617 Q1838.62 199.289 1840.64 197.321 Q1842.65 195.33 1847.02 195.33 L1851.05 195.33 Z" fill="#000000" fill-rule="evenodd" fill-opacity="1" /><path clip-path="url(#clip650)" d="M 0 0 M1876.79 217.321 L1876.79 219.404 L1857.21 219.404 Q1857.49 223.802 1859.85 226.117 Q1862.23 228.409 1866.47 228.409 Q1868.92 228.409 1871.21 227.807 Q1873.53 227.205 1875.8 226.001 L1875.8 230.029 Q1873.51 231.001 1871.1 231.511 Q1868.69 232.02 1866.21 232.02 Q1860.01 232.02 1856.38 228.409 Q1852.76 224.798 1852.76 218.64 Q1852.76 212.275 1856.19 208.548 Q1859.64 204.798 1865.47 204.798 Q1870.7 204.798 1873.74 208.177 Q1876.79 211.534 1876.79 217.321 M1872.53 216.071 Q1872.49 212.576 1870.57 210.492 Q1868.67 208.409 1865.52 208.409 Q1861.95 208.409 1859.8 210.423 Q1857.67 212.437 1857.35 216.094 L1872.53 216.071 Z" fill="#000000" fill-rule="evenodd" fill-opacity="1" /><path clip-path="url(#clip650)" d="M 0 0 M1898.81 209.404 Q1898.09 208.988 1897.23 208.802 Q1896.4 208.594 1895.38 208.594 Q1891.77 208.594 1889.82 210.955 Q1887.9 213.293 1887.9 217.691 L1887.9 231.349 L1883.62 231.349 L1883.62 205.423 L1887.9 205.423 L1887.9 209.451 Q1889.25 207.089 1891.4 205.955 Q1893.55 204.798 1896.63 204.798 Q1897.07 204.798 1897.6 204.867 Q1898.13 204.914 1898.78 205.029 L1898.81 209.404 Z" fill="#000000" fill-rule="evenodd" fill-opacity="1" /><path clip-path="url(#clip650)" d="M 0 0 M1917.46 209.404 Q1916.75 208.988 1915.89 208.802 Q1915.06 208.594 1914.04 208.594 Q1910.43 208.594 1908.48 210.955 Q1906.56 213.293 1906.56 217.691 L1906.56 231.349 L1902.28 231.349 L1902.28 205.423 L1906.56 205.423 L1906.56 209.451 Q1907.9 207.089 1910.06 205.955 Q1912.21 204.798 1915.29 204.798 Q1915.73 204.798 1916.26 204.867 Q1916.79 204.914 1917.44 205.029 L1917.46 209.404 Z" fill="#000000" fill-rule="evenodd" fill-opacity="1" /><path clip-path="url(#clip650)" d="M 0 0 M1930.94 208.409 Q1927.51 208.409 1925.52 211.094 Q1923.53 213.756 1923.53 218.409 Q1923.53 223.062 1925.5 225.747 Q1927.49 228.409 1930.94 228.409 Q1934.34 228.409 1936.33 225.724 Q1938.32 223.038 1938.32 218.409 Q1938.32 213.802 1936.33 211.117 Q1934.34 208.409 1930.94 208.409 M1930.94 204.798 Q1936.49 204.798 1939.66 208.409 Q1942.83 212.02 1942.83 218.409 Q1942.83 224.775 1939.66 228.409 Q1936.49 232.02 1930.94 232.02 Q1925.36 232.02 1922.19 228.409 Q1919.04 224.775 1919.04 218.409 Q1919.04 212.02 1922.19 208.409 Q1925.36 204.798 1930.94 204.798 Z" fill="#000000" fill-rule="evenodd" fill-opacity="1" /><path clip-path="url(#clip650)" d="M 0 0 M1970.08 210.4 Q1971.68 207.529 1973.9 206.164 Q1976.12 204.798 1979.13 204.798 Q1983.18 204.798 1985.38 207.645 Q1987.58 210.469 1987.58 215.701 L1987.58 231.349 L1983.3 231.349 L1983.3 215.839 Q1983.3 212.113 1981.98 210.307 Q1980.66 208.502 1977.95 208.502 Q1974.64 208.502 1972.72 210.701 Q1970.8 212.9 1970.8 216.696 L1970.8 231.349 L1966.51 231.349 L1966.51 215.839 Q1966.51 212.089 1965.19 210.307 Q1963.88 208.502 1961.12 208.502 Q1957.86 208.502 1955.94 210.724 Q1954.01 212.923 1954.01 216.696 L1954.01 231.349 L1949.73 231.349 L1949.73 205.423 L1954.01 205.423 L1954.01 209.451 Q1955.47 207.066 1957.51 205.932 Q1959.55 204.798 1962.35 204.798 Q1965.17 204.798 1967.14 206.233 Q1969.13 207.668 1970.08 210.4 Z" fill="#000000" fill-rule="evenodd" fill-opacity="1" /><path clip-path="url(#clip650)" d="M 0 0 M2007.86 218.316 Q2002.69 218.316 2000.7 219.497 Q1998.71 220.677 1998.71 223.525 Q1998.71 225.793 2000.19 227.136 Q2001.7 228.455 2004.27 228.455 Q2007.81 228.455 2009.94 225.955 Q2012.09 223.432 2012.09 219.265 L2012.09 218.316 L2007.86 218.316 M2016.35 216.557 L2016.35 231.349 L2012.09 231.349 L2012.09 227.413 Q2010.63 229.775 2008.46 230.909 Q2006.28 232.02 2003.13 232.02 Q1999.15 232.02 1996.79 229.798 Q1994.45 227.552 1994.45 223.802 Q1994.45 219.427 1997.37 217.205 Q2000.31 214.983 2006.12 214.983 L2012.09 214.983 L2012.09 214.566 Q2012.09 211.627 2010.15 210.029 Q2008.23 208.409 2004.73 208.409 Q2002.51 208.409 2000.4 208.941 Q1998.3 209.474 1996.35 210.539 L1996.35 206.603 Q1998.69 205.701 2000.89 205.261 Q2003.09 204.798 2005.17 204.798 Q2010.8 204.798 2013.57 207.714 Q2016.35 210.631 2016.35 216.557 Z" fill="#000000" fill-rule="evenodd" fill-opacity="1" /><path clip-path="url(#clip650)" d="M 0 0 M2042.18 218.085 Q2042.18 213.455 2040.26 210.909 Q2038.37 208.363 2034.92 208.363 Q2031.49 208.363 2029.57 210.909 Q2027.67 213.455 2027.67 218.085 Q2027.67 222.691 2029.57 225.238 Q2031.49 227.784 2034.92 227.784 Q2038.37 227.784 2040.26 225.238 Q2042.18 222.691 2042.18 218.085 M2046.44 228.131 Q2046.44 234.751 2043.5 237.969 Q2040.56 241.21 2034.5 241.21 Q2032.25 241.21 2030.26 240.862 Q2028.27 240.538 2026.4 239.844 L2026.4 235.7 Q2028.27 236.719 2030.1 237.205 Q2031.93 237.691 2033.83 237.691 Q2038.02 237.691 2040.1 235.492 Q2042.18 233.316 2042.18 228.895 L2042.18 226.788 Q2040.87 229.08 2038.81 230.214 Q2036.75 231.349 2033.87 231.349 Q2029.11 231.349 2026.19 227.714 Q2023.27 224.08 2023.27 218.085 Q2023.27 212.066 2026.19 208.432 Q2029.11 204.798 2033.87 204.798 Q2036.75 204.798 2038.81 205.932 Q2040.87 207.066 2042.18 209.358 L2042.18 205.423 L2046.44 205.423 L2046.44 228.131 Z" fill="#000000" fill-rule="evenodd" fill-opacity="1" /><path clip-path="url(#clip650)" d="M 0 0 M2076.77 215.701 L2076.77 231.349 L2072.51 231.349 L2072.51 215.839 Q2072.51 212.159 2071.07 210.33 Q2069.64 208.502 2066.77 208.502 Q2063.32 208.502 2061.33 210.701 Q2059.34 212.9 2059.34 216.696 L2059.34 231.349 L2055.06 231.349 L2055.06 205.423 L2059.34 205.423 L2059.34 209.451 Q2060.87 207.113 2062.93 205.955 Q2065.01 204.798 2067.72 204.798 Q2072.18 204.798 2074.48 207.576 Q2076.77 210.33 2076.77 215.701 Z" fill="#000000" fill-rule="evenodd" fill-opacity="1" /><path clip-path="url(#clip650)" d="M 0 0 M2107.44 217.321 L2107.44 219.404 L2087.86 219.404 Q2088.13 223.802 2090.49 226.117 Q2092.88 228.409 2097.12 228.409 Q2099.57 228.409 2101.86 227.807 Q2104.18 227.205 2106.44 226.001 L2106.44 230.029 Q2104.15 231.001 2101.74 231.511 Q2099.34 232.02 2096.86 232.02 Q2090.66 232.02 2087.02 228.409 Q2083.41 224.798 2083.41 218.64 Q2083.41 212.275 2086.84 208.548 Q2090.29 204.798 2096.12 204.798 Q2101.35 204.798 2104.38 208.177 Q2107.44 211.534 2107.44 217.321 M2103.18 216.071 Q2103.13 212.576 2101.21 210.492 Q2099.31 208.409 2096.17 208.409 Q2092.6 208.409 2090.45 210.423 Q2088.32 212.437 2087.99 216.094 L2103.18 216.071 Z" fill="#000000" fill-rule="evenodd" fill-opacity="1" /><path clip-path="url(#clip650)" d="M 0 0 M2118.64 198.062 L2118.64 205.423 L2127.42 205.423 L2127.42 208.733 L2118.64 208.733 L2118.64 222.807 Q2118.64 225.978 2119.5 226.881 Q2120.38 227.784 2123.04 227.784 L2127.42 227.784 L2127.42 231.349 L2123.04 231.349 Q2118.11 231.349 2116.24 229.52 Q2114.36 227.668 2114.36 222.807 L2114.36 208.733 L2111.24 208.733 L2111.24 205.423 L2114.36 205.423 L2114.36 198.062 L2118.64 198.062 Z" fill="#000000" fill-rule="evenodd" fill-opacity="1" /><path clip-path="url(#clip650)" d="M 0 0 M2133.02 205.423 L2137.28 205.423 L2137.28 231.349 L2133.02 231.349 L2133.02 205.423 M2133.02 195.33 L2137.28 195.33 L2137.28 200.724 L2133.02 200.724 L2133.02 195.33 Z" fill="#000000" fill-rule="evenodd" fill-opacity="1" /><path clip-path="url(#clip650)" d="M 0 0 M2164.85 206.418 L2164.85 210.4 Q2163.04 209.404 2161.21 208.918 Q2159.41 208.409 2157.55 208.409 Q2153.41 208.409 2151.12 211.048 Q2148.83 213.664 2148.83 218.409 Q2148.83 223.154 2151.12 225.793 Q2153.41 228.409 2157.55 228.409 Q2159.41 228.409 2161.21 227.923 Q2163.04 227.413 2164.85 226.418 L2164.85 230.353 Q2163.06 231.187 2161.14 231.603 Q2159.24 232.02 2157.09 232.02 Q2151.24 232.02 2147.79 228.339 Q2144.34 224.659 2144.34 218.409 Q2144.34 212.066 2147.81 208.432 Q2151.3 204.798 2157.37 204.798 Q2159.34 204.798 2161.21 205.215 Q2163.09 205.608 2164.85 206.418 Z" fill="#000000" fill-rule="evenodd" fill-opacity="1" /><polyline clip-path="url(#clip650)" style="stroke:#000000; stroke-width:4; stroke-opacity:1; fill:none" stroke-dasharray="16, 10" points="
  1670.96,274.549 1811.18,274.549 
  "/>
<path clip-path="url(#clip650)" d="M 0 0 M1850.57 260.44 Q1845.47 260.44 1842.46 264.236 Q1839.48 268.032 1839.48 274.583 Q1839.48 281.111 1842.46 284.907 Q1845.47 288.704 1850.57 288.704 Q1855.66 288.704 1858.62 284.907 Q1861.61 281.111 1861.61 274.583 Q1861.61 268.032 1858.62 264.236 Q1855.66 260.44 1850.57 260.44 M1850.57 256.644 Q1857.83 256.644 1862.19 261.528 Q1866.54 266.389 1866.54 274.583 Q1866.54 282.755 1862.19 287.639 Q1857.83 292.5 1850.57 292.5 Q1843.27 292.5 1838.9 287.639 Q1834.55 282.778 1834.55 274.583 Q1834.55 266.389 1838.9 261.528 Q1843.27 256.644 1850.57 256.644 Z" fill="#000000" fill-rule="evenodd" fill-opacity="1" /><path clip-path="url(#clip650)" d="M 0 0 M1895.22 276.181 L1895.22 291.829 L1890.96 291.829 L1890.96 276.319 Q1890.96 272.639 1889.52 270.81 Q1888.09 268.982 1885.22 268.982 Q1881.77 268.982 1879.78 271.181 Q1877.79 273.38 1877.79 277.176 L1877.79 291.829 L1873.51 291.829 L1873.51 265.903 L1877.79 265.903 L1877.79 269.931 Q1879.32 267.593 1881.38 266.435 Q1883.46 265.278 1886.17 265.278 Q1890.63 265.278 1892.93 268.056 Q1895.22 270.81 1895.22 276.181 Z" fill="#000000" fill-rule="evenodd" fill-opacity="1" /><path clip-path="url(#clip650)" d="M 0 0 M1920.24 266.667 L1920.24 270.694 Q1918.44 269.769 1916.49 269.306 Q1914.55 268.843 1912.46 268.843 Q1909.29 268.843 1907.69 269.815 Q1906.12 270.787 1906.12 272.731 Q1906.12 274.213 1907.26 275.069 Q1908.39 275.903 1911.82 276.667 L1913.27 276.991 Q1917.81 277.963 1919.71 279.745 Q1921.63 281.505 1921.63 284.676 Q1921.63 288.287 1918.76 290.393 Q1915.91 292.5 1910.91 292.5 Q1908.83 292.5 1906.56 292.083 Q1904.32 291.69 1901.82 290.88 L1901.82 286.481 Q1904.18 287.708 1906.47 288.333 Q1908.76 288.935 1911.01 288.935 Q1914.01 288.935 1915.63 287.917 Q1917.25 286.875 1917.25 285 Q1917.25 283.264 1916.07 282.338 Q1914.92 281.412 1910.96 280.556 L1909.48 280.208 Q1905.52 279.375 1903.76 277.662 Q1902 275.926 1902 272.917 Q1902 269.259 1904.59 267.269 Q1907.19 265.278 1911.95 265.278 Q1914.32 265.278 1916.4 265.625 Q1918.48 265.972 1920.24 266.667 Z" fill="#000000" fill-rule="evenodd" fill-opacity="1" /><path clip-path="url(#clip650)" d="M 0 0 M1940.19 278.796 Q1935.03 278.796 1933.04 279.977 Q1931.05 281.157 1931.05 284.005 Q1931.05 286.273 1932.53 287.616 Q1934.04 288.935 1936.61 288.935 Q1940.15 288.935 1942.28 286.435 Q1944.43 283.912 1944.43 279.745 L1944.43 278.796 L1940.19 278.796 M1948.69 277.037 L1948.69 291.829 L1944.43 291.829 L1944.43 287.893 Q1942.97 290.255 1940.8 291.389 Q1938.62 292.5 1935.47 292.5 Q1931.49 292.5 1929.13 290.278 Q1926.79 288.032 1926.79 284.282 Q1926.79 279.907 1929.71 277.685 Q1932.65 275.463 1938.46 275.463 L1944.43 275.463 L1944.43 275.046 Q1944.43 272.107 1942.49 270.509 Q1940.57 268.889 1937.07 268.889 Q1934.85 268.889 1932.74 269.421 Q1930.63 269.954 1928.69 271.019 L1928.69 267.083 Q1931.03 266.181 1933.23 265.741 Q1935.43 265.278 1937.51 265.278 Q1943.13 265.278 1945.91 268.194 Q1948.69 271.111 1948.69 277.037 Z" fill="#000000" fill-rule="evenodd" fill-opacity="1" /><path clip-path="url(#clip650)" d="M 0 0 M1974.52 278.565 Q1974.52 273.935 1972.6 271.389 Q1970.7 268.843 1967.25 268.843 Q1963.83 268.843 1961.91 271.389 Q1960.01 273.935 1960.01 278.565 Q1960.01 283.171 1961.91 285.718 Q1963.83 288.264 1967.25 288.264 Q1970.7 288.264 1972.6 285.718 Q1974.52 283.171 1974.52 278.565 M1978.78 288.611 Q1978.78 295.231 1975.84 298.449 Q1972.9 301.69 1966.84 301.69 Q1964.59 301.69 1962.6 301.342 Q1960.61 301.018 1958.74 300.324 L1958.74 296.18 Q1960.61 297.199 1962.44 297.685 Q1964.27 298.171 1966.17 298.171 Q1970.36 298.171 1972.44 295.972 Q1974.52 293.796 1974.52 289.375 L1974.52 287.268 Q1973.2 289.56 1971.14 290.694 Q1969.08 291.829 1966.21 291.829 Q1961.44 291.829 1958.53 288.194 Q1955.61 284.56 1955.61 278.565 Q1955.61 272.546 1958.53 268.912 Q1961.44 265.278 1966.21 265.278 Q1969.08 265.278 1971.14 266.412 Q1973.2 267.546 1974.52 269.838 L1974.52 265.903 L1978.78 265.903 L1978.78 288.611 Z" fill="#000000" fill-rule="evenodd" fill-opacity="1" /><path clip-path="url(#clip650)" d="M 0 0 M2009.73 277.801 L2009.73 279.884 L1990.15 279.884 Q1990.43 284.282 1992.79 286.597 Q1995.17 288.889 1999.41 288.889 Q2001.86 288.889 2004.15 288.287 Q2006.47 287.685 2008.74 286.481 L2008.74 290.509 Q2006.44 291.481 2004.04 291.991 Q2001.63 292.5 1999.15 292.5 Q1992.95 292.5 1989.31 288.889 Q1985.7 285.278 1985.7 279.12 Q1985.7 272.755 1989.13 269.028 Q1992.58 265.278 1998.41 265.278 Q2003.64 265.278 2006.68 268.657 Q2009.73 272.014 2009.73 277.801 M2005.47 276.551 Q2005.43 273.056 2003.5 270.972 Q2001.61 268.889 1998.46 268.889 Q1994.89 268.889 1992.74 270.903 Q1990.61 272.917 1990.29 276.574 L2005.47 276.551 Z" fill="#000000" fill-rule="evenodd" fill-opacity="1" /><path clip-path="url(#clip650)" d="M 0 0 M2031.75 269.884 Q2031.03 269.468 2030.17 269.282 Q2029.34 269.074 2028.32 269.074 Q2024.71 269.074 2022.76 271.435 Q2020.84 273.773 2020.84 278.171 L2020.84 291.829 L2016.56 291.829 L2016.56 265.903 L2020.84 265.903 L2020.84 269.931 Q2022.18 267.569 2024.34 266.435 Q2026.49 265.278 2029.57 265.278 Q2030.01 265.278 2030.54 265.347 Q2031.07 265.394 2031.72 265.509 L2031.75 269.884 Z" fill="#000000" fill-rule="evenodd" fill-opacity="1" /><path clip-path="url(#clip650)" d="M 0 0 M2072.18 258.403 L2072.18 262.963 Q2069.52 261.69 2067.16 261.065 Q2064.8 260.44 2062.6 260.44 Q2058.78 260.44 2056.7 261.921 Q2054.64 263.403 2054.64 266.134 Q2054.64 268.426 2056 269.607 Q2057.39 270.764 2061.24 271.482 L2064.06 272.06 Q2069.29 273.056 2071.77 275.579 Q2074.27 278.079 2074.27 282.292 Q2074.27 287.315 2070.89 289.907 Q2067.53 292.5 2061.03 292.5 Q2058.57 292.5 2055.8 291.944 Q2053.04 291.389 2050.08 290.301 L2050.08 285.486 Q2052.93 287.083 2055.66 287.893 Q2058.39 288.704 2061.03 288.704 Q2065.03 288.704 2067.21 287.13 Q2069.38 285.556 2069.38 282.639 Q2069.38 280.093 2067.81 278.657 Q2066.26 277.222 2062.69 276.505 L2059.85 275.949 Q2054.62 274.907 2052.28 272.685 Q2049.94 270.463 2049.94 266.505 Q2049.94 261.921 2053.16 259.282 Q2056.4 256.644 2062.07 256.644 Q2064.5 256.644 2067.02 257.083 Q2069.55 257.523 2072.18 258.403 Z" fill="#000000" fill-rule="evenodd" fill-opacity="1" /><path clip-path="url(#clip650)" d="M 0 0 M2091.42 268.889 Q2087.99 268.889 2086 271.574 Q2084.01 274.236 2084.01 278.889 Q2084.01 283.542 2085.98 286.227 Q2087.97 288.889 2091.42 288.889 Q2094.82 288.889 2096.81 286.204 Q2098.8 283.518 2098.8 278.889 Q2098.8 274.282 2096.81 271.597 Q2094.82 268.889 2091.42 268.889 M2091.42 265.278 Q2096.98 265.278 2100.15 268.889 Q2103.32 272.5 2103.32 278.889 Q2103.32 285.255 2100.15 288.889 Q2096.98 292.5 2091.42 292.5 Q2085.84 292.5 2082.67 288.889 Q2079.52 285.255 2079.52 278.889 Q2079.52 272.5 2082.67 268.889 Q2085.84 265.278 2091.42 265.278 Z" fill="#000000" fill-rule="evenodd" fill-opacity="1" /><path clip-path="url(#clip650)" d="M 0 0 M2110.38 255.81 L2114.64 255.81 L2114.64 291.829 L2110.38 291.829 L2110.38 255.81 Z" fill="#000000" fill-rule="evenodd" fill-opacity="1" /><path clip-path="url(#clip650)" d="M 0 0 M2123.11 281.597 L2123.11 265.903 L2127.37 265.903 L2127.37 281.435 Q2127.37 285.116 2128.8 286.968 Q2130.24 288.796 2133.11 288.796 Q2136.56 288.796 2138.55 286.597 Q2140.56 284.398 2140.56 280.602 L2140.56 265.903 L2144.82 265.903 L2144.82 291.829 L2140.56 291.829 L2140.56 287.847 Q2139.01 290.208 2136.95 291.366 Q2134.92 292.5 2132.21 292.5 Q2127.74 292.5 2125.43 289.722 Q2123.11 286.944 2123.11 281.597 M2133.83 265.278 L2133.83 265.278 Z" fill="#000000" fill-rule="evenodd" fill-opacity="1" /><path clip-path="url(#clip650)" d="M 0 0 M2157.81 258.542 L2157.81 265.903 L2166.58 265.903 L2166.58 269.213 L2157.81 269.213 L2157.81 283.287 Q2157.81 286.458 2158.67 287.361 Q2159.55 288.264 2162.21 288.264 L2166.58 288.264 L2166.58 291.829 L2162.21 291.829 Q2157.28 291.829 2155.4 290 Q2153.53 288.148 2153.53 283.287 L2153.53 269.213 L2150.4 269.213 L2150.4 265.903 L2153.53 265.903 L2153.53 258.542 L2157.81 258.542 Z" fill="#000000" fill-rule="evenodd" fill-opacity="1" /><path clip-path="url(#clip650)" d="M 0 0 M2172.18 265.903 L2176.44 265.903 L2176.44 291.829 L2172.18 291.829 L2172.18 265.903 M2172.18 255.81 L2176.44 255.81 L2176.44 261.204 L2172.18 261.204 L2172.18 255.81 Z" fill="#000000" fill-rule="evenodd" fill-opacity="1" /><path clip-path="url(#clip650)" d="M 0 0 M2195.4 268.889 Q2191.98 268.889 2189.99 271.574 Q2187.99 274.236 2187.99 278.889 Q2187.99 283.542 2189.96 286.227 Q2191.95 288.889 2195.4 288.889 Q2198.8 288.889 2200.8 286.204 Q2202.79 283.518 2202.79 278.889 Q2202.79 274.282 2200.8 271.597 Q2198.8 268.889 2195.4 268.889 M2195.4 265.278 Q2200.96 265.278 2204.13 268.889 Q2207.3 272.5 2207.3 278.889 Q2207.3 285.255 2204.13 288.889 Q2200.96 292.5 2195.4 292.5 Q2189.82 292.5 2186.65 288.889 Q2183.5 285.255 2183.5 278.889 Q2183.5 272.5 2186.65 268.889 Q2189.82 265.278 2195.4 265.278 Z" fill="#000000" fill-rule="evenodd" fill-opacity="1" /><path clip-path="url(#clip650)" d="M 0 0 M2235.91 276.181 L2235.91 291.829 L2231.65 291.829 L2231.65 276.319 Q2231.65 272.639 2230.22 270.81 Q2228.78 268.982 2225.91 268.982 Q2222.46 268.982 2220.47 271.181 Q2218.48 273.38 2218.48 277.176 L2218.48 291.829 L2214.2 291.829 L2214.2 265.903 L2218.48 265.903 L2218.48 269.931 Q2220.01 267.593 2222.07 266.435 Q2224.15 265.278 2226.86 265.278 Q2231.33 265.278 2233.62 268.056 Q2235.91 270.81 2235.91 276.181 Z" fill="#000000" fill-rule="evenodd" fill-opacity="1" /></svg>
