<?xml version="1.0" encoding="utf-8"?>
<svg xmlns="http://www.w3.org/2000/svg" xmlns:xlink="http://www.w3.org/1999/xlink" width="600" height="400" viewBox="0 0 2400 1600">
<defs>
  <clipPath id="clip310">
    <rect x="0" y="0" width="2400" height="1600"/>
  </clipPath>
</defs>
<path clip-path="url(#clip310)" d="
M0 1600 L2400 1600 L2400 0 L0 0  Z
  " fill="#ffffff" fill-rule="evenodd" fill-opacity="1"/>
<defs>
  <clipPath id="clip311">
    <rect x="480" y="0" width="1681" height="1600"/>
  </clipPath>
</defs>
<path clip-path="url(#clip310)" d="
M147.478 1486.45 L2352.76 1486.45 L2352.76 47.2441 L147.478 47.2441  Z
  " fill="#ffffff" fill-rule="evenodd" fill-opacity="1"/>
<defs>
  <clipPath id="clip312">
    <rect x="147" y="47" width="2206" height="1440"/>
  </clipPath>
</defs>
<polyline clip-path="url(#clip312)" style="stroke:#000000; stroke-linecap:butt; stroke-linejoin:round; stroke-width:2; stroke-opacity:0.1; fill:none" points="
  496.85,1486.45 496.85,47.2441 
  "/>
<polyline clip-path="url(#clip312)" style="stroke:#000000; stroke-linecap:butt; stroke-linejoin:round; stroke-width:2; stroke-opacity:0.1; fill:none" points="
  855.549,1486.45 855.549,47.2441 
  "/>
<polyline clip-path="url(#clip312)" style="stroke:#000000; stroke-linecap:butt; stroke-linejoin:round; stroke-width:2; stroke-opacity:0.1; fill:none" points="
  1214.25,1486.45 1214.25,47.2441 
  "/>
<polyline clip-path="url(#clip312)" style="stroke:#000000; stroke-linecap:butt; stroke-linejoin:round; stroke-width:2; stroke-opacity:0.1; fill:none" points="
  1572.95,1486.45 1572.95,47.2441 
  "/>
<polyline clip-path="url(#clip312)" style="stroke:#000000; stroke-linecap:butt; stroke-linejoin:round; stroke-width:2; stroke-opacity:0.1; fill:none" points="
  1931.64,1486.45 1931.64,47.2441 
  "/>
<polyline clip-path="url(#clip312)" style="stroke:#000000; stroke-linecap:butt; stroke-linejoin:round; stroke-width:2; stroke-opacity:0.1; fill:none" points="
  2290.34,1486.45 2290.34,47.2441 
  "/>
<polyline clip-path="url(#clip310)" style="stroke:#000000; stroke-linecap:butt; stroke-linejoin:round; stroke-width:4; stroke-opacity:1; fill:none" points="
  147.478,1486.45 2352.76,1486.45 
  "/>
<polyline clip-path="url(#clip310)" style="stroke:#000000; stroke-linecap:butt; stroke-linejoin:round; stroke-width:4; stroke-opacity:1; fill:none" points="
  496.85,1486.45 496.85,1467.55 
  "/>
<polyline clip-path="url(#clip310)" style="stroke:#000000; stroke-linecap:butt; stroke-linejoin:round; stroke-width:4; stroke-opacity:1; fill:none" points="
  855.549,1486.45 855.549,1467.55 
  "/>
<polyline clip-path="url(#clip310)" style="stroke:#000000; stroke-linecap:butt; stroke-linejoin:round; stroke-width:4; stroke-opacity:1; fill:none" points="
  1214.25,1486.45 1214.25,1467.55 
  "/>
<polyline clip-path="url(#clip310)" style="stroke:#000000; stroke-linecap:butt; stroke-linejoin:round; stroke-width:4; stroke-opacity:1; fill:none" points="
  1572.95,1486.45 1572.95,1467.55 
  "/>
<polyline clip-path="url(#clip310)" style="stroke:#000000; stroke-linecap:butt; stroke-linejoin:round; stroke-width:4; stroke-opacity:1; fill:none" points="
  1931.64,1486.45 1931.64,1467.55 
  "/>
<polyline clip-path="url(#clip310)" style="stroke:#000000; stroke-linecap:butt; stroke-linejoin:round; stroke-width:4; stroke-opacity:1; fill:none" points="
  2290.34,1486.45 2290.34,1467.55 
  "/>
<path clip-path="url(#clip310)" d="M487.128 1512.56 L505.484 1512.56 L505.484 1516.5 L491.41 1516.5 L491.41 1524.97 Q492.429 1524.62 493.447 1524.46 Q494.466 1524.27 495.484 1524.27 Q501.271 1524.27 504.651 1527.44 Q508.031 1530.62 508.031 1536.03 Q508.031 1541.61 504.558 1544.71 Q501.086 1547.79 494.767 1547.79 Q492.591 1547.79 490.322 1547.42 Q488.077 1547.05 485.67 1546.31 L485.67 1541.61 Q487.753 1542.74 489.975 1543.3 Q492.197 1543.86 494.674 1543.86 Q498.679 1543.86 501.017 1541.75 Q503.355 1539.64 503.355 1536.03 Q503.355 1532.42 501.017 1530.31 Q498.679 1528.21 494.674 1528.21 Q492.799 1528.21 490.924 1528.62 Q489.072 1529.04 487.128 1529.92 L487.128 1512.56 Z" fill="#000000" fill-rule="evenodd" fill-opacity="1" /><path clip-path="url(#clip310)" d="M830.236 1543.18 L837.875 1543.18 L837.875 1516.82 L829.565 1518.49 L829.565 1514.23 L837.829 1512.56 L842.505 1512.56 L842.505 1543.18 L850.144 1543.18 L850.144 1547.12 L830.236 1547.12 L830.236 1543.18 Z" fill="#000000" fill-rule="evenodd" fill-opacity="1" /><path clip-path="url(#clip310)" d="M869.588 1515.64 Q865.977 1515.64 864.148 1519.2 Q862.343 1522.75 862.343 1529.87 Q862.343 1536.98 864.148 1540.55 Q865.977 1544.09 869.588 1544.09 Q873.222 1544.09 875.028 1540.55 Q876.856 1536.98 876.856 1529.87 Q876.856 1522.75 875.028 1519.2 Q873.222 1515.64 869.588 1515.64 M869.588 1511.93 Q875.398 1511.93 878.454 1516.54 Q881.532 1521.12 881.532 1529.87 Q881.532 1538.6 878.454 1543.21 Q875.398 1547.79 869.588 1547.79 Q863.778 1547.79 860.699 1543.21 Q857.644 1538.6 857.644 1529.87 Q857.644 1521.12 860.699 1516.54 Q863.778 1511.93 869.588 1511.93 Z" fill="#000000" fill-rule="evenodd" fill-opacity="1" /><path clip-path="url(#clip310)" d="M1189.43 1543.18 L1197.07 1543.18 L1197.07 1516.82 L1188.76 1518.49 L1188.76 1514.23 L1197.02 1512.56 L1201.7 1512.56 L1201.7 1543.18 L1209.34 1543.18 L1209.34 1547.12 L1189.43 1547.12 L1189.43 1543.18 Z" fill="#000000" fill-rule="evenodd" fill-opacity="1" /><path clip-path="url(#clip310)" d="M1218.83 1512.56 L1237.19 1512.56 L1237.19 1516.5 L1223.11 1516.5 L1223.11 1524.97 Q1224.13 1524.62 1225.15 1524.46 Q1226.17 1524.27 1227.19 1524.27 Q1232.97 1524.27 1236.35 1527.44 Q1239.73 1530.62 1239.73 1536.03 Q1239.73 1541.61 1236.26 1544.71 Q1232.79 1547.79 1226.47 1547.79 Q1224.29 1547.79 1222.02 1547.42 Q1219.78 1547.05 1217.37 1546.31 L1217.37 1541.61 Q1219.46 1542.74 1221.68 1543.3 Q1223.9 1543.86 1226.38 1543.86 Q1230.38 1543.86 1232.72 1541.75 Q1235.06 1539.64 1235.06 1536.03 Q1235.06 1532.42 1232.72 1530.31 Q1230.38 1528.21 1226.38 1528.21 Q1224.5 1528.21 1222.63 1528.62 Q1220.77 1529.04 1218.83 1529.92 L1218.83 1512.56 Z" fill="#000000" fill-rule="evenodd" fill-opacity="1" /><path clip-path="url(#clip310)" d="M1551.72 1543.18 L1568.04 1543.18 L1568.04 1547.12 L1546.09 1547.12 L1546.09 1543.18 Q1548.76 1540.43 1553.34 1535.8 Q1557.95 1531.15 1559.13 1529.81 Q1561.37 1527.28 1562.25 1525.55 Q1563.15 1523.79 1563.15 1522.1 Q1563.15 1519.34 1561.21 1517.61 Q1559.29 1515.87 1556.19 1515.87 Q1553.99 1515.87 1551.53 1516.63 Q1549.1 1517.4 1546.33 1518.95 L1546.33 1514.23 Q1549.15 1513.09 1551.6 1512.51 Q1554.06 1511.93 1556.09 1511.93 Q1561.46 1511.93 1564.66 1514.62 Q1567.85 1517.31 1567.85 1521.8 Q1567.85 1523.93 1567.04 1525.85 Q1566.26 1527.74 1564.15 1530.34 Q1563.57 1531.01 1560.47 1534.23 Q1557.37 1537.42 1551.72 1543.18 Z" fill="#000000" fill-rule="evenodd" fill-opacity="1" /><path clip-path="url(#clip310)" d="M1587.85 1515.64 Q1584.24 1515.64 1582.41 1519.2 Q1580.61 1522.75 1580.61 1529.87 Q1580.61 1536.98 1582.41 1540.55 Q1584.24 1544.09 1587.85 1544.09 Q1591.49 1544.09 1593.29 1540.55 Q1595.12 1536.98 1595.12 1529.87 Q1595.12 1522.75 1593.29 1519.2 Q1591.49 1515.64 1587.85 1515.64 M1587.85 1511.93 Q1593.66 1511.93 1596.72 1516.54 Q1599.8 1521.12 1599.8 1529.87 Q1599.8 1538.6 1596.72 1543.21 Q1593.66 1547.79 1587.85 1547.79 Q1582.04 1547.79 1578.96 1543.21 Q1575.91 1538.6 1575.91 1529.87 Q1575.91 1521.12 1578.96 1516.54 Q1582.04 1511.93 1587.85 1511.93 Z" fill="#000000" fill-rule="evenodd" fill-opacity="1" /><path clip-path="url(#clip310)" d="M1910.91 1543.18 L1927.23 1543.18 L1927.23 1547.12 L1905.29 1547.12 L1905.29 1543.18 Q1907.95 1540.43 1912.54 1535.8 Q1917.14 1531.15 1918.32 1529.81 Q1920.57 1527.28 1921.45 1525.55 Q1922.35 1523.79 1922.35 1522.1 Q1922.35 1519.34 1920.41 1517.61 Q1918.48 1515.87 1915.38 1515.87 Q1913.18 1515.87 1910.73 1516.63 Q1908.3 1517.4 1905.52 1518.95 L1905.52 1514.23 Q1908.35 1513.09 1910.8 1512.51 Q1913.25 1511.93 1915.29 1511.93 Q1920.66 1511.93 1923.85 1514.62 Q1927.05 1517.31 1927.05 1521.8 Q1927.05 1523.93 1926.24 1525.85 Q1925.45 1527.74 1923.35 1530.34 Q1922.77 1531.01 1919.66 1534.23 Q1916.56 1537.42 1910.91 1543.18 Z" fill="#000000" fill-rule="evenodd" fill-opacity="1" /><path clip-path="url(#clip310)" d="M1937.1 1512.56 L1955.45 1512.56 L1955.45 1516.5 L1941.38 1516.5 L1941.38 1524.97 Q1942.4 1524.62 1943.41 1524.46 Q1944.43 1524.27 1945.45 1524.27 Q1951.24 1524.27 1954.62 1527.44 Q1958 1530.62 1958 1536.03 Q1958 1541.61 1954.53 1544.71 Q1951.05 1547.79 1944.73 1547.79 Q1942.56 1547.79 1940.29 1547.42 Q1938.04 1547.05 1935.64 1546.31 L1935.64 1541.61 Q1937.72 1542.74 1939.94 1543.3 Q1942.16 1543.86 1944.64 1543.86 Q1948.65 1543.86 1950.98 1541.75 Q1953.32 1539.64 1953.32 1536.03 Q1953.32 1532.42 1950.98 1530.31 Q1948.65 1528.21 1944.64 1528.21 Q1942.77 1528.21 1940.89 1528.62 Q1939.04 1529.04 1937.1 1529.92 L1937.1 1512.56 Z" fill="#000000" fill-rule="evenodd" fill-opacity="1" /><path clip-path="url(#clip310)" d="M2279.19 1528.49 Q2282.54 1529.2 2284.42 1531.47 Q2286.31 1533.74 2286.31 1537.07 Q2286.31 1542.19 2282.8 1544.99 Q2279.28 1547.79 2272.8 1547.79 Q2270.62 1547.79 2268.31 1547.35 Q2266.01 1546.93 2263.56 1546.08 L2263.56 1541.56 Q2265.5 1542.7 2267.82 1543.28 Q2270.13 1543.86 2272.66 1543.86 Q2277.06 1543.86 2279.35 1542.12 Q2281.66 1540.38 2281.66 1537.07 Q2281.66 1534.02 2279.51 1532.31 Q2277.38 1530.57 2273.56 1530.57 L2269.53 1530.57 L2269.53 1526.73 L2273.75 1526.73 Q2277.19 1526.73 2279.02 1525.36 Q2280.85 1523.97 2280.85 1521.38 Q2280.85 1518.72 2278.95 1517.31 Q2277.08 1515.87 2273.56 1515.87 Q2271.64 1515.87 2269.44 1516.29 Q2267.24 1516.7 2264.6 1517.58 L2264.6 1513.42 Q2267.26 1512.68 2269.58 1512.31 Q2271.92 1511.93 2273.98 1511.93 Q2279.3 1511.93 2282.4 1514.37 Q2285.5 1516.77 2285.5 1520.89 Q2285.5 1523.76 2283.86 1525.75 Q2282.22 1527.72 2279.19 1528.49 Z" fill="#000000" fill-rule="evenodd" fill-opacity="1" /><path clip-path="url(#clip310)" d="M2305.18 1515.64 Q2301.57 1515.64 2299.74 1519.2 Q2297.93 1522.75 2297.93 1529.87 Q2297.93 1536.98 2299.74 1540.55 Q2301.57 1544.09 2305.18 1544.09 Q2308.81 1544.09 2310.62 1540.55 Q2312.45 1536.98 2312.45 1529.87 Q2312.45 1522.75 2310.62 1519.2 Q2308.81 1515.64 2305.18 1515.64 M2305.18 1511.93 Q2310.99 1511.93 2314.05 1516.54 Q2317.12 1521.12 2317.12 1529.87 Q2317.12 1538.6 2314.05 1543.21 Q2310.99 1547.79 2305.18 1547.79 Q2299.37 1547.79 2296.29 1543.21 Q2293.24 1538.6 2293.24 1529.87 Q2293.24 1521.12 2296.29 1516.54 Q2299.37 1511.93 2305.18 1511.93 Z" fill="#000000" fill-rule="evenodd" fill-opacity="1" /><polyline clip-path="url(#clip312)" style="stroke:#000000; stroke-linecap:butt; stroke-linejoin:round; stroke-width:2; stroke-opacity:0.1; fill:none" points="
  147.478,1185.84 2352.76,1185.84 
  "/>
<polyline clip-path="url(#clip312)" style="stroke:#000000; stroke-linecap:butt; stroke-linejoin:round; stroke-width:2; stroke-opacity:0.1; fill:none" points="
  147.478,819.885 2352.76,819.885 
  "/>
<polyline clip-path="url(#clip312)" style="stroke:#000000; stroke-linecap:butt; stroke-linejoin:round; stroke-width:2; stroke-opacity:0.1; fill:none" points="
  147.478,453.931 2352.76,453.931 
  "/>
<polyline clip-path="url(#clip312)" style="stroke:#000000; stroke-linecap:butt; stroke-linejoin:round; stroke-width:2; stroke-opacity:0.1; fill:none" points="
  147.478,87.9763 2352.76,87.9763 
  "/>
<polyline clip-path="url(#clip310)" style="stroke:#000000; stroke-linecap:butt; stroke-linejoin:round; stroke-width:4; stroke-opacity:1; fill:none" points="
  147.478,1486.45 147.478,47.2441 
  "/>
<polyline clip-path="url(#clip310)" style="stroke:#000000; stroke-linecap:butt; stroke-linejoin:round; stroke-width:4; stroke-opacity:1; fill:none" points="
  147.478,1185.84 166.376,1185.84 
  "/>
<polyline clip-path="url(#clip310)" style="stroke:#000000; stroke-linecap:butt; stroke-linejoin:round; stroke-width:4; stroke-opacity:1; fill:none" points="
  147.478,819.885 166.376,819.885 
  "/>
<polyline clip-path="url(#clip310)" style="stroke:#000000; stroke-linecap:butt; stroke-linejoin:round; stroke-width:4; stroke-opacity:1; fill:none" points="
  147.478,453.931 166.376,453.931 
  "/>
<polyline clip-path="url(#clip310)" style="stroke:#000000; stroke-linecap:butt; stroke-linejoin:round; stroke-width:4; stroke-opacity:1; fill:none" points="
  147.478,87.9763 166.376,87.9763 
  "/>
<path clip-path="url(#clip310)" d="M50.9921 1186.29 L80.6679 1186.29 L80.6679 1190.23 L50.9921 1190.23 L50.9921 1186.29 Z" fill="#000000" fill-rule="evenodd" fill-opacity="1" /><path clip-path="url(#clip310)" d="M91.5706 1199.18 L99.2095 1199.18 L99.2095 1172.82 L90.8993 1174.49 L90.8993 1170.23 L99.1632 1168.56 L103.839 1168.56 L103.839 1199.18 L111.478 1199.18 L111.478 1203.12 L91.5706 1203.12 L91.5706 1199.18 Z" fill="#000000" fill-rule="evenodd" fill-opacity="1" /><path clip-path="url(#clip310)" d="M99.5335 805.684 Q95.9224 805.684 94.0937 809.248 Q92.2882 812.79 92.2882 819.92 Q92.2882 827.026 94.0937 830.591 Q95.9224 834.133 99.5335 834.133 Q103.168 834.133 104.973 830.591 Q106.802 827.026 106.802 819.92 Q106.802 812.79 104.973 809.248 Q103.168 805.684 99.5335 805.684 M99.5335 801.98 Q105.344 801.98 108.399 806.586 Q111.478 811.17 111.478 819.92 Q111.478 828.647 108.399 833.253 Q105.344 837.836 99.5335 837.836 Q93.7234 837.836 90.6447 833.253 Q87.5892 828.647 87.5892 819.92 Q87.5892 811.17 90.6447 806.586 Q93.7234 801.98 99.5335 801.98 Z" fill="#000000" fill-rule="evenodd" fill-opacity="1" /><path clip-path="url(#clip310)" d="M91.5706 467.275 L99.2095 467.275 L99.2095 440.91 L90.8993 442.577 L90.8993 438.317 L99.1632 436.651 L103.839 436.651 L103.839 467.275 L111.478 467.275 L111.478 471.211 L91.5706 471.211 L91.5706 467.275 Z" fill="#000000" fill-rule="evenodd" fill-opacity="1" /><path clip-path="url(#clip310)" d="M95.1586 101.321 L111.478 101.321 L111.478 105.256 L89.5336 105.256 L89.5336 101.321 Q92.1956 98.5665 96.7789 93.9369 Q101.385 89.2841 102.566 87.9416 Q104.811 85.4184 105.691 83.6823 Q106.594 81.9231 106.594 80.2333 Q106.594 77.4786 104.649 75.7425 Q102.728 74.0064 99.6261 74.0064 Q97.4271 74.0064 94.9734 74.7703 Q92.5428 75.5342 89.7651 77.0851 L89.7651 72.3629 Q92.5891 71.2287 95.0428 70.65 Q97.4965 70.0713 99.5335 70.0713 Q104.904 70.0713 108.098 72.7565 Q111.293 75.4416 111.293 79.9323 Q111.293 82.062 110.483 83.9832 Q109.696 85.8814 107.589 88.474 Q107.01 89.1453 103.909 92.3628 Q100.807 95.5573 95.1586 101.321 Z" fill="#000000" fill-rule="evenodd" fill-opacity="1" /><polyline clip-path="url(#clip312)" style="stroke:#009af9; stroke-linecap:butt; stroke-linejoin:round; stroke-width:4; stroke-opacity:1; fill:none" points="
  209.891,87.9763 281.631,107.554 353.371,182.473 425.111,366.698 496.85,608.684 568.59,849.126 640.33,1076.46 712.069,1274.71 783.809,1402.14 855.549,1445.72 
  927.288,1445.21 999.028,1436.17 1070.77,1423.54 1142.51,1388.1 1214.25,1305.9 1285.99,1178.84 1357.73,1031.28 1429.47,883.342 1501.21,740.538 1572.95,603.759 
  1644.69,478.86 1716.42,379.414 1788.16,317.748 1859.9,292.031 1931.64,288.372 2003.38,292.792 2075.12,298.341 2146.86,305.031 2218.6,318.443 2290.34,347.018 
  
  "/>
<polyline clip-path="url(#clip312)" style="stroke:#e26f46; stroke-linecap:butt; stroke-linejoin:round; stroke-width:4; stroke-opacity:1; fill:none" points="
  209.891,819.885 281.631,527.549 353.371,283.86 425.111,157.957 496.85,137.507 568.59,147.957 640.33,163.084 712.069,211.672 783.809,332.426 855.549,510.356 
  927.288,701.529 999.028,886.387 1070.77,1062.23 1142.51,1218.8 1214.25,1331.67 1285.99,1386.13 1357.73,1397.97 1429.47,1393.15 1501.21,1385.99 1572.95,1376.07 
  1644.69,1352.09 1716.42,1299.17 1788.16,1212.94 1859.9,1104.54 1931.64,988.421 2003.38,873.611 2075.12,762.292 2146.86,654.705 2218.6,553.217 2290.34,464.143 
  
  "/>
<path clip-path="url(#clip310)" d="
M1981.79 250.738 L2279.25 250.738 L2279.25 95.2176 L1981.79 95.2176  Z
  " fill="#ffffff" fill-rule="evenodd" fill-opacity="1"/>
<polyline clip-path="url(#clip310)" style="stroke:#000000; stroke-linecap:butt; stroke-linejoin:round; stroke-width:4; stroke-opacity:1; fill:none" points="
  1981.79,250.738 2279.25,250.738 2279.25,95.2176 1981.79,95.2176 1981.79,250.738 
  "/>
<polyline clip-path="url(#clip310)" style="stroke:#009af9; stroke-linecap:butt; stroke-linejoin:round; stroke-width:4; stroke-opacity:1; fill:none" points="
  2006.29,147.058 2153.31,147.058 
  "/>
<path clip-path="url(#clip310)" d="M2191.65 166.745 Q2189.85 171.375 2188.13 172.787 Q2186.42 174.199 2183.55 174.199 L2180.15 174.199 L2180.15 170.634 L2182.65 170.634 Q2184.41 170.634 2185.38 169.8 Q2186.35 168.967 2187.53 165.865 L2188.3 163.921 L2177.81 138.412 L2182.32 138.412 L2190.43 158.689 L2198.53 138.412 L2203.04 138.412 L2191.65 166.745 Z" fill="#000000" fill-rule="evenodd" fill-opacity="1" /><path clip-path="url(#clip310)" d="M2210.33 160.402 L2217.97 160.402 L2217.97 134.037 L2209.66 135.703 L2209.66 131.444 L2217.93 129.778 L2222.6 129.778 L2222.6 160.402 L2230.24 160.402 L2230.24 164.338 L2210.33 164.338 L2210.33 160.402 Z" fill="#000000" fill-rule="evenodd" fill-opacity="1" /><polyline clip-path="url(#clip310)" style="stroke:#e26f46; stroke-linecap:butt; stroke-linejoin:round; stroke-width:4; stroke-opacity:1; fill:none" points="
  2006.29,198.898 2153.31,198.898 
  "/>
<path clip-path="url(#clip310)" d="M2191.65 218.585 Q2189.85 223.215 2188.13 224.627 Q2186.42 226.039 2183.55 226.039 L2180.15 226.039 L2180.15 222.474 L2182.65 222.474 Q2184.41 222.474 2185.38 221.64 Q2186.35 220.807 2187.53 217.705 L2188.3 215.761 L2177.81 190.252 L2182.32 190.252 L2190.43 210.529 L2198.53 190.252 L2203.04 190.252 L2191.65 218.585 Z" fill="#000000" fill-rule="evenodd" fill-opacity="1" /><path clip-path="url(#clip310)" d="M2213.55 212.242 L2229.87 212.242 L2229.87 216.178 L2207.93 216.178 L2207.93 212.242 Q2210.59 209.488 2215.17 204.858 Q2219.78 200.205 2220.96 198.863 Q2223.2 196.34 2224.08 194.604 Q2224.99 192.844 2224.99 191.155 Q2224.99 188.4 2223.04 186.664 Q2221.12 184.928 2218.02 184.928 Q2215.82 184.928 2213.37 185.692 Q2210.94 186.455 2208.16 188.006 L2208.16 183.284 Q2210.98 182.15 2213.43 181.571 Q2215.89 180.993 2217.93 180.993 Q2223.3 180.993 2226.49 183.678 Q2229.68 186.363 2229.68 190.854 Q2229.68 192.983 2228.87 194.905 Q2228.09 196.803 2225.98 199.395 Q2225.4 200.067 2222.3 203.284 Q2219.2 206.479 2213.55 212.242 Z" fill="#000000" fill-rule="evenodd" fill-opacity="1" /></svg>
