<?xml version="1.0" encoding="utf-8"?>
<svg xmlns="http://www.w3.org/2000/svg" xmlns:xlink="http://www.w3.org/1999/xlink" width="600" height="400" viewBox="0 0 2400 1600">
<defs>
  <clipPath id="clip640">
    <rect x="0" y="0" width="2400" height="1600"/>
  </clipPath>
</defs>
<path clip-path="url(#clip640)" d="
M0 1600 L2400 1600 L2400 0 L0 0  Z
  " fill="#ffffff" fill-rule="evenodd" fill-opacity="1"/>
<defs>
  <clipPath id="clip641">
    <rect x="480" y="0" width="1681" height="1600"/>
  </clipPath>
</defs>
<path clip-path="url(#clip640)" d="
M112.177 1423.18 L2352.76 1423.18 L2352.76 47.2441 L112.177 47.2441  Z
  " fill="#ffffff" fill-rule="evenodd" fill-opacity="1"/>
<defs>
  <clipPath id="clip642">
    <rect x="112" y="47" width="2242" height="1377"/>
  </clipPath>
</defs>
<polyline clip-path="url(#clip642)" style="stroke:#000000; stroke-linecap:butt; stroke-linejoin:round; stroke-width:2; stroke-opacity:0.1; fill:none" points="
  112.177,1423.18 112.177,47.2441 
  "/>
<polyline clip-path="url(#clip642)" style="stroke:#000000; stroke-linecap:butt; stroke-linejoin:round; stroke-width:2; stroke-opacity:0.1; fill:none" points="
  560.293,1423.18 560.293,47.2441 
  "/>
<polyline clip-path="url(#clip642)" style="stroke:#000000; stroke-linecap:butt; stroke-linejoin:round; stroke-width:2; stroke-opacity:0.1; fill:none" points="
  1008.41,1423.18 1008.41,47.2441 
  "/>
<polyline clip-path="url(#clip642)" style="stroke:#000000; stroke-linecap:butt; stroke-linejoin:round; stroke-width:2; stroke-opacity:0.1; fill:none" points="
  1456.52,1423.18 1456.52,47.2441 
  "/>
<polyline clip-path="url(#clip642)" style="stroke:#000000; stroke-linecap:butt; stroke-linejoin:round; stroke-width:2; stroke-opacity:0.1; fill:none" points="
  1904.64,1423.18 1904.64,47.2441 
  "/>
<polyline clip-path="url(#clip642)" style="stroke:#000000; stroke-linecap:butt; stroke-linejoin:round; stroke-width:2; stroke-opacity:0.1; fill:none" points="
  2352.76,1423.18 2352.76,47.2441 
  "/>
<polyline clip-path="url(#clip640)" style="stroke:#000000; stroke-linecap:butt; stroke-linejoin:round; stroke-width:4; stroke-opacity:1; fill:none" points="
  112.177,1423.18 2352.76,1423.18 
  "/>
<polyline clip-path="url(#clip640)" style="stroke:#000000; stroke-linecap:butt; stroke-linejoin:round; stroke-width:4; stroke-opacity:1; fill:none" points="
  112.177,1423.18 112.177,1404.28 
  "/>
<polyline clip-path="url(#clip640)" style="stroke:#000000; stroke-linecap:butt; stroke-linejoin:round; stroke-width:4; stroke-opacity:1; fill:none" points="
  560.293,1423.18 560.293,1404.28 
  "/>
<polyline clip-path="url(#clip640)" style="stroke:#000000; stroke-linecap:butt; stroke-linejoin:round; stroke-width:4; stroke-opacity:1; fill:none" points="
  1008.41,1423.18 1008.41,1404.28 
  "/>
<polyline clip-path="url(#clip640)" style="stroke:#000000; stroke-linecap:butt; stroke-linejoin:round; stroke-width:4; stroke-opacity:1; fill:none" points="
  1456.52,1423.18 1456.52,1404.28 
  "/>
<polyline clip-path="url(#clip640)" style="stroke:#000000; stroke-linecap:butt; stroke-linejoin:round; stroke-width:4; stroke-opacity:1; fill:none" points="
  1904.64,1423.18 1904.64,1404.28 
  "/>
<polyline clip-path="url(#clip640)" style="stroke:#000000; stroke-linecap:butt; stroke-linejoin:round; stroke-width:4; stroke-opacity:1; fill:none" points="
  2352.76,1423.18 2352.76,1404.28 
  "/>
<path clip-path="url(#clip640)" d="M112.177 1452.37 Q108.566 1452.37 106.737 1455.94 Q104.932 1459.48 104.932 1466.61 Q104.932 1473.71 106.737 1477.28 Q108.566 1480.82 112.177 1480.82 Q115.811 1480.82 117.617 1477.28 Q119.446 1473.71 119.446 1466.61 Q119.446 1459.48 117.617 1455.94 Q115.811 1452.37 112.177 1452.37 M112.177 1448.67 Q117.987 1448.67 121.043 1453.27 Q124.122 1457.86 124.122 1466.61 Q124.122 1475.33 121.043 1479.94 Q117.987 1484.52 112.177 1484.52 Q106.367 1484.52 103.288 1479.94 Q100.233 1475.33 100.233 1466.61 Q100.233 1457.86 103.288 1453.27 Q106.367 1448.67 112.177 1448.67 Z" fill="#000000" fill-rule="evenodd" fill-opacity="1" /><path clip-path="url(#clip640)" d="M554.946 1479.92 L571.265 1479.92 L571.265 1483.85 L549.321 1483.85 L549.321 1479.92 Q551.983 1477.16 556.566 1472.53 Q561.173 1467.88 562.353 1466.54 Q564.598 1464.01 565.478 1462.28 Q566.381 1460.52 566.381 1458.83 Q566.381 1456.07 564.436 1454.34 Q562.515 1452.6 559.413 1452.6 Q557.214 1452.6 554.761 1453.37 Q552.33 1454.13 549.552 1455.68 L549.552 1450.96 Q552.376 1449.82 554.83 1449.25 Q557.284 1448.67 559.321 1448.67 Q564.691 1448.67 567.885 1451.35 Q571.08 1454.04 571.08 1458.53 Q571.08 1460.66 570.27 1462.58 Q569.483 1464.48 567.376 1467.07 Q566.798 1467.74 563.696 1470.96 Q560.594 1474.15 554.946 1479.92 Z" fill="#000000" fill-rule="evenodd" fill-opacity="1" /><path clip-path="url(#clip640)" d="M1011.42 1453.37 L999.612 1471.81 L1011.42 1471.81 L1011.42 1453.37 M1010.19 1449.29 L1016.07 1449.29 L1016.07 1471.81 L1021 1471.81 L1021 1475.7 L1016.07 1475.7 L1016.07 1483.85 L1011.42 1483.85 L1011.42 1475.7 L995.816 1475.7 L995.816 1471.19 L1010.19 1449.29 Z" fill="#000000" fill-rule="evenodd" fill-opacity="1" /><path clip-path="url(#clip640)" d="M1456.93 1464.71 Q1453.78 1464.71 1451.93 1466.86 Q1450.1 1469.01 1450.1 1472.76 Q1450.1 1476.49 1451.93 1478.67 Q1453.78 1480.82 1456.93 1480.82 Q1460.08 1480.82 1461.91 1478.67 Q1463.76 1476.49 1463.76 1472.76 Q1463.76 1469.01 1461.91 1466.86 Q1460.08 1464.71 1456.93 1464.71 M1466.21 1450.06 L1466.21 1454.31 Q1464.45 1453.48 1462.65 1453.04 Q1460.86 1452.6 1459.11 1452.6 Q1454.48 1452.6 1452.02 1455.73 Q1449.59 1458.85 1449.24 1465.17 Q1450.61 1463.16 1452.67 1462.09 Q1454.73 1461 1457.21 1461 Q1462.42 1461 1465.42 1464.18 Q1468.46 1467.32 1468.46 1472.76 Q1468.46 1478.09 1465.31 1481.31 Q1462.16 1484.52 1456.93 1484.52 Q1450.93 1484.52 1447.76 1479.94 Q1444.59 1475.33 1444.59 1466.61 Q1444.59 1458.41 1448.48 1453.55 Q1452.37 1448.67 1458.92 1448.67 Q1460.68 1448.67 1462.46 1449.01 Q1464.27 1449.36 1466.21 1450.06 Z" fill="#000000" fill-rule="evenodd" fill-opacity="1" /><path clip-path="url(#clip640)" d="M1904.64 1467.44 Q1901.31 1467.44 1899.39 1469.22 Q1897.49 1471 1897.49 1474.13 Q1897.49 1477.25 1899.39 1479.04 Q1901.31 1480.82 1904.64 1480.82 Q1907.97 1480.82 1909.89 1479.04 Q1911.82 1477.23 1911.82 1474.13 Q1911.82 1471 1909.89 1469.22 Q1908 1467.44 1904.64 1467.44 M1899.96 1465.45 Q1896.96 1464.71 1895.27 1462.65 Q1893.6 1460.59 1893.6 1457.63 Q1893.6 1453.48 1896.54 1451.07 Q1899.5 1448.67 1904.64 1448.67 Q1909.8 1448.67 1912.74 1451.07 Q1915.68 1453.48 1915.68 1457.63 Q1915.68 1460.59 1913.99 1462.65 Q1912.33 1464.71 1909.34 1465.45 Q1912.72 1466.24 1914.59 1468.53 Q1916.49 1470.82 1916.49 1474.13 Q1916.49 1479.15 1913.41 1481.84 Q1910.36 1484.52 1904.64 1484.52 Q1898.92 1484.52 1895.84 1481.84 Q1892.79 1479.15 1892.79 1474.13 Q1892.79 1470.82 1894.69 1468.53 Q1896.58 1466.24 1899.96 1465.45 M1898.25 1458.06 Q1898.25 1460.75 1899.92 1462.25 Q1901.61 1463.76 1904.64 1463.76 Q1907.65 1463.76 1909.34 1462.25 Q1911.05 1460.75 1911.05 1458.06 Q1911.05 1455.38 1909.34 1453.88 Q1907.65 1452.37 1904.64 1452.37 Q1901.61 1452.37 1899.92 1453.88 Q1898.25 1455.38 1898.25 1458.06 Z" fill="#000000" fill-rule="evenodd" fill-opacity="1" /><path clip-path="url(#clip640)" d="M2327.44 1479.92 L2335.08 1479.92 L2335.08 1453.55 L2326.77 1455.22 L2326.77 1450.96 L2335.04 1449.29 L2339.71 1449.29 L2339.71 1479.92 L2347.35 1479.92 L2347.35 1483.85 L2327.44 1483.85 L2327.44 1479.92 Z" fill="#000000" fill-rule="evenodd" fill-opacity="1" /><path clip-path="url(#clip640)" d="M2366.8 1452.37 Q2363.18 1452.37 2361.36 1455.94 Q2359.55 1459.48 2359.55 1466.61 Q2359.55 1473.71 2361.36 1477.28 Q2363.18 1480.82 2366.8 1480.82 Q2370.43 1480.82 2372.23 1477.28 Q2374.06 1473.71 2374.06 1466.61 Q2374.06 1459.48 2372.23 1455.94 Q2370.43 1452.37 2366.8 1452.37 M2366.8 1448.67 Q2372.61 1448.67 2375.66 1453.27 Q2378.74 1457.86 2378.74 1466.61 Q2378.74 1475.33 2375.66 1479.94 Q2372.61 1484.52 2366.8 1484.52 Q2360.99 1484.52 2357.91 1479.94 Q2354.85 1475.33 2354.85 1466.61 Q2354.85 1457.86 2357.91 1453.27 Q2360.99 1448.67 2366.8 1448.67 Z" fill="#000000" fill-rule="evenodd" fill-opacity="1" /><path clip-path="url(#clip640)" d="M1231.53 1522.27 L1231.53 1532.4 L1243.59 1532.4 L1243.59 1536.95 L1231.53 1536.95 L1231.53 1556.3 Q1231.53 1560.66 1232.71 1561.9 Q1233.91 1563.14 1237.58 1563.14 L1243.59 1563.14 L1243.59 1568.04 L1237.58 1568.04 Q1230.8 1568.04 1228.22 1565.53 Q1225.64 1562.98 1225.64 1556.3 L1225.64 1536.95 L1221.34 1536.95 L1221.34 1532.4 L1225.64 1532.4 L1225.64 1522.27 L1231.53 1522.27 Z" fill="#000000" fill-rule="evenodd" fill-opacity="1" /><polyline clip-path="url(#clip642)" style="stroke:#000000; stroke-linecap:butt; stroke-linejoin:round; stroke-width:2; stroke-opacity:0.1; fill:none" points="
  112.177,1238.89 2352.76,1238.89 
  "/>
<polyline clip-path="url(#clip642)" style="stroke:#000000; stroke-linecap:butt; stroke-linejoin:round; stroke-width:2; stroke-opacity:0.1; fill:none" points="
  112.177,1043.22 2352.76,1043.22 
  "/>
<polyline clip-path="url(#clip642)" style="stroke:#000000; stroke-linecap:butt; stroke-linejoin:round; stroke-width:2; stroke-opacity:0.1; fill:none" points="
  112.177,847.551 2352.76,847.551 
  "/>
<polyline clip-path="url(#clip642)" style="stroke:#000000; stroke-linecap:butt; stroke-linejoin:round; stroke-width:2; stroke-opacity:0.1; fill:none" points="
  112.177,651.879 2352.76,651.879 
  "/>
<polyline clip-path="url(#clip642)" style="stroke:#000000; stroke-linecap:butt; stroke-linejoin:round; stroke-width:2; stroke-opacity:0.1; fill:none" points="
  112.177,456.207 2352.76,456.207 
  "/>
<polyline clip-path="url(#clip642)" style="stroke:#000000; stroke-linecap:butt; stroke-linejoin:round; stroke-width:2; stroke-opacity:0.1; fill:none" points="
  112.177,260.535 2352.76,260.535 
  "/>
<polyline clip-path="url(#clip642)" style="stroke:#000000; stroke-linecap:butt; stroke-linejoin:round; stroke-width:2; stroke-opacity:0.1; fill:none" points="
  112.177,64.8637 2352.76,64.8637 
  "/>
<polyline clip-path="url(#clip640)" style="stroke:#000000; stroke-linecap:butt; stroke-linejoin:round; stroke-width:4; stroke-opacity:1; fill:none" points="
  112.177,1423.18 112.177,47.2441 
  "/>
<polyline clip-path="url(#clip640)" style="stroke:#000000; stroke-linecap:butt; stroke-linejoin:round; stroke-width:4; stroke-opacity:1; fill:none" points="
  112.177,1238.89 131.075,1238.89 
  "/>
<polyline clip-path="url(#clip640)" style="stroke:#000000; stroke-linecap:butt; stroke-linejoin:round; stroke-width:4; stroke-opacity:1; fill:none" points="
  112.177,1043.22 131.075,1043.22 
  "/>
<polyline clip-path="url(#clip640)" style="stroke:#000000; stroke-linecap:butt; stroke-linejoin:round; stroke-width:4; stroke-opacity:1; fill:none" points="
  112.177,847.551 131.075,847.551 
  "/>
<polyline clip-path="url(#clip640)" style="stroke:#000000; stroke-linecap:butt; stroke-linejoin:round; stroke-width:4; stroke-opacity:1; fill:none" points="
  112.177,651.879 131.075,651.879 
  "/>
<polyline clip-path="url(#clip640)" style="stroke:#000000; stroke-linecap:butt; stroke-linejoin:round; stroke-width:4; stroke-opacity:1; fill:none" points="
  112.177,456.207 131.075,456.207 
  "/>
<polyline clip-path="url(#clip640)" style="stroke:#000000; stroke-linecap:butt; stroke-linejoin:round; stroke-width:4; stroke-opacity:1; fill:none" points="
  112.177,260.535 131.075,260.535 
  "/>
<polyline clip-path="url(#clip640)" style="stroke:#000000; stroke-linecap:butt; stroke-linejoin:round; stroke-width:4; stroke-opacity:1; fill:none" points="
  112.177,64.8637 131.075,64.8637 
  "/>
<path clip-path="url(#clip640)" d="M56.2699 1252.24 L63.9087 1252.24 L63.9087 1225.87 L55.5986 1227.54 L55.5986 1223.28 L63.8624 1221.61 L68.5383 1221.61 L68.5383 1252.24 L76.1772 1252.24 L76.1772 1256.17 L56.2699 1256.17 L56.2699 1252.24 Z" fill="#000000" fill-rule="evenodd" fill-opacity="1" /><path clip-path="url(#clip640)" d="M59.8578 1056.57 L76.1772 1056.57 L76.1772 1060.5 L54.2328 1060.5 L54.2328 1056.57 Q56.8949 1053.81 61.4782 1049.18 Q66.0846 1044.53 67.2652 1043.19 Q69.5105 1040.66 70.3902 1038.93 Q71.2929 1037.17 71.2929 1035.48 Q71.2929 1032.72 69.3485 1030.99 Q67.4272 1029.25 64.3254 1029.25 Q62.1263 1029.25 59.6726 1030.02 Q57.2421 1030.78 54.4643 1032.33 L54.4643 1027.61 Q57.2884 1026.47 59.7421 1025.9 Q62.1958 1025.32 64.2328 1025.32 Q69.6031 1025.32 72.7976 1028 Q75.992 1030.69 75.992 1035.18 Q75.992 1037.31 75.1818 1039.23 Q74.3948 1041.13 72.2883 1043.72 Q71.7096 1044.39 68.6078 1047.61 Q65.5059 1050.8 59.8578 1056.57 Z" fill="#000000" fill-rule="evenodd" fill-opacity="1" /><path clip-path="url(#clip640)" d="M69.0476 846.196 Q72.404 846.914 74.279 849.183 Q76.1772 851.451 76.1772 854.784 Q76.1772 859.9 72.6587 862.701 Q69.1402 865.502 62.6587 865.502 Q60.4828 865.502 58.168 865.062 Q55.8764 864.645 53.4227 863.789 L53.4227 859.275 Q55.3671 860.409 57.6819 860.988 Q59.9967 861.567 62.5198 861.567 Q66.918 861.567 69.2096 859.831 Q71.5244 858.095 71.5244 854.784 Q71.5244 851.729 69.3717 850.016 Q67.242 848.28 63.4226 848.28 L59.3949 848.28 L59.3949 844.437 L63.6078 844.437 Q67.0569 844.437 68.8855 843.071 Q70.7142 841.683 70.7142 839.09 Q70.7142 836.428 68.8161 835.016 Q66.9411 833.581 63.4226 833.581 Q61.5013 833.581 59.3023 833.997 Q57.1032 834.414 54.4643 835.294 L54.4643 831.127 Q57.1264 830.386 59.4412 830.016 Q61.7791 829.646 63.8393 829.646 Q69.1633 829.646 72.2652 832.076 Q75.367 834.484 75.367 838.604 Q75.367 841.474 73.7235 843.465 Q72.08 845.433 69.0476 846.196 Z" fill="#000000" fill-rule="evenodd" fill-opacity="1" /><path clip-path="url(#clip640)" d="M66.5939 638.673 L54.7884 657.122 L66.5939 657.122 L66.5939 638.673 M65.367 634.599 L71.2466 634.599 L71.2466 657.122 L76.1772 657.122 L76.1772 661.011 L71.2466 661.011 L71.2466 669.159 L66.5939 669.159 L66.5939 661.011 L50.9921 661.011 L50.9921 656.497 L65.367 634.599 Z" fill="#000000" fill-rule="evenodd" fill-opacity="1" /><path clip-path="url(#clip640)" d="M55.2745 438.927 L73.6309 438.927 L73.6309 442.862 L59.5569 442.862 L59.5569 451.334 Q60.5754 450.987 61.5939 450.825 Q62.6124 450.64 63.6309 450.64 Q69.418 450.64 72.7976 453.811 Q76.1772 456.983 76.1772 462.399 Q76.1772 467.978 72.705 471.08 Q69.2328 474.158 62.9134 474.158 Q60.7374 474.158 58.4689 473.788 Q56.2236 473.418 53.8162 472.677 L53.8162 467.978 Q55.8995 469.112 58.1217 469.668 Q60.3439 470.223 62.8208 470.223 Q66.8254 470.223 69.1633 468.117 Q71.5013 466.01 71.5013 462.399 Q71.5013 458.788 69.1633 456.682 Q66.8254 454.575 62.8208 454.575 Q60.9458 454.575 59.0708 454.992 Q57.2189 455.409 55.2745 456.288 L55.2745 438.927 Z" fill="#000000" fill-rule="evenodd" fill-opacity="1" /><path clip-path="url(#clip640)" d="M64.6495 258.672 Q61.5013 258.672 59.6495 260.825 Q57.8208 262.978 57.8208 266.728 Q57.8208 270.454 59.6495 272.63 Q61.5013 274.783 64.6495 274.783 Q67.7976 274.783 69.6263 272.63 Q71.4781 270.454 71.4781 266.728 Q71.4781 262.978 69.6263 260.825 Q67.7976 258.672 64.6495 258.672 M73.9318 244.019 L73.9318 248.279 Q72.1726 247.445 70.367 247.005 Q68.5846 246.566 66.8254 246.566 Q62.1958 246.566 59.7421 249.691 Q57.3115 252.816 56.9643 259.135 Q58.33 257.121 60.3902 256.056 Q62.4504 254.968 64.9272 254.968 Q70.1355 254.968 73.1448 258.14 Q76.1772 261.288 76.1772 266.728 Q76.1772 272.052 73.029 275.269 Q69.8809 278.487 64.6495 278.487 Q58.6541 278.487 55.4828 273.903 Q52.3116 269.297 52.3116 260.57 Q52.3116 252.376 56.2004 247.515 Q60.0893 242.63 66.6402 242.63 Q68.3994 242.63 70.1818 242.978 Q71.9874 243.325 73.9318 244.019 Z" fill="#000000" fill-rule="evenodd" fill-opacity="1" /><path clip-path="url(#clip640)" d="M53.9551 47.5837 L76.1772 47.5837 L76.1772 49.5744 L63.6309 82.1437 L58.7467 82.1437 L70.5522 51.5189 L53.9551 51.5189 L53.9551 47.5837 Z" fill="#000000" fill-rule="evenodd" fill-opacity="1" /><polyline clip-path="url(#clip642)" style="stroke:#009af9; stroke-linecap:butt; stroke-linejoin:round; stroke-width:4; stroke-opacity:1; fill:none" points="
  112.177,1238.89 134.583,1226.94 156.989,1210.71 179.395,1190.14 201.8,1165 224.206,1134.95 246.612,1099.52 269.018,1058.18 291.423,1010.27 313.829,955.121 
  336.235,892.003 358.641,820.209 381.047,739.168 403.452,648.656 425.858,549.021 448.264,441.65 470.67,330.602 493.076,222.874 515.481,133.561 537.887,86.1857 
  560.293,109.184 582.699,227.354 605.104,426.699 627.51,657.067 649.916,860.218 672.322,1008.61 694.728,1107.73 717.133,1170.86 739.539,1209.71 761.945,1232.57 
  784.351,1244.63 806.757,1248.9 829.162,1247.15 851.568,1240.4 873.974,1229.19 896.38,1213.69 918.786,1193.85 941.191,1169.49 963.597,1140.29 986.003,1105.81 
  1008.41,1065.5 1030.81,1018.75 1053.22,964.878 1075.63,903.14 1098.03,832.85 1120.44,753.441 1142.84,664.772 1165.25,566.47 1187.65,460.027 1210.06,349.337 
  1232.47,240.666 1254.87,146.598 1277.28,90.4419 1299.68,99.593 1322.09,202.089 1344.5,389.934 1366.9,618.478 1389.31,828.409 1411.71,986.932 1434.12,1092.67 
  1456.52,1161.02 1478.93,1203.55 1501.34,1228.86 1523.74,1242.54 1546.15,1247.99 1568.55,1247.22 1590.96,1241.3 1613.36,1230.81 1635.77,1216.02 1658.18,1196.92 
  1680.58,1173.34 1702.99,1144.96 1725.39,1111.37 1747.8,1072.05 1770.21,1026.4 1792.61,973.743 1815.02,913.367 1837.42,844.577 1859.83,766.684 1882.23,679.36 
  1904.64,582.8 1927.05,478.413 1949.45,367.944 1971.86,258.125 1994.26,161.881 2016.67,98.3297 2039.07,95.2892 2061.48,181.058 2083.89,358.111 2106.29,584.143 
  2128.7,799.301 2151.1,965.802 2173.51,1078.97 2195.92,1152.26 2218.32,1198.02 2240.73,1225.47 2263.13,1240.65 2285.54,1247.23 2307.94,1247.31 2330.35,1242.11 
  2352.76,1232.29 
  "/>
<polyline clip-path="url(#clip642)" style="stroke:#e26f46; stroke-linecap:butt; stroke-linejoin:round; stroke-width:4; stroke-opacity:1; fill:none" points="
  112.177,1238.89 134.583,1273.9 156.989,1301.69 179.395,1323.64 201.8,1340.88 224.206,1354.31 246.612,1364.66 269.018,1372.47 291.423,1378.14 313.829,1381.92 
  336.235,1383.94 358.641,1384.18 381.047,1382.43 403.452,1378.18 425.858,1370.52 448.264,1357.97 470.67,1337.6 493.076,1305.01 515.481,1251.53 537.887,1166.42 
  560.293,1040.22 582.699,872.915 605.104,701.795 627.51,578.044 649.916,538.784 672.322,580.613 694.728,669.196 717.133,775.975 739.539,882.183 761.945,978.431 
  784.351,1061.2 806.757,1130.17 829.162,1186.58 851.568,1232.08 873.974,1268.46 896.38,1297.38 918.786,1320.24 941.191,1338.21 963.597,1352.23 986.003,1363.05 
  1008.41,1371.27 1030.81,1377.28 1053.22,1381.37 1075.63,1383.69 1098.03,1384.24 1120.44,1382.82 1142.84,1378.87 1165.25,1371.93 1187.65,1360.48 1210.06,1341.7 
  1232.47,1311.45 1254.87,1262.45 1277.28,1183.27 1299.68,1064.56 1322.09,902.039 1344.5,728.51 1366.9,594.584 1389.31,540.815 1411.71,569.372 1434.12,653.163 
  1456.52,757.883 1478.93,864.735 1501.34,962.81 1523.74,1047.85 1546.15,1119.09 1568.55,1177.47 1590.96,1224.7 1613.36,1262.53 1635.77,1292.62 1658.18,1316.43 
  1680.58,1335.16 1702.99,1349.83 1725.39,1361.17 1747.8,1369.79 1770.21,1376.15 1792.61,1380.55 1815.02,1383.16 1837.42,1383.98 1859.83,1382.91 1882.23,1379.56 
  1904.64,1373.12 1927.05,1362.05 1949.45,1344.54 1971.86,1316.46 1994.26,1270.85 2016.67,1197.88 2039.07,1085.83 2061.48,931.436 2083.89,756.044 2106.29,611.825 
  2128.7,544.86 2151.1,562.307 2173.51,639.171 2195.92,741.939 2218.32,849.223 2240.73,948.894 2263.13,1035.93 2285.54,1109.12 2307.94,1169.32 2330.35,1218.1 
  2352.76,1257.21 
  "/>
<path clip-path="url(#clip640)" d="
M1921.43 248.629 L2278.07 248.629 L2278.07 93.1086 L1921.43 93.1086  Z
  " fill="#ffffff" fill-rule="evenodd" fill-opacity="1"/>
<polyline clip-path="url(#clip640)" style="stroke:#000000; stroke-linecap:butt; stroke-linejoin:round; stroke-width:4; stroke-opacity:1; fill:none" points="
  1921.43,248.629 2278.07,248.629 2278.07,93.1086 1921.43,93.1086 1921.43,248.629 
  "/>
<polyline clip-path="url(#clip640)" style="stroke:#009af9; stroke-linecap:butt; stroke-linejoin:round; stroke-width:4; stroke-opacity:1; fill:none" points="
  1946.33,144.949 2095.7,144.949 
  "/>
<path clip-path="url(#clip640)" d="M2120.59 151.997 L2120.59 136.303 L2124.85 136.303 L2124.85 151.835 Q2124.85 155.516 2126.29 157.368 Q2127.72 159.196 2130.59 159.196 Q2134.04 159.196 2136.03 156.997 Q2138.05 154.798 2138.05 151.002 L2138.05 136.303 L2142.31 136.303 L2142.31 162.229 L2138.05 162.229 L2138.05 158.247 Q2136.5 160.608 2134.44 161.766 Q2132.4 162.9 2129.69 162.9 Q2125.22 162.9 2122.91 160.122 Q2120.59 157.344 2120.59 151.997 M2131.31 135.678 L2131.31 135.678 Z" fill="#000000" fill-rule="evenodd" fill-opacity="1" /><path clip-path="url(#clip640)" d="M2152.49 158.293 L2160.13 158.293 L2160.13 131.928 L2151.82 133.595 L2151.82 129.335 L2160.09 127.669 L2164.76 127.669 L2164.76 158.293 L2172.4 158.293 L2172.4 162.229 L2152.49 162.229 L2152.49 158.293 Z" fill="#000000" fill-rule="evenodd" fill-opacity="1" /><path clip-path="url(#clip640)" d="M2191.47 126.257 Q2188.37 131.581 2186.87 136.789 Q2185.36 141.997 2185.36 147.344 Q2185.36 152.692 2186.87 157.946 Q2188.4 163.178 2191.47 168.479 L2187.77 168.479 Q2184.3 163.039 2182.56 157.784 Q2180.85 152.53 2180.85 147.344 Q2180.85 142.182 2182.56 136.951 Q2184.27 131.72 2187.77 126.257 L2191.47 126.257 Z" fill="#000000" fill-rule="evenodd" fill-opacity="1" /><path clip-path="url(#clip640)" d="M2203.95 128.942 L2203.95 136.303 L2212.72 136.303 L2212.72 139.613 L2203.95 139.613 L2203.95 153.687 Q2203.95 156.858 2204.81 157.761 Q2205.69 158.664 2208.35 158.664 L2212.72 158.664 L2212.72 162.229 L2208.35 162.229 Q2203.42 162.229 2201.54 160.4 Q2199.67 158.548 2199.67 153.687 L2199.67 139.613 L2196.54 139.613 L2196.54 136.303 L2199.67 136.303 L2199.67 128.942 L2203.95 128.942 Z" fill="#000000" fill-rule="evenodd" fill-opacity="1" /><path clip-path="url(#clip640)" d="M2217.65 126.257 L2221.36 126.257 Q2224.83 131.72 2226.54 136.951 Q2228.28 142.182 2228.28 147.344 Q2228.28 152.53 2226.54 157.784 Q2224.83 163.039 2221.36 168.479 L2217.65 168.479 Q2220.73 163.178 2222.24 157.946 Q2223.77 152.692 2223.77 147.344 Q2223.77 141.997 2222.24 136.789 Q2220.73 131.581 2217.65 126.257 Z" fill="#000000" fill-rule="evenodd" fill-opacity="1" /><polyline clip-path="url(#clip640)" style="stroke:#e26f46; stroke-linecap:butt; stroke-linejoin:round; stroke-width:4; stroke-opacity:1; fill:none" points="
  1946.33,196.789 2095.7,196.789 
  "/>
<path clip-path="url(#clip640)" d="M2120.59 203.837 L2120.59 188.143 L2124.85 188.143 L2124.85 203.675 Q2124.85 207.356 2126.29 209.208 Q2127.72 211.036 2130.59 211.036 Q2134.04 211.036 2136.03 208.837 Q2138.05 206.638 2138.05 202.842 L2138.05 188.143 L2142.31 188.143 L2142.31 214.069 L2138.05 214.069 L2138.05 210.087 Q2136.5 212.448 2134.44 213.606 Q2132.4 214.74 2129.69 214.74 Q2125.22 214.74 2122.91 211.962 Q2120.59 209.184 2120.59 203.837 M2131.31 187.518 L2131.31 187.518 Z" fill="#000000" fill-rule="evenodd" fill-opacity="1" /><path clip-path="url(#clip640)" d="M2155.71 210.133 L2172.03 210.133 L2172.03 214.069 L2150.09 214.069 L2150.09 210.133 Q2152.75 207.379 2157.33 202.749 Q2161.94 198.096 2163.12 196.754 Q2165.36 194.231 2166.24 192.495 Q2167.15 190.735 2167.15 189.046 Q2167.15 186.291 2165.2 184.555 Q2163.28 182.819 2160.18 182.819 Q2157.98 182.819 2155.53 183.583 Q2153.09 184.347 2150.32 185.897 L2150.32 181.175 Q2153.14 180.041 2155.59 179.462 Q2158.05 178.884 2160.09 178.884 Q2165.46 178.884 2168.65 181.569 Q2171.84 184.254 2171.84 188.745 Q2171.84 190.874 2171.03 192.796 Q2170.25 194.694 2168.14 197.286 Q2167.56 197.958 2164.46 201.175 Q2161.36 204.37 2155.71 210.133 Z" fill="#000000" fill-rule="evenodd" fill-opacity="1" /><path clip-path="url(#clip640)" d="M2191.47 178.097 Q2188.37 183.421 2186.87 188.629 Q2185.36 193.837 2185.36 199.184 Q2185.36 204.532 2186.87 209.786 Q2188.4 215.018 2191.47 220.319 L2187.77 220.319 Q2184.3 214.879 2182.56 209.624 Q2180.85 204.37 2180.85 199.184 Q2180.85 194.022 2182.56 188.791 Q2184.27 183.56 2187.77 178.097 L2191.47 178.097 Z" fill="#000000" fill-rule="evenodd" fill-opacity="1" /><path clip-path="url(#clip640)" d="M2203.95 180.782 L2203.95 188.143 L2212.72 188.143 L2212.72 191.453 L2203.95 191.453 L2203.95 205.527 Q2203.95 208.698 2204.81 209.601 Q2205.69 210.504 2208.35 210.504 L2212.72 210.504 L2212.72 214.069 L2208.35 214.069 Q2203.42 214.069 2201.54 212.24 Q2199.67 210.388 2199.67 205.527 L2199.67 191.453 L2196.54 191.453 L2196.54 188.143 L2199.67 188.143 L2199.67 180.782 L2203.95 180.782 Z" fill="#000000" fill-rule="evenodd" fill-opacity="1" /><path clip-path="url(#clip640)" d="M2217.65 178.097 L2221.36 178.097 Q2224.83 183.56 2226.54 188.791 Q2228.28 194.022 2228.28 199.184 Q2228.28 204.37 2226.54 209.624 Q2224.83 214.879 2221.36 220.319 L2217.65 220.319 Q2220.73 215.018 2222.24 209.786 Q2223.77 204.532 2223.77 199.184 Q2223.77 193.837 2222.24 188.629 Q2220.73 183.421 2217.65 178.097 Z" fill="#000000" fill-rule="evenodd" fill-opacity="1" /></svg>
