<?xml version="1.0" encoding="utf-8"?>
<svg xmlns="http://www.w3.org/2000/svg" xmlns:xlink="http://www.w3.org/1999/xlink" width="600" height="400" viewBox="0 0 2400 1600">
<defs>
  <clipPath id="clip520">
    <rect x="0" y="0" width="2400" height="1600"/>
  </clipPath>
</defs>
<path clip-path="url(#clip520)" d="
M0 1600 L2400 1600 L2400 0 L0 0  Z
  " fill="#ffffff" fill-rule="evenodd" fill-opacity="1"/>
<defs>
  <clipPath id="clip521">
    <rect x="480" y="0" width="1681" height="1600"/>
  </clipPath>
</defs>
<defs>
  <clipPath id="clip522">
    <rect x="215" y="47" width="2138" height="1381"/>
  </clipPath>
</defs>
<path clip-path="url(#clip520)" d="
M215.898 1427.71 L2352.76 1427.71 L2352.76 47.2441 L215.898 47.2441  Z
  " fill="#ffffff" fill-rule="evenodd" fill-opacity="1"/>
<polyline clip-path="url(#clip522)" style="stroke:#000000; stroke-width:2; stroke-opacity:0.1; fill:none" points="
  276.375,1427.71 276.375,47.2441 
  "/>
<polyline clip-path="url(#clip522)" style="stroke:#000000; stroke-width:2; stroke-opacity:0.1; fill:none" points="
  780.351,1427.71 780.351,47.2441 
  "/>
<polyline clip-path="url(#clip522)" style="stroke:#000000; stroke-width:2; stroke-opacity:0.1; fill:none" points="
  1284.33,1427.71 1284.33,47.2441 
  "/>
<polyline clip-path="url(#clip522)" style="stroke:#000000; stroke-width:2; stroke-opacity:0.1; fill:none" points="
  1788.3,1427.71 1788.3,47.2441 
  "/>
<polyline clip-path="url(#clip522)" style="stroke:#000000; stroke-width:2; stroke-opacity:0.1; fill:none" points="
  2292.28,1427.71 2292.28,47.2441 
  "/>
<polyline clip-path="url(#clip520)" style="stroke:#000000; stroke-width:4; stroke-opacity:1; fill:none" points="
  215.898,1427.71 2352.76,1427.71 
  "/>
<polyline clip-path="url(#clip520)" style="stroke:#000000; stroke-width:4; stroke-opacity:1; fill:none" points="
  276.375,1427.71 276.375,1411.14 
  "/>
<polyline clip-path="url(#clip520)" style="stroke:#000000; stroke-width:4; stroke-opacity:1; fill:none" points="
  780.351,1427.71 780.351,1411.14 
  "/>
<polyline clip-path="url(#clip520)" style="stroke:#000000; stroke-width:4; stroke-opacity:1; fill:none" points="
  1284.33,1427.71 1284.33,1411.14 
  "/>
<polyline clip-path="url(#clip520)" style="stroke:#000000; stroke-width:4; stroke-opacity:1; fill:none" points="
  1788.3,1427.71 1788.3,1411.14 
  "/>
<polyline clip-path="url(#clip520)" style="stroke:#000000; stroke-width:4; stroke-opacity:1; fill:none" points="
  2292.28,1427.71 2292.28,1411.14 
  "/>
<path clip-path="url(#clip520)" d="M 0 0 M226.641 1505.98 L234.28 1505.98 L234.28 1479.61 L225.97 1481.28 L225.97 1477.02 L234.234 1475.36 L238.91 1475.36 L238.91 1505.98 L246.548 1505.98 L246.548 1509.92 L226.641 1509.92 L226.641 1505.98 Z" fill="#000000" fill-rule="evenodd" fill-opacity="1" /><path clip-path="url(#clip520)" d="M 0 0 M265.993 1478.43 Q262.382 1478.43 260.553 1482 Q258.748 1485.54 258.748 1492.67 Q258.748 1499.78 260.553 1503.34 Q262.382 1506.88 265.993 1506.88 Q269.627 1506.88 271.433 1503.34 Q273.261 1499.78 273.261 1492.67 Q273.261 1485.54 271.433 1482 Q269.627 1478.43 265.993 1478.43 M265.993 1474.73 Q271.803 1474.73 274.859 1479.34 Q277.937 1483.92 277.937 1492.67 Q277.937 1501.4 274.859 1506 Q271.803 1510.59 265.993 1510.59 Q260.183 1510.59 257.104 1506 Q254.048 1501.4 254.048 1492.67 Q254.048 1483.92 257.104 1479.34 Q260.183 1474.73 265.993 1474.73 Z" fill="#000000" fill-rule="evenodd" fill-opacity="1" /><path clip-path="url(#clip520)" d="M 0 0 M277.937 1468.83 L302.049 1468.83 L302.049 1472.03 L277.937 1472.03 L277.937 1468.83 Z" fill="#000000" fill-rule="evenodd" fill-opacity="1" /><path clip-path="url(#clip520)" d="M 0 0 M313.522 1479.31 L326.781 1479.31 L326.781 1482.51 L308.951 1482.51 L308.951 1479.31 Q311.114 1477.07 314.838 1473.31 Q318.581 1469.53 319.54 1468.44 Q321.364 1466.39 322.079 1464.98 Q322.813 1463.55 322.813 1462.17 Q322.813 1459.94 321.233 1458.53 Q319.672 1457.11 317.151 1457.11 Q315.365 1457.11 313.371 1457.74 Q311.396 1458.36 309.139 1459.62 L309.139 1455.78 Q311.434 1454.86 313.427 1454.39 Q315.421 1453.92 317.076 1453.92 Q321.44 1453.92 324.035 1456.1 Q326.631 1458.28 326.631 1461.93 Q326.631 1463.66 325.972 1465.22 Q325.333 1466.76 323.621 1468.87 Q323.151 1469.41 320.631 1472.03 Q318.111 1474.62 313.522 1479.31 Z" fill="#000000" fill-rule="evenodd" fill-opacity="1" /><path clip-path="url(#clip520)" d="M 0 0 M730.467 1505.98 L738.105 1505.98 L738.105 1479.61 L729.795 1481.28 L729.795 1477.02 L738.059 1475.36 L742.735 1475.36 L742.735 1505.98 L750.374 1505.98 L750.374 1509.92 L730.467 1509.92 L730.467 1505.98 Z" fill="#000000" fill-rule="evenodd" fill-opacity="1" /><path clip-path="url(#clip520)" d="M 0 0 M769.818 1478.43 Q766.207 1478.43 764.378 1482 Q762.573 1485.54 762.573 1492.67 Q762.573 1499.78 764.378 1503.34 Q766.207 1506.88 769.818 1506.88 Q773.452 1506.88 775.258 1503.34 Q777.087 1499.78 777.087 1492.67 Q777.087 1485.54 775.258 1482 Q773.452 1478.43 769.818 1478.43 M769.818 1474.73 Q775.628 1474.73 778.684 1479.34 Q781.763 1483.92 781.763 1492.67 Q781.763 1501.4 778.684 1506 Q775.628 1510.59 769.818 1510.59 Q764.008 1510.59 760.929 1506 Q757.874 1501.4 757.874 1492.67 Q757.874 1483.92 760.929 1479.34 Q764.008 1474.73 769.818 1474.73 Z" fill="#000000" fill-rule="evenodd" fill-opacity="1" /><path clip-path="url(#clip520)" d="M 0 0 M781.763 1468.83 L805.874 1468.83 L805.874 1472.03 L781.763 1472.03 L781.763 1468.83 Z" fill="#000000" fill-rule="evenodd" fill-opacity="1" /><path clip-path="url(#clip520)" d="M 0 0 M814.733 1479.31 L820.939 1479.31 L820.939 1457.89 L814.187 1459.24 L814.187 1455.78 L820.902 1454.43 L824.701 1454.43 L824.701 1479.31 L830.907 1479.31 L830.907 1482.51 L814.733 1482.51 L814.733 1479.31 Z" fill="#000000" fill-rule="evenodd" fill-opacity="1" /><path clip-path="url(#clip520)" d="M 0 0 M1249.31 1505.98 L1256.95 1505.98 L1256.95 1479.61 L1248.64 1481.28 L1248.64 1477.02 L1256.9 1475.36 L1261.58 1475.36 L1261.58 1505.98 L1269.22 1505.98 L1269.22 1509.92 L1249.31 1509.92 L1249.31 1505.98 Z" fill="#000000" fill-rule="evenodd" fill-opacity="1" /><path clip-path="url(#clip520)" d="M 0 0 M1288.66 1478.43 Q1285.05 1478.43 1283.22 1482 Q1281.42 1485.54 1281.42 1492.67 Q1281.42 1499.78 1283.22 1503.34 Q1285.05 1506.88 1288.66 1506.88 Q1292.3 1506.88 1294.1 1503.34 Q1295.93 1499.78 1295.93 1492.67 Q1295.93 1485.54 1294.1 1482 Q1292.3 1478.43 1288.66 1478.43 M1288.66 1474.73 Q1294.47 1474.73 1297.53 1479.34 Q1300.61 1483.92 1300.61 1492.67 Q1300.61 1501.4 1297.53 1506 Q1294.47 1510.59 1288.66 1510.59 Q1282.85 1510.59 1279.77 1506 Q1276.72 1501.4 1276.72 1492.67 Q1276.72 1483.92 1279.77 1479.34 Q1282.85 1474.73 1288.66 1474.73 Z" fill="#000000" fill-rule="evenodd" fill-opacity="1" /><path clip-path="url(#clip520)" d="M 0 0 M1310.31 1456.93 Q1307.38 1456.93 1305.89 1459.82 Q1304.42 1462.7 1304.42 1468.49 Q1304.42 1474.27 1305.89 1477.16 Q1307.38 1480.04 1310.31 1480.04 Q1313.26 1480.04 1314.73 1477.16 Q1316.22 1474.27 1316.22 1468.49 Q1316.22 1462.7 1314.73 1459.82 Q1313.26 1456.93 1310.31 1456.93 M1310.31 1453.92 Q1315.03 1453.92 1317.51 1457.66 Q1320.02 1461.38 1320.02 1468.49 Q1320.02 1475.58 1317.51 1479.33 Q1315.03 1483.05 1310.31 1483.05 Q1305.59 1483.05 1303.09 1479.33 Q1300.61 1475.58 1300.61 1468.49 Q1300.61 1461.38 1303.09 1457.66 Q1305.59 1453.92 1310.31 1453.92 Z" fill="#000000" fill-rule="evenodd" fill-opacity="1" /><path clip-path="url(#clip520)" d="M 0 0 M1754.63 1505.98 L1762.27 1505.98 L1762.27 1479.61 L1753.96 1481.28 L1753.96 1477.02 L1762.22 1475.36 L1766.9 1475.36 L1766.9 1505.98 L1774.54 1505.98 L1774.54 1509.92 L1754.63 1509.92 L1754.63 1505.98 Z" fill="#000000" fill-rule="evenodd" fill-opacity="1" /><path clip-path="url(#clip520)" d="M 0 0 M1793.98 1478.43 Q1790.37 1478.43 1788.54 1482 Q1786.74 1485.54 1786.74 1492.67 Q1786.74 1499.78 1788.54 1503.34 Q1790.37 1506.88 1793.98 1506.88 Q1797.62 1506.88 1799.42 1503.34 Q1801.25 1499.78 1801.25 1492.67 Q1801.25 1485.54 1799.42 1482 Q1797.62 1478.43 1793.98 1478.43 M1793.98 1474.73 Q1799.79 1474.73 1802.85 1479.34 Q1805.93 1483.92 1805.93 1492.67 Q1805.93 1501.4 1802.85 1506 Q1799.79 1510.59 1793.98 1510.59 Q1788.17 1510.59 1785.09 1506 Q1782.04 1501.4 1782.04 1492.67 Q1782.04 1483.92 1785.09 1479.34 Q1788.17 1474.73 1793.98 1474.73 Z" fill="#000000" fill-rule="evenodd" fill-opacity="1" /><path clip-path="url(#clip520)" d="M 0 0 M1806.47 1479.31 L1812.68 1479.31 L1812.68 1457.89 L1805.93 1459.24 L1805.93 1455.78 L1812.64 1454.43 L1816.44 1454.43 L1816.44 1479.31 L1822.65 1479.31 L1822.65 1482.51 L1806.47 1482.51 L1806.47 1479.31 Z" fill="#000000" fill-rule="evenodd" fill-opacity="1" /><path clip-path="url(#clip520)" d="M 0 0 M2258.05 1505.98 L2265.69 1505.98 L2265.69 1479.61 L2257.38 1481.28 L2257.38 1477.02 L2265.64 1475.36 L2270.32 1475.36 L2270.32 1505.98 L2277.96 1505.98 L2277.96 1509.92 L2258.05 1509.92 L2258.05 1505.98 Z" fill="#000000" fill-rule="evenodd" fill-opacity="1" /><path clip-path="url(#clip520)" d="M 0 0 M2297.4 1478.43 Q2293.79 1478.43 2291.96 1482 Q2290.16 1485.54 2290.16 1492.67 Q2290.16 1499.78 2291.96 1503.34 Q2293.79 1506.88 2297.4 1506.88 Q2301.04 1506.88 2302.84 1503.34 Q2304.67 1499.78 2304.67 1492.67 Q2304.67 1485.54 2302.84 1482 Q2301.04 1478.43 2297.4 1478.43 M2297.4 1474.73 Q2303.21 1474.73 2306.27 1479.34 Q2309.35 1483.92 2309.35 1492.67 Q2309.35 1501.4 2306.27 1506 Q2303.21 1510.59 2297.4 1510.59 Q2291.59 1510.59 2288.51 1506 Q2285.46 1501.4 2285.46 1492.67 Q2285.46 1483.92 2288.51 1479.34 Q2291.59 1474.73 2297.4 1474.73 Z" fill="#000000" fill-rule="evenodd" fill-opacity="1" /><path clip-path="url(#clip520)" d="M 0 0 M2313.92 1479.31 L2327.18 1479.31 L2327.18 1482.51 L2309.35 1482.51 L2309.35 1479.31 Q2311.51 1477.07 2315.23 1473.31 Q2318.98 1469.53 2319.94 1468.44 Q2321.76 1466.39 2322.48 1464.98 Q2323.21 1463.55 2323.21 1462.17 Q2323.21 1459.94 2321.63 1458.53 Q2320.07 1457.11 2317.55 1457.11 Q2315.76 1457.11 2313.77 1457.74 Q2311.79 1458.36 2309.54 1459.62 L2309.54 1455.78 Q2311.83 1454.86 2313.82 1454.39 Q2315.82 1453.92 2317.47 1453.92 Q2321.84 1453.92 2324.43 1456.1 Q2327.03 1458.28 2327.03 1461.93 Q2327.03 1463.66 2326.37 1465.22 Q2325.73 1466.76 2324.02 1468.87 Q2323.55 1469.41 2321.03 1472.03 Q2318.51 1474.62 2313.92 1479.31 Z" fill="#000000" fill-rule="evenodd" fill-opacity="1" /><path clip-path="url(#clip520)" d="M 0 0 M1297.89 1565.26 Q1297.89 1565.52 1297.6 1566.51 Q1297.31 1567.51 1296.6 1569.06 Q1295.93 1570.6 1294.99 1572.02 Q1294.06 1573.41 1292.51 1574.44 Q1291 1575.44 1289.26 1575.44 Q1286.94 1575.44 1285.39 1573.89 Q1283.85 1572.34 1283.85 1570.03 Q1283.85 1569.7 1283.88 1569.38 Q1283.91 1569.06 1283.94 1568.87 Q1283.98 1568.64 1284.07 1568.29 Q1284.2 1567.9 1284.23 1567.74 Q1284.3 1567.58 1284.46 1567.09 Q1284.65 1566.58 1284.72 1566.39 Q1288.81 1555.95 1288.81 1551.6 Q1288.81 1547 1285.23 1547 Q1282.04 1547 1278.89 1549.32 Q1277.44 1550.48 1276.05 1552.54 Q1274.67 1554.6 1274.41 1555.37 Q1274.12 1557.05 1273.7 1558.33 Q1273.51 1559.24 1272.58 1562.75 L1271.13 1568.7 L1269.87 1573.7 Q1269.61 1574.41 1268.9 1574.92 Q1268.2 1575.44 1267.42 1575.44 Q1266.78 1575.44 1266.13 1574.98 Q1265.52 1574.57 1265.52 1573.57 Q1265.52 1573.05 1265.78 1572.12 L1275.35 1534.12 L1275.54 1532.83 Q1275.54 1532.44 1275.38 1532.25 Q1275.25 1532.02 1274.48 1531.86 Q1273.74 1531.7 1272.25 1531.7 Q1271.64 1531.7 1271.35 1531.67 Q1271.09 1531.64 1270.87 1531.47 Q1270.64 1531.28 1270.64 1530.9 Q1270.64 1530.35 1270.87 1530.06 Q1271.13 1529.74 1271.32 1529.67 Q1271.51 1529.61 1271.9 1529.57 Q1272.45 1529.54 1274.28 1529.38 Q1276.12 1529.19 1277.7 1529.06 Q1279.27 1528.93 1279.95 1528.93 Q1280.34 1528.93 1280.53 1529.12 Q1280.76 1529.28 1280.79 1529.48 L1280.82 1529.64 L1275.67 1550.6 Q1279.76 1545.55 1285.43 1545.55 Q1289.1 1545.55 1291.06 1547.45 Q1293.03 1549.32 1293.03 1552.6 Q1293.03 1556.37 1289 1567.09 Q1287.81 1570.09 1287.81 1571.8 Q1287.81 1572.92 1288.16 1573.44 Q1288.55 1573.95 1289.39 1573.95 Q1290.68 1573.95 1291.8 1573.21 Q1292.96 1572.44 1293.77 1571.18 Q1294.57 1569.9 1295.12 1568.61 Q1295.7 1567.29 1296.12 1565.81 Q1296.38 1565 1296.51 1564.81 Q1296.67 1564.61 1297.12 1564.61 Q1297.89 1564.61 1297.89 1565.26 Z" fill="#000000" fill-rule="evenodd" fill-opacity="1" /><polyline clip-path="url(#clip522)" style="stroke:#000000; stroke-width:2; stroke-opacity:0.1; fill:none" points="
  215.898,1124.47 2352.76,1124.47 
  "/>
<polyline clip-path="url(#clip522)" style="stroke:#000000; stroke-width:2; stroke-opacity:0.1; fill:none" points="
  215.898,778.407 2352.76,778.407 
  "/>
<polyline clip-path="url(#clip522)" style="stroke:#000000; stroke-width:2; stroke-opacity:0.1; fill:none" points="
  215.898,432.343 2352.76,432.343 
  "/>
<polyline clip-path="url(#clip522)" style="stroke:#000000; stroke-width:2; stroke-opacity:0.1; fill:none" points="
  215.898,86.2792 2352.76,86.2792 
  "/>
<polyline clip-path="url(#clip520)" style="stroke:#000000; stroke-width:4; stroke-opacity:1; fill:none" points="
  215.898,1427.71 215.898,47.2441 
  "/>
<polyline clip-path="url(#clip520)" style="stroke:#000000; stroke-width:4; stroke-opacity:1; fill:none" points="
  215.898,1124.47 241.541,1124.47 
  "/>
<polyline clip-path="url(#clip520)" style="stroke:#000000; stroke-width:4; stroke-opacity:1; fill:none" points="
  215.898,778.407 241.541,778.407 
  "/>
<polyline clip-path="url(#clip520)" style="stroke:#000000; stroke-width:4; stroke-opacity:1; fill:none" points="
  215.898,432.343 241.541,432.343 
  "/>
<polyline clip-path="url(#clip520)" style="stroke:#000000; stroke-width:4; stroke-opacity:1; fill:none" points="
  215.898,86.2792 241.541,86.2792 
  "/>
<path clip-path="url(#clip520)" d="M 0 0 M122.237 1110.27 Q118.626 1110.27 116.797 1113.83 Q114.991 1117.38 114.991 1124.51 Q114.991 1131.61 116.797 1135.18 Q118.626 1138.72 122.237 1138.72 Q125.871 1138.72 127.676 1135.18 Q129.505 1131.61 129.505 1124.51 Q129.505 1117.38 127.676 1113.83 Q125.871 1110.27 122.237 1110.27 M122.237 1106.57 Q128.047 1106.57 131.102 1111.17 Q134.181 1115.76 134.181 1124.51 Q134.181 1133.23 131.102 1137.84 Q128.047 1142.42 122.237 1142.42 Q116.426 1142.42 113.348 1137.84 Q110.292 1133.23 110.292 1124.51 Q110.292 1115.76 113.348 1111.17 Q116.426 1106.57 122.237 1106.57 Z" fill="#000000" fill-rule="evenodd" fill-opacity="1" /><path clip-path="url(#clip520)" d="M 0 0 M142.399 1135.87 L147.283 1135.87 L147.283 1141.75 L142.399 1141.75 L142.399 1135.87 Z" fill="#000000" fill-rule="evenodd" fill-opacity="1" /><path clip-path="url(#clip520)" d="M 0 0 M170.315 1111.26 L158.51 1129.71 L170.315 1129.71 L170.315 1111.26 M169.088 1107.19 L174.968 1107.19 L174.968 1129.71 L179.898 1129.71 L179.898 1133.6 L174.968 1133.6 L174.968 1141.75 L170.315 1141.75 L170.315 1133.6 L154.713 1133.6 L154.713 1129.09 L169.088 1107.19 Z" fill="#000000" fill-rule="evenodd" fill-opacity="1" /><path clip-path="url(#clip520)" d="M 0 0 M122.561 764.205 Q118.95 764.205 117.121 767.77 Q115.315 771.312 115.315 778.441 Q115.315 785.548 117.121 789.113 Q118.95 792.654 122.561 792.654 Q126.195 792.654 128 789.113 Q129.829 785.548 129.829 778.441 Q129.829 771.312 128 767.77 Q126.195 764.205 122.561 764.205 M122.561 760.502 Q128.371 760.502 131.426 765.108 Q134.505 769.691 134.505 778.441 Q134.505 787.168 131.426 791.775 Q128.371 796.358 122.561 796.358 Q116.751 796.358 113.672 791.775 Q110.616 787.168 110.616 778.441 Q110.616 769.691 113.672 765.108 Q116.751 760.502 122.561 760.502 Z" fill="#000000" fill-rule="evenodd" fill-opacity="1" /><path clip-path="url(#clip520)" d="M 0 0 M142.723 789.807 L147.607 789.807 L147.607 795.687 L142.723 795.687 L142.723 789.807 Z" fill="#000000" fill-rule="evenodd" fill-opacity="1" /><path clip-path="url(#clip520)" d="M 0 0 M168.371 776.543 Q165.223 776.543 163.371 778.696 Q161.542 780.849 161.542 784.599 Q161.542 788.326 163.371 790.502 Q165.223 792.654 168.371 792.654 Q171.519 792.654 173.347 790.502 Q175.199 788.326 175.199 784.599 Q175.199 780.849 173.347 778.696 Q171.519 776.543 168.371 776.543 M177.653 761.891 L177.653 766.15 Q175.894 765.316 174.088 764.877 Q172.306 764.437 170.547 764.437 Q165.917 764.437 163.463 767.562 Q161.033 770.687 160.685 777.006 Q162.051 774.992 164.111 773.928 Q166.172 772.84 168.648 772.84 Q173.857 772.84 176.866 776.011 Q179.898 779.159 179.898 784.599 Q179.898 789.923 176.75 793.14 Q173.602 796.358 168.371 796.358 Q162.375 796.358 159.204 791.775 Q156.033 787.168 156.033 778.441 Q156.033 770.247 159.922 765.386 Q163.81 760.502 170.361 760.502 Q172.121 760.502 173.903 760.849 Q175.709 761.196 177.653 761.891 Z" fill="#000000" fill-rule="evenodd" fill-opacity="1" /><path clip-path="url(#clip520)" d="M 0 0 M122.815 418.142 Q119.204 418.142 117.376 421.706 Q115.57 425.248 115.57 432.378 Q115.57 439.484 117.376 443.049 Q119.204 446.591 122.815 446.591 Q126.45 446.591 128.255 443.049 Q130.084 439.484 130.084 432.378 Q130.084 425.248 128.255 421.706 Q126.45 418.142 122.815 418.142 M122.815 414.438 Q128.625 414.438 131.681 419.044 Q134.76 423.628 134.76 432.378 Q134.76 441.104 131.681 445.711 Q128.625 450.294 122.815 450.294 Q117.005 450.294 113.926 445.711 Q110.871 441.104 110.871 432.378 Q110.871 423.628 113.926 419.044 Q117.005 414.438 122.815 414.438 Z" fill="#000000" fill-rule="evenodd" fill-opacity="1" /><path clip-path="url(#clip520)" d="M 0 0 M142.977 443.743 L147.861 443.743 L147.861 449.623 L142.977 449.623 L142.977 443.743 Z" fill="#000000" fill-rule="evenodd" fill-opacity="1" /><path clip-path="url(#clip520)" d="M 0 0 M168.047 433.211 Q164.713 433.211 162.792 434.993 Q160.894 436.776 160.894 439.901 Q160.894 443.026 162.792 444.808 Q164.713 446.591 168.047 446.591 Q171.38 446.591 173.301 444.808 Q175.222 443.003 175.222 439.901 Q175.222 436.776 173.301 434.993 Q171.403 433.211 168.047 433.211 M163.371 431.22 Q160.361 430.48 158.672 428.419 Q157.005 426.359 157.005 423.396 Q157.005 419.253 159.945 416.845 Q162.908 414.438 168.047 414.438 Q173.209 414.438 176.148 416.845 Q179.088 419.253 179.088 423.396 Q179.088 426.359 177.398 428.419 Q175.732 430.48 172.746 431.22 Q176.125 432.007 178 434.299 Q179.898 436.591 179.898 439.901 Q179.898 444.924 176.82 447.609 Q173.764 450.294 168.047 450.294 Q162.329 450.294 159.25 447.609 Q156.195 444.924 156.195 439.901 Q156.195 436.591 158.093 434.299 Q159.991 432.007 163.371 431.22 M161.658 423.836 Q161.658 426.521 163.324 428.026 Q165.014 429.53 168.047 429.53 Q171.056 429.53 172.746 428.026 Q174.459 426.521 174.459 423.836 Q174.459 421.151 172.746 419.646 Q171.056 418.142 168.047 418.142 Q165.014 418.142 163.324 419.646 Q161.658 421.151 161.658 423.836 Z" fill="#000000" fill-rule="evenodd" fill-opacity="1" /><path clip-path="url(#clip520)" d="M 0 0 M113.533 99.6241 L121.172 99.6241 L121.172 73.2585 L112.862 74.9251 L112.862 70.6659 L121.126 68.9992 L125.801 68.9992 L125.801 99.6241 L133.44 99.6241 L133.44 103.559 L113.533 103.559 L113.533 99.6241 Z" fill="#000000" fill-rule="evenodd" fill-opacity="1" /><path clip-path="url(#clip520)" d="M 0 0 M142.885 97.6796 L147.769 97.6796 L147.769 103.559 L142.885 103.559 L142.885 97.6796 Z" fill="#000000" fill-rule="evenodd" fill-opacity="1" /><path clip-path="url(#clip520)" d="M 0 0 M167.954 72.0779 Q164.343 72.0779 162.514 75.6427 Q160.709 79.1844 160.709 86.3139 Q160.709 93.4204 162.514 96.9852 Q164.343 100.527 167.954 100.527 Q171.588 100.527 173.394 96.9852 Q175.222 93.4204 175.222 86.3139 Q175.222 79.1844 173.394 75.6427 Q171.588 72.0779 167.954 72.0779 M167.954 68.3742 Q173.764 68.3742 176.82 72.9807 Q179.898 77.564 179.898 86.3139 Q179.898 95.0408 176.82 99.6472 Q173.764 104.231 167.954 104.231 Q162.144 104.231 159.065 99.6472 Q156.01 95.0408 156.01 86.3139 Q156.01 77.564 159.065 72.9807 Q162.144 68.3742 167.954 68.3742 Z" fill="#000000" fill-rule="evenodd" fill-opacity="1" /><path clip-path="url(#clip520)" d="M 0 0 M20.1817 747.197 Q21.1156 747.197 21.3089 747.615 Q21.5021 748.002 21.5021 749.29 Q21.5021 750.804 21.6309 751.738 Q21.7275 752.672 21.8886 753.251 Q22.0174 753.831 22.4683 754.185 Q22.9192 754.507 23.3056 754.636 Q23.6599 754.765 24.5295 754.99 L59.666 763.75 Q60.8577 764.072 61.2763 764.072 Q61.695 764.072 61.9527 763.815 Q62.2103 763.525 62.3391 762.816 Q62.4358 762.108 62.468 761.56 Q62.468 760.981 62.468 759.789 Q62.468 758.308 62.7256 758.082 Q62.8866 757.953 63.1765 757.953 Q63.7884 757.953 64.1105 758.211 Q64.4003 758.469 64.4647 758.694 Q64.4969 758.887 64.4969 759.209 Q64.4969 760.562 64.4003 763.332 Q64.3037 766.101 64.3037 767.454 L64.4969 775.634 Q64.4969 776.601 63.6918 776.601 Q63.0799 776.601 62.8222 776.343 Q62.5324 776.085 62.5002 775.795 Q62.468 775.506 62.468 774.765 Q62.468 772.124 62.1781 770.997 Q61.8883 769.837 61.373 769.515 Q60.8255 769.161 59.344 768.774 L21.5665 759.338 L21.5665 759.403 L63.3053 786.037 L63.5952 786.23 Q63.8528 786.423 63.9494 786.488 Q64.0138 786.552 64.2071 786.745 Q64.3681 786.906 64.4325 787.1 Q64.4969 787.261 64.4969 787.486 Q64.4969 787.873 64.2393 788.098 Q63.9816 788.291 63.7884 788.356 Q63.563 788.388 62.9833 788.484 L22.0818 794.153 L22.0818 794.217 L58.0236 803.203 Q59.0219 803.46 59.5372 803.46 Q60.8577 803.46 61.6628 802.526 Q62.4358 801.56 62.468 798.984 Q62.468 797.792 63.1765 797.792 Q64.4969 797.792 64.4969 798.984 Q64.4969 800.079 64.4003 802.365 Q64.3037 804.652 64.3037 805.779 Q64.3037 806.874 64.4003 809.096 Q64.4969 811.286 64.4969 812.349 Q64.4969 813.283 63.6918 813.283 Q62.468 813.283 62.468 812.091 Q62.4035 810.159 62.0171 808.839 Q61.6306 807.518 60.8899 806.777 Q60.1491 806.004 59.4084 805.65 Q58.6355 805.264 57.5083 804.974 L23.9175 796.6 Q22.8547 796.343 22.6937 796.343 Q22.1462 796.343 21.953 796.665 Q21.7275 796.955 21.6309 797.792 Q21.5021 799.402 21.5021 800.626 Q21.5021 801.431 21.4699 801.753 Q21.4377 802.043 21.2767 802.301 Q21.0834 802.526 20.697 802.526 Q20.085 802.526 19.8274 802.269 Q19.5375 801.979 19.5053 801.657 Q19.4409 801.335 19.4409 800.562 L19.4409 791.512 Q19.4409 790.191 19.6664 789.902 Q19.8596 789.612 20.9546 789.483 L58.2812 784.33 L20.697 760.24 Q19.763 759.628 19.602 759.306 Q19.4409 758.984 19.4409 757.696 L19.4409 748.968 Q19.4409 748.259 19.4731 747.969 Q19.5053 747.68 19.6664 747.454 Q19.8274 747.197 20.1817 747.197 Z" fill="#000000" fill-rule="evenodd" fill-opacity="1" /><path clip-path="url(#clip520)" d="M 0 0 M48.0075 749.933 Q36.8643 749.933 27.8789 745.778 Q24.1108 744.007 20.9546 741.527 Q17.7984 739.047 16.4136 737.404 Q15.0287 735.762 15.0287 735.311 Q15.0287 734.667 15.6728 734.635 Q15.9949 734.635 16.8 735.504 Q27.6212 746.132 48.0075 746.1 Q68.4582 746.1 78.8607 735.762 Q79.9879 734.635 80.3422 734.635 Q80.9863 734.635 80.9863 735.311 Q80.9863 735.762 79.6659 737.34 Q78.3454 738.918 75.3181 741.366 Q72.2907 743.813 68.5871 745.585 Q59.6016 749.933 48.0075 749.933 Z" fill="#000000" fill-rule="evenodd" fill-opacity="1" /><path clip-path="url(#clip520)" d="M 0 0 M55.0606 692.238 Q55.3183 692.238 56.3166 692.528 Q57.315 692.818 58.8609 693.526 Q60.4068 694.203 61.8238 695.137 Q63.2087 696.071 64.2393 697.617 Q65.2377 699.13 65.2377 700.869 Q65.2377 703.188 63.6918 704.734 Q62.1459 706.28 59.8271 706.28 Q59.505 706.28 59.183 706.248 Q58.8609 706.216 58.6677 706.183 Q58.4422 706.151 58.088 706.055 Q57.7015 705.926 57.5405 705.894 Q57.3794 705.829 56.8963 705.668 Q56.3811 705.475 56.1878 705.41 Q45.7531 701.32 41.4053 701.32 Q36.7999 701.32 36.7999 704.895 Q36.7999 708.084 39.1187 711.24 Q40.2781 712.689 42.3393 714.074 Q44.4005 715.459 45.1734 715.716 Q46.8481 716.006 48.1364 716.425 Q49.0381 716.618 52.5486 717.552 L58.5066 719.001 L63.4985 720.257 Q64.2071 720.515 64.7224 721.224 Q65.2377 721.932 65.2377 722.705 Q65.2377 723.349 64.7868 723.993 Q64.3681 724.605 63.3697 724.605 Q62.8544 724.605 61.9205 724.348 L23.9175 714.782 L22.6293 714.589 Q22.2428 714.589 22.0496 714.75 Q21.8242 714.879 21.6631 715.652 Q21.5021 716.393 21.5021 717.874 Q21.5021 718.486 21.4699 718.776 Q21.4377 719.034 21.2767 719.259 Q21.0834 719.484 20.697 719.484 Q20.1495 719.484 19.8596 719.259 Q19.5375 719.001 19.4731 718.808 Q19.4087 718.615 19.3765 718.228 Q19.3443 717.681 19.1833 715.845 Q18.99 714.009 18.8612 712.431 Q18.7324 710.853 18.7324 710.177 Q18.7324 709.79 18.9256 709.597 Q19.0867 709.372 19.2799 709.34 L19.4409 709.307 L40.4069 714.46 Q35.3506 710.37 35.3506 704.702 Q35.3506 701.03 37.2508 699.066 Q39.1187 697.101 42.4037 697.101 Q46.1718 697.101 56.8963 701.127 Q59.8915 702.319 61.5984 702.319 Q62.7256 702.319 63.2409 701.964 Q63.7562 701.578 63.7562 700.741 Q63.7562 699.452 63.0155 698.325 Q62.2425 697.166 60.9865 696.361 Q59.6983 695.555 58.41 695.008 Q57.0896 694.428 55.6081 694.01 Q54.803 693.752 54.6097 693.623 Q54.4165 693.462 54.4165 693.011 Q54.4165 692.238 55.0606 692.238 Z" fill="#000000" fill-rule="evenodd" fill-opacity="1" /><path clip-path="url(#clip520)" d="M 0 0 M80.3422 686.997 Q80.0202 686.997 79.215 686.159 Q68.3938 675.532 48.0075 675.532 Q27.5568 675.532 17.2187 685.741 Q16.0271 686.997 15.6728 686.997 Q15.0287 686.997 15.0287 686.353 Q15.0287 685.902 16.3492 684.324 Q17.6696 682.713 20.697 680.298 Q23.7243 677.85 27.428 676.047 Q36.4134 671.699 48.0075 671.699 Q59.1508 671.699 68.1362 675.854 Q71.9043 677.625 75.0605 680.105 Q78.2166 682.585 79.6015 684.227 Q80.9863 685.87 80.9863 686.353 Q80.9863 686.997 80.3422 686.997 Z" fill="#000000" fill-rule="evenodd" fill-opacity="1" /><polyline clip-path="url(#clip522)" style="stroke:#009af9; stroke-width:4; stroke-opacity:1; fill:none" points="
  276.375,86.4522 500.365,87.6158 724.354,96.4693 948.343,156.899 1172.33,397.296 1396.32,703.033 1620.31,858.778 1844.3,917.971 2068.29,939.403 2292.28,947.113 
  
  "/>
<circle clip-path="url(#clip522)" cx="276.375" cy="86.4522" r="14" fill="#009af9" fill-rule="evenodd" fill-opacity="1" stroke="#000000" stroke-opacity="1" stroke-width="3.2"/>
<circle clip-path="url(#clip522)" cx="500.365" cy="87.6158" r="14" fill="#009af9" fill-rule="evenodd" fill-opacity="1" stroke="#000000" stroke-opacity="1" stroke-width="3.2"/>
<circle clip-path="url(#clip522)" cx="724.354" cy="96.4693" r="14" fill="#009af9" fill-rule="evenodd" fill-opacity="1" stroke="#000000" stroke-opacity="1" stroke-width="3.2"/>
<circle clip-path="url(#clip522)" cx="948.343" cy="156.899" r="14" fill="#009af9" fill-rule="evenodd" fill-opacity="1" stroke="#000000" stroke-opacity="1" stroke-width="3.2"/>
<circle clip-path="url(#clip522)" cx="1172.33" cy="397.296" r="14" fill="#009af9" fill-rule="evenodd" fill-opacity="1" stroke="#000000" stroke-opacity="1" stroke-width="3.2"/>
<circle clip-path="url(#clip522)" cx="1396.32" cy="703.033" r="14" fill="#009af9" fill-rule="evenodd" fill-opacity="1" stroke="#000000" stroke-opacity="1" stroke-width="3.2"/>
<circle clip-path="url(#clip522)" cx="1620.31" cy="858.778" r="14" fill="#009af9" fill-rule="evenodd" fill-opacity="1" stroke="#000000" stroke-opacity="1" stroke-width="3.2"/>
<circle clip-path="url(#clip522)" cx="1844.3" cy="917.971" r="14" fill="#009af9" fill-rule="evenodd" fill-opacity="1" stroke="#000000" stroke-opacity="1" stroke-width="3.2"/>
<circle clip-path="url(#clip522)" cx="2068.29" cy="939.403" r="14" fill="#009af9" fill-rule="evenodd" fill-opacity="1" stroke="#000000" stroke-opacity="1" stroke-width="3.2"/>
<circle clip-path="url(#clip522)" cx="2292.28" cy="947.113" r="14" fill="#009af9" fill-rule="evenodd" fill-opacity="1" stroke="#000000" stroke-opacity="1" stroke-width="3.2"/>
<polyline clip-path="url(#clip522)" style="stroke:#e26f46; stroke-width:4; stroke-opacity:1; fill:none" points="
  276.375,86.3451 500.365,86.8034 724.354,90.6343 948.343,125.421 1172.33,371.051 1396.32,743.498 1620.31,884.343 1844.3,928.462 2068.29,943.33 2292.28,948.544 
  
  "/>
<circle clip-path="url(#clip522)" cx="276.375" cy="86.3451" r="14" fill="#e26f46" fill-rule="evenodd" fill-opacity="1" stroke="#000000" stroke-opacity="1" stroke-width="3.2"/>
<circle clip-path="url(#clip522)" cx="500.365" cy="86.8034" r="14" fill="#e26f46" fill-rule="evenodd" fill-opacity="1" stroke="#000000" stroke-opacity="1" stroke-width="3.2"/>
<circle clip-path="url(#clip522)" cx="724.354" cy="90.6343" r="14" fill="#e26f46" fill-rule="evenodd" fill-opacity="1" stroke="#000000" stroke-opacity="1" stroke-width="3.2"/>
<circle clip-path="url(#clip522)" cx="948.343" cy="125.421" r="14" fill="#e26f46" fill-rule="evenodd" fill-opacity="1" stroke="#000000" stroke-opacity="1" stroke-width="3.2"/>
<circle clip-path="url(#clip522)" cx="1172.33" cy="371.051" r="14" fill="#e26f46" fill-rule="evenodd" fill-opacity="1" stroke="#000000" stroke-opacity="1" stroke-width="3.2"/>
<circle clip-path="url(#clip522)" cx="1396.32" cy="743.498" r="14" fill="#e26f46" fill-rule="evenodd" fill-opacity="1" stroke="#000000" stroke-opacity="1" stroke-width="3.2"/>
<circle clip-path="url(#clip522)" cx="1620.31" cy="884.343" r="14" fill="#e26f46" fill-rule="evenodd" fill-opacity="1" stroke="#000000" stroke-opacity="1" stroke-width="3.2"/>
<circle clip-path="url(#clip522)" cx="1844.3" cy="928.462" r="14" fill="#e26f46" fill-rule="evenodd" fill-opacity="1" stroke="#000000" stroke-opacity="1" stroke-width="3.2"/>
<circle clip-path="url(#clip522)" cx="2068.29" cy="943.33" r="14" fill="#e26f46" fill-rule="evenodd" fill-opacity="1" stroke="#000000" stroke-opacity="1" stroke-width="3.2"/>
<circle clip-path="url(#clip522)" cx="2292.28" cy="948.544" r="14" fill="#e26f46" fill-rule="evenodd" fill-opacity="1" stroke="#000000" stroke-opacity="1" stroke-width="3.2"/>
<polyline clip-path="url(#clip522)" style="stroke:#3da44d; stroke-width:4; stroke-opacity:1; fill:none" points="
  276.375,86.3333 500.365,86.6989 724.354,89.583 948.343,114.894 1172.33,378.716 1396.32,920.542 1620.31,1092.03 1844.3,1141.92 2068.29,1158.62 2292.28,1164.47 
  
  "/>
<circle clip-path="url(#clip522)" cx="276.375" cy="86.3333" r="14" fill="#3da44d" fill-rule="evenodd" fill-opacity="1" stroke="#000000" stroke-opacity="1" stroke-width="3.2"/>
<circle clip-path="url(#clip522)" cx="500.365" cy="86.6989" r="14" fill="#3da44d" fill-rule="evenodd" fill-opacity="1" stroke="#000000" stroke-opacity="1" stroke-width="3.2"/>
<circle clip-path="url(#clip522)" cx="724.354" cy="89.583" r="14" fill="#3da44d" fill-rule="evenodd" fill-opacity="1" stroke="#000000" stroke-opacity="1" stroke-width="3.2"/>
<circle clip-path="url(#clip522)" cx="948.343" cy="114.894" r="14" fill="#3da44d" fill-rule="evenodd" fill-opacity="1" stroke="#000000" stroke-opacity="1" stroke-width="3.2"/>
<circle clip-path="url(#clip522)" cx="1172.33" cy="378.716" r="14" fill="#3da44d" fill-rule="evenodd" fill-opacity="1" stroke="#000000" stroke-opacity="1" stroke-width="3.2"/>
<circle clip-path="url(#clip522)" cx="1396.32" cy="920.542" r="14" fill="#3da44d" fill-rule="evenodd" fill-opacity="1" stroke="#000000" stroke-opacity="1" stroke-width="3.2"/>
<circle clip-path="url(#clip522)" cx="1620.31" cy="1092.03" r="14" fill="#3da44d" fill-rule="evenodd" fill-opacity="1" stroke="#000000" stroke-opacity="1" stroke-width="3.2"/>
<circle clip-path="url(#clip522)" cx="1844.3" cy="1141.92" r="14" fill="#3da44d" fill-rule="evenodd" fill-opacity="1" stroke="#000000" stroke-opacity="1" stroke-width="3.2"/>
<circle clip-path="url(#clip522)" cx="2068.29" cy="1158.62" r="14" fill="#3da44d" fill-rule="evenodd" fill-opacity="1" stroke="#000000" stroke-opacity="1" stroke-width="3.2"/>
<circle clip-path="url(#clip522)" cx="2292.28" cy="1164.47" r="14" fill="#3da44d" fill-rule="evenodd" fill-opacity="1" stroke="#000000" stroke-opacity="1" stroke-width="3.2"/>
<polyline clip-path="url(#clip522)" style="stroke:#c271d2; stroke-width:4; stroke-opacity:1; fill:none" points="
  276.375,86.3268 500.365,86.6479 724.354,89.1479 948.343,109.735 1172.33,346.342 1396.32,950.722 1620.31,1105.66 1844.3,1146.91 2068.29,1160.42 2292.28,1165.12 
  
  "/>
<circle clip-path="url(#clip522)" cx="276.375" cy="86.3268" r="14" fill="#c271d2" fill-rule="evenodd" fill-opacity="1" stroke="#000000" stroke-opacity="1" stroke-width="3.2"/>
<circle clip-path="url(#clip522)" cx="500.365" cy="86.6479" r="14" fill="#c271d2" fill-rule="evenodd" fill-opacity="1" stroke="#000000" stroke-opacity="1" stroke-width="3.2"/>
<circle clip-path="url(#clip522)" cx="724.354" cy="89.1479" r="14" fill="#c271d2" fill-rule="evenodd" fill-opacity="1" stroke="#000000" stroke-opacity="1" stroke-width="3.2"/>
<circle clip-path="url(#clip522)" cx="948.343" cy="109.735" r="14" fill="#c271d2" fill-rule="evenodd" fill-opacity="1" stroke="#000000" stroke-opacity="1" stroke-width="3.2"/>
<circle clip-path="url(#clip522)" cx="1172.33" cy="346.342" r="14" fill="#c271d2" fill-rule="evenodd" fill-opacity="1" stroke="#000000" stroke-opacity="1" stroke-width="3.2"/>
<circle clip-path="url(#clip522)" cx="1396.32" cy="950.722" r="14" fill="#c271d2" fill-rule="evenodd" fill-opacity="1" stroke="#000000" stroke-opacity="1" stroke-width="3.2"/>
<circle clip-path="url(#clip522)" cx="1620.31" cy="1105.66" r="14" fill="#c271d2" fill-rule="evenodd" fill-opacity="1" stroke="#000000" stroke-opacity="1" stroke-width="3.2"/>
<circle clip-path="url(#clip522)" cx="1844.3" cy="1146.91" r="14" fill="#c271d2" fill-rule="evenodd" fill-opacity="1" stroke="#000000" stroke-opacity="1" stroke-width="3.2"/>
<circle clip-path="url(#clip522)" cx="2068.29" cy="1160.42" r="14" fill="#c271d2" fill-rule="evenodd" fill-opacity="1" stroke="#000000" stroke-opacity="1" stroke-width="3.2"/>
<circle clip-path="url(#clip522)" cx="2292.28" cy="1165.12" r="14" fill="#c271d2" fill-rule="evenodd" fill-opacity="1" stroke="#000000" stroke-opacity="1" stroke-width="3.2"/>
<polyline clip-path="url(#clip522)" style="stroke:#ac8d18; stroke-width:4; stroke-opacity:1; fill:none" points="
  276.375,86.3225 500.365,86.6143 724.354,88.8834 948.343,107.176 1172.33,326.086 1396.32,1047.52 1620.31,1211.55 1844.3,1254.25 2068.29,1268.26 2292.28,1273.16 
  
  "/>
<circle clip-path="url(#clip522)" cx="276.375" cy="86.3225" r="14" fill="#ac8d18" fill-rule="evenodd" fill-opacity="1" stroke="#000000" stroke-opacity="1" stroke-width="3.2"/>
<circle clip-path="url(#clip522)" cx="500.365" cy="86.6143" r="14" fill="#ac8d18" fill-rule="evenodd" fill-opacity="1" stroke="#000000" stroke-opacity="1" stroke-width="3.2"/>
<circle clip-path="url(#clip522)" cx="724.354" cy="88.8834" r="14" fill="#ac8d18" fill-rule="evenodd" fill-opacity="1" stroke="#000000" stroke-opacity="1" stroke-width="3.2"/>
<circle clip-path="url(#clip522)" cx="948.343" cy="107.176" r="14" fill="#ac8d18" fill-rule="evenodd" fill-opacity="1" stroke="#000000" stroke-opacity="1" stroke-width="3.2"/>
<circle clip-path="url(#clip522)" cx="1172.33" cy="326.086" r="14" fill="#ac8d18" fill-rule="evenodd" fill-opacity="1" stroke="#000000" stroke-opacity="1" stroke-width="3.2"/>
<circle clip-path="url(#clip522)" cx="1396.32" cy="1047.52" r="14" fill="#ac8d18" fill-rule="evenodd" fill-opacity="1" stroke="#000000" stroke-opacity="1" stroke-width="3.2"/>
<circle clip-path="url(#clip522)" cx="1620.31" cy="1211.55" r="14" fill="#ac8d18" fill-rule="evenodd" fill-opacity="1" stroke="#000000" stroke-opacity="1" stroke-width="3.2"/>
<circle clip-path="url(#clip522)" cx="1844.3" cy="1254.25" r="14" fill="#ac8d18" fill-rule="evenodd" fill-opacity="1" stroke="#000000" stroke-opacity="1" stroke-width="3.2"/>
<circle clip-path="url(#clip522)" cx="2068.29" cy="1268.26" r="14" fill="#ac8d18" fill-rule="evenodd" fill-opacity="1" stroke="#000000" stroke-opacity="1" stroke-width="3.2"/>
<circle clip-path="url(#clip522)" cx="2292.28" cy="1273.16" r="14" fill="#ac8d18" fill-rule="evenodd" fill-opacity="1" stroke="#000000" stroke-opacity="1" stroke-width="3.2"/>
<polyline clip-path="url(#clip522)" style="stroke:#00a9ad; stroke-width:4; stroke-opacity:1; fill:none" points="
  276.375,86.3194 500.365,86.5904 724.354,88.6968 948.343,105.553 1172.33,301.643 1396.32,1069.82 1620.31,1220 1844.3,1257.25 2068.29,1269.34 2292.28,1273.55 
  
  "/>
<circle clip-path="url(#clip522)" cx="276.375" cy="86.3194" r="14" fill="#00a9ad" fill-rule="evenodd" fill-opacity="1" stroke="#000000" stroke-opacity="1" stroke-width="3.2"/>
<circle clip-path="url(#clip522)" cx="500.365" cy="86.5904" r="14" fill="#00a9ad" fill-rule="evenodd" fill-opacity="1" stroke="#000000" stroke-opacity="1" stroke-width="3.2"/>
<circle clip-path="url(#clip522)" cx="724.354" cy="88.6968" r="14" fill="#00a9ad" fill-rule="evenodd" fill-opacity="1" stroke="#000000" stroke-opacity="1" stroke-width="3.2"/>
<circle clip-path="url(#clip522)" cx="948.343" cy="105.553" r="14" fill="#00a9ad" fill-rule="evenodd" fill-opacity="1" stroke="#000000" stroke-opacity="1" stroke-width="3.2"/>
<circle clip-path="url(#clip522)" cx="1172.33" cy="301.643" r="14" fill="#00a9ad" fill-rule="evenodd" fill-opacity="1" stroke="#000000" stroke-opacity="1" stroke-width="3.2"/>
<circle clip-path="url(#clip522)" cx="1396.32" cy="1069.82" r="14" fill="#00a9ad" fill-rule="evenodd" fill-opacity="1" stroke="#000000" stroke-opacity="1" stroke-width="3.2"/>
<circle clip-path="url(#clip522)" cx="1620.31" cy="1220" r="14" fill="#00a9ad" fill-rule="evenodd" fill-opacity="1" stroke="#000000" stroke-opacity="1" stroke-width="3.2"/>
<circle clip-path="url(#clip522)" cx="1844.3" cy="1257.25" r="14" fill="#00a9ad" fill-rule="evenodd" fill-opacity="1" stroke="#000000" stroke-opacity="1" stroke-width="3.2"/>
<circle clip-path="url(#clip522)" cx="2068.29" cy="1269.34" r="14" fill="#00a9ad" fill-rule="evenodd" fill-opacity="1" stroke="#000000" stroke-opacity="1" stroke-width="3.2"/>
<circle clip-path="url(#clip522)" cx="2292.28" cy="1273.55" r="14" fill="#00a9ad" fill-rule="evenodd" fill-opacity="1" stroke="#000000" stroke-opacity="1" stroke-width="3.2"/>
<polyline clip-path="url(#clip522)" style="stroke:#ed5d92; stroke-width:4; stroke-opacity:1; fill:none" points="
  276.375,86.3171 500.365,86.5724 724.354,88.5571 948.343,104.402 1172.33,284.331 1396.32,1133.64 1620.31,1286.72 1844.3,1324.49 2068.29,1336.8 2292.28,1341.09 
  
  "/>
<circle clip-path="url(#clip522)" cx="276.375" cy="86.3171" r="14" fill="#ed5d92" fill-rule="evenodd" fill-opacity="1" stroke="#000000" stroke-opacity="1" stroke-width="3.2"/>
<circle clip-path="url(#clip522)" cx="500.365" cy="86.5724" r="14" fill="#ed5d92" fill-rule="evenodd" fill-opacity="1" stroke="#000000" stroke-opacity="1" stroke-width="3.2"/>
<circle clip-path="url(#clip522)" cx="724.354" cy="88.5571" r="14" fill="#ed5d92" fill-rule="evenodd" fill-opacity="1" stroke="#000000" stroke-opacity="1" stroke-width="3.2"/>
<circle clip-path="url(#clip522)" cx="948.343" cy="104.402" r="14" fill="#ed5d92" fill-rule="evenodd" fill-opacity="1" stroke="#000000" stroke-opacity="1" stroke-width="3.2"/>
<circle clip-path="url(#clip522)" cx="1172.33" cy="284.331" r="14" fill="#ed5d92" fill-rule="evenodd" fill-opacity="1" stroke="#000000" stroke-opacity="1" stroke-width="3.2"/>
<circle clip-path="url(#clip522)" cx="1396.32" cy="1133.64" r="14" fill="#ed5d92" fill-rule="evenodd" fill-opacity="1" stroke="#000000" stroke-opacity="1" stroke-width="3.2"/>
<circle clip-path="url(#clip522)" cx="1620.31" cy="1286.72" r="14" fill="#ed5d92" fill-rule="evenodd" fill-opacity="1" stroke="#000000" stroke-opacity="1" stroke-width="3.2"/>
<circle clip-path="url(#clip522)" cx="1844.3" cy="1324.49" r="14" fill="#ed5d92" fill-rule="evenodd" fill-opacity="1" stroke="#000000" stroke-opacity="1" stroke-width="3.2"/>
<circle clip-path="url(#clip522)" cx="2068.29" cy="1336.8" r="14" fill="#ed5d92" fill-rule="evenodd" fill-opacity="1" stroke="#000000" stroke-opacity="1" stroke-width="3.2"/>
<circle clip-path="url(#clip522)" cx="2292.28" cy="1341.09" r="14" fill="#ed5d92" fill-rule="evenodd" fill-opacity="1" stroke="#000000" stroke-opacity="1" stroke-width="3.2"/>
<polyline clip-path="url(#clip522)" style="stroke:#c68125; stroke-width:4; stroke-opacity:1; fill:none" points="
  276.375,86.3153 500.365,86.5585 724.354,88.4485 948.343,103.521 1172.33,269.039 1396.32,1150.6 1620.31,1292.57 1844.3,1326.55 2068.29,1337.53 2292.28,1341.35 
  
  "/>
<circle clip-path="url(#clip522)" cx="276.375" cy="86.3153" r="14" fill="#c68125" fill-rule="evenodd" fill-opacity="1" stroke="#000000" stroke-opacity="1" stroke-width="3.2"/>
<circle clip-path="url(#clip522)" cx="500.365" cy="86.5585" r="14" fill="#c68125" fill-rule="evenodd" fill-opacity="1" stroke="#000000" stroke-opacity="1" stroke-width="3.2"/>
<circle clip-path="url(#clip522)" cx="724.354" cy="88.4485" r="14" fill="#c68125" fill-rule="evenodd" fill-opacity="1" stroke="#000000" stroke-opacity="1" stroke-width="3.2"/>
<circle clip-path="url(#clip522)" cx="948.343" cy="103.521" r="14" fill="#c68125" fill-rule="evenodd" fill-opacity="1" stroke="#000000" stroke-opacity="1" stroke-width="3.2"/>
<circle clip-path="url(#clip522)" cx="1172.33" cy="269.039" r="14" fill="#c68125" fill-rule="evenodd" fill-opacity="1" stroke="#000000" stroke-opacity="1" stroke-width="3.2"/>
<circle clip-path="url(#clip522)" cx="1396.32" cy="1150.6" r="14" fill="#c68125" fill-rule="evenodd" fill-opacity="1" stroke="#000000" stroke-opacity="1" stroke-width="3.2"/>
<circle clip-path="url(#clip522)" cx="1620.31" cy="1292.57" r="14" fill="#c68125" fill-rule="evenodd" fill-opacity="1" stroke="#000000" stroke-opacity="1" stroke-width="3.2"/>
<circle clip-path="url(#clip522)" cx="1844.3" cy="1326.55" r="14" fill="#c68125" fill-rule="evenodd" fill-opacity="1" stroke="#000000" stroke-opacity="1" stroke-width="3.2"/>
<circle clip-path="url(#clip522)" cx="2068.29" cy="1337.53" r="14" fill="#c68125" fill-rule="evenodd" fill-opacity="1" stroke="#000000" stroke-opacity="1" stroke-width="3.2"/>
<circle clip-path="url(#clip522)" cx="2292.28" cy="1341.35" r="14" fill="#c68125" fill-rule="evenodd" fill-opacity="1" stroke="#000000" stroke-opacity="1" stroke-width="3.2"/>
<polyline clip-path="url(#clip522)" style="stroke:#00a98d; stroke-width:4; stroke-opacity:1; fill:none" points="
  276.375,86.3138 500.365,86.5473 724.354,88.3615 948.343,102.821 1172.33,257.819 1396.32,1196.77 1620.31,1339.48 1844.3,1373.68 2068.29,1384.78 2292.28,1388.64 
  
  "/>
<circle clip-path="url(#clip522)" cx="276.375" cy="86.3138" r="14" fill="#00a98d" fill-rule="evenodd" fill-opacity="1" stroke="#000000" stroke-opacity="1" stroke-width="3.2"/>
<circle clip-path="url(#clip522)" cx="500.365" cy="86.5473" r="14" fill="#00a98d" fill-rule="evenodd" fill-opacity="1" stroke="#000000" stroke-opacity="1" stroke-width="3.2"/>
<circle clip-path="url(#clip522)" cx="724.354" cy="88.3615" r="14" fill="#00a98d" fill-rule="evenodd" fill-opacity="1" stroke="#000000" stroke-opacity="1" stroke-width="3.2"/>
<circle clip-path="url(#clip522)" cx="948.343" cy="102.821" r="14" fill="#00a98d" fill-rule="evenodd" fill-opacity="1" stroke="#000000" stroke-opacity="1" stroke-width="3.2"/>
<circle clip-path="url(#clip522)" cx="1172.33" cy="257.819" r="14" fill="#00a98d" fill-rule="evenodd" fill-opacity="1" stroke="#000000" stroke-opacity="1" stroke-width="3.2"/>
<circle clip-path="url(#clip522)" cx="1396.32" cy="1196.77" r="14" fill="#00a98d" fill-rule="evenodd" fill-opacity="1" stroke="#000000" stroke-opacity="1" stroke-width="3.2"/>
<circle clip-path="url(#clip522)" cx="1620.31" cy="1339.48" r="14" fill="#00a98d" fill-rule="evenodd" fill-opacity="1" stroke="#000000" stroke-opacity="1" stroke-width="3.2"/>
<circle clip-path="url(#clip522)" cx="1844.3" cy="1373.68" r="14" fill="#00a98d" fill-rule="evenodd" fill-opacity="1" stroke="#000000" stroke-opacity="1" stroke-width="3.2"/>
<circle clip-path="url(#clip522)" cx="2068.29" cy="1384.78" r="14" fill="#00a98d" fill-rule="evenodd" fill-opacity="1" stroke="#000000" stroke-opacity="1" stroke-width="3.2"/>
<circle clip-path="url(#clip522)" cx="2292.28" cy="1388.64" r="14" fill="#00a98d" fill-rule="evenodd" fill-opacity="1" stroke="#000000" stroke-opacity="1" stroke-width="3.2"/>
<path clip-path="url(#clip520)" d="
M1886.25 698.06 L2281.53 698.06 L2281.53 93.2596 L1886.25 93.2596  Z
  " fill="#ffffff" fill-rule="evenodd" fill-opacity="1"/>
<polyline clip-path="url(#clip520)" style="stroke:#000000; stroke-width:4; stroke-opacity:1; fill:none" points="
  1886.25,698.06 2281.53,698.06 2281.53,93.2596 1886.25,93.2596 1886.25,698.06 
  "/>
<polyline clip-path="url(#clip520)" style="stroke:#009af9; stroke-width:4; stroke-opacity:1; fill:none" points="
  1910,153.74 2052.45,153.74 
  "/>
<circle clip-path="url(#clip520)" cx="1981.22" cy="153.74" r="23" fill="#009af9" fill-rule="evenodd" fill-opacity="1" stroke="#000000" stroke-opacity="1" stroke-width="5.12"/>
<path clip-path="url(#clip520)" d="M 0 0 M2076.2 136.46 L2082.49 136.46 L2097.82 165.371 L2097.82 136.46 L2102.35 136.46 L2102.35 171.02 L2096.06 171.02 L2080.73 142.108 L2080.73 171.02 L2076.2 171.02 L2076.2 136.46 Z" fill="#000000" fill-rule="evenodd" fill-opacity="1" /><path clip-path="url(#clip520)" d="M 0 0 M2127.1 149.492 L2156.77 149.492 L2156.77 153.381 L2127.1 153.381 L2127.1 149.492 M2127.1 158.936 L2156.77 158.936 L2156.77 162.871 L2127.1 162.871 L2127.1 158.936 Z" fill="#000000" fill-rule="evenodd" fill-opacity="1" /><path clip-path="url(#clip520)" d="M 0 0 M2185.96 167.084 L2202.28 167.084 L2202.28 171.02 L2180.34 171.02 L2180.34 167.084 Q2183 164.33 2187.58 159.7 Q2192.19 155.047 2193.37 153.705 Q2195.62 151.182 2196.5 149.446 Q2197.4 147.686 2197.4 145.997 Q2197.4 143.242 2195.45 141.506 Q2193.53 139.77 2190.43 139.77 Q2188.23 139.77 2185.78 140.534 Q2183.35 141.298 2180.57 142.848 L2180.57 138.126 Q2183.39 136.992 2185.85 136.413 Q2188.3 135.835 2190.34 135.835 Q2195.71 135.835 2198.9 138.52 Q2202.1 141.205 2202.1 145.696 Q2202.1 147.825 2201.29 149.747 Q2200.5 151.645 2198.39 154.237 Q2197.81 154.909 2194.71 158.126 Q2191.61 161.321 2185.96 167.084 Z" fill="#000000" fill-rule="evenodd" fill-opacity="1" /><polyline clip-path="url(#clip520)" style="stroke:#e26f46; stroke-width:4; stroke-opacity:1; fill:none" points="
  1910,214.22 2052.45,214.22 
  "/>
<circle clip-path="url(#clip520)" cx="1981.22" cy="214.22" r="23" fill="#e26f46" fill-rule="evenodd" fill-opacity="1" stroke="#000000" stroke-opacity="1" stroke-width="5.12"/>
<path clip-path="url(#clip520)" d="M 0 0 M2076.2 196.94 L2082.49 196.94 L2097.82 225.851 L2097.82 196.94 L2102.35 196.94 L2102.35 231.5 L2096.06 231.5 L2080.73 202.588 L2080.73 231.5 L2076.2 231.5 L2076.2 196.94 Z" fill="#000000" fill-rule="evenodd" fill-opacity="1" /><path clip-path="url(#clip520)" d="M 0 0 M2127.1 209.972 L2156.77 209.972 L2156.77 213.861 L2127.1 213.861 L2127.1 209.972 M2127.1 219.416 L2156.77 219.416 L2156.77 223.351 L2127.1 223.351 L2127.1 219.416 Z" fill="#000000" fill-rule="evenodd" fill-opacity="1" /><path clip-path="url(#clip520)" d="M 0 0 M2196.1 212.865 Q2199.46 213.583 2201.33 215.852 Q2203.23 218.12 2203.23 221.453 Q2203.23 226.569 2199.71 229.37 Q2196.19 232.171 2189.71 232.171 Q2187.54 232.171 2185.22 231.731 Q2182.93 231.314 2180.48 230.458 L2180.48 225.944 Q2182.42 227.078 2184.74 227.657 Q2187.05 228.236 2189.57 228.236 Q2193.97 228.236 2196.26 226.5 Q2198.58 224.763 2198.58 221.453 Q2198.58 218.398 2196.43 216.685 Q2194.3 214.949 2190.48 214.949 L2186.45 214.949 L2186.45 211.106 L2190.66 211.106 Q2194.11 211.106 2195.94 209.74 Q2197.77 208.352 2197.77 205.759 Q2197.77 203.097 2195.87 201.685 Q2194 200.25 2190.48 200.25 Q2188.56 200.25 2186.36 200.666 Q2184.16 201.083 2181.52 201.963 L2181.52 197.796 Q2184.18 197.055 2186.5 196.685 Q2188.83 196.315 2190.89 196.315 Q2196.22 196.315 2199.32 198.745 Q2202.42 201.153 2202.42 205.273 Q2202.42 208.143 2200.78 210.134 Q2199.13 212.102 2196.1 212.865 Z" fill="#000000" fill-rule="evenodd" fill-opacity="1" /><polyline clip-path="url(#clip520)" style="stroke:#3da44d; stroke-width:4; stroke-opacity:1; fill:none" points="
  1910,274.7 2052.45,274.7 
  "/>
<circle clip-path="url(#clip520)" cx="1981.22" cy="274.7" r="23" fill="#3da44d" fill-rule="evenodd" fill-opacity="1" stroke="#000000" stroke-opacity="1" stroke-width="5.12"/>
<path clip-path="url(#clip520)" d="M 0 0 M2076.2 257.42 L2082.49 257.42 L2097.82 286.331 L2097.82 257.42 L2102.35 257.42 L2102.35 291.98 L2096.06 291.98 L2080.73 263.068 L2080.73 291.98 L2076.2 291.98 L2076.2 257.42 Z" fill="#000000" fill-rule="evenodd" fill-opacity="1" /><path clip-path="url(#clip520)" d="M 0 0 M2127.1 270.452 L2156.77 270.452 L2156.77 274.341 L2127.1 274.341 L2127.1 270.452 M2127.1 279.896 L2156.77 279.896 L2156.77 283.831 L2127.1 283.831 L2127.1 279.896 Z" fill="#000000" fill-rule="evenodd" fill-opacity="1" /><path clip-path="url(#clip520)" d="M 0 0 M2194.78 261.494 L2182.98 279.943 L2194.78 279.943 L2194.78 261.494 M2193.56 257.42 L2199.44 257.42 L2199.44 279.943 L2204.37 279.943 L2204.37 283.831 L2199.44 283.831 L2199.44 291.98 L2194.78 291.98 L2194.78 283.831 L2179.18 283.831 L2179.18 279.318 L2193.56 257.42 Z" fill="#000000" fill-rule="evenodd" fill-opacity="1" /><polyline clip-path="url(#clip520)" style="stroke:#c271d2; stroke-width:4; stroke-opacity:1; fill:none" points="
  1910,335.18 2052.45,335.18 
  "/>
<circle clip-path="url(#clip520)" cx="1981.22" cy="335.18" r="23" fill="#c271d2" fill-rule="evenodd" fill-opacity="1" stroke="#000000" stroke-opacity="1" stroke-width="5.12"/>
<path clip-path="url(#clip520)" d="M 0 0 M2076.2 317.9 L2082.49 317.9 L2097.82 346.811 L2097.82 317.9 L2102.35 317.9 L2102.35 352.46 L2096.06 352.46 L2080.73 323.548 L2080.73 352.46 L2076.2 352.46 L2076.2 317.9 Z" fill="#000000" fill-rule="evenodd" fill-opacity="1" /><path clip-path="url(#clip520)" d="M 0 0 M2127.1 330.932 L2156.77 330.932 L2156.77 334.821 L2127.1 334.821 L2127.1 330.932 M2127.1 340.376 L2156.77 340.376 L2156.77 344.311 L2127.1 344.311 L2127.1 340.376 Z" fill="#000000" fill-rule="evenodd" fill-opacity="1" /><path clip-path="url(#clip520)" d="M 0 0 M2181.98 317.9 L2200.34 317.9 L2200.34 321.835 L2186.26 321.835 L2186.26 330.307 Q2187.28 329.96 2188.3 329.798 Q2189.32 329.612 2190.34 329.612 Q2196.13 329.612 2199.5 332.784 Q2202.88 335.955 2202.88 341.372 Q2202.88 346.95 2199.41 350.052 Q2195.94 353.131 2189.62 353.131 Q2187.44 353.131 2185.18 352.76 Q2182.93 352.39 2180.52 351.649 L2180.52 346.95 Q2182.61 348.085 2184.83 348.64 Q2187.05 349.196 2189.53 349.196 Q2193.53 349.196 2195.87 347.089 Q2198.21 344.983 2198.21 341.372 Q2198.21 337.761 2195.87 335.654 Q2193.53 333.548 2189.53 333.548 Q2187.65 333.548 2185.78 333.964 Q2183.93 334.381 2181.98 335.261 L2181.98 317.9 Z" fill="#000000" fill-rule="evenodd" fill-opacity="1" /><polyline clip-path="url(#clip520)" style="stroke:#ac8d18; stroke-width:4; stroke-opacity:1; fill:none" points="
  1910,395.66 2052.45,395.66 
  "/>
<circle clip-path="url(#clip520)" cx="1981.22" cy="395.66" r="23" fill="#ac8d18" fill-rule="evenodd" fill-opacity="1" stroke="#000000" stroke-opacity="1" stroke-width="5.12"/>
<path clip-path="url(#clip520)" d="M 0 0 M2076.2 378.38 L2082.49 378.38 L2097.82 407.291 L2097.82 378.38 L2102.35 378.38 L2102.35 412.94 L2096.06 412.94 L2080.73 384.028 L2080.73 412.94 L2076.2 412.94 L2076.2 378.38 Z" fill="#000000" fill-rule="evenodd" fill-opacity="1" /><path clip-path="url(#clip520)" d="M 0 0 M2127.1 391.412 L2156.77 391.412 L2156.77 395.301 L2127.1 395.301 L2127.1 391.412 M2127.1 400.856 L2156.77 400.856 L2156.77 404.791 L2127.1 404.791 L2127.1 400.856 Z" fill="#000000" fill-rule="evenodd" fill-opacity="1" /><path clip-path="url(#clip520)" d="M 0 0 M2192.51 393.796 Q2189.37 393.796 2187.51 395.949 Q2185.69 398.102 2185.69 401.852 Q2185.69 405.578 2187.51 407.754 Q2189.37 409.907 2192.51 409.907 Q2195.66 409.907 2197.49 407.754 Q2199.34 405.578 2199.34 401.852 Q2199.34 398.102 2197.49 395.949 Q2195.66 393.796 2192.51 393.796 M2201.8 379.143 L2201.8 383.403 Q2200.04 382.569 2198.23 382.13 Q2196.45 381.69 2194.69 381.69 Q2190.06 381.69 2187.61 384.815 Q2185.18 387.94 2184.83 394.259 Q2186.19 392.245 2188.25 391.18 Q2190.31 390.092 2192.79 390.092 Q2198 390.092 2201.01 393.264 Q2204.04 396.412 2204.04 401.852 Q2204.04 407.176 2200.89 410.393 Q2197.75 413.611 2192.51 413.611 Q2186.52 413.611 2183.35 409.028 Q2180.18 404.421 2180.18 395.694 Q2180.18 387.5 2184.07 382.639 Q2187.95 377.755 2194.5 377.755 Q2196.26 377.755 2198.05 378.102 Q2199.85 378.449 2201.8 379.143 Z" fill="#000000" fill-rule="evenodd" fill-opacity="1" /><polyline clip-path="url(#clip520)" style="stroke:#00a9ad; stroke-width:4; stroke-opacity:1; fill:none" points="
  1910,456.14 2052.45,456.14 
  "/>
<circle clip-path="url(#clip520)" cx="1981.22" cy="456.14" r="23" fill="#00a9ad" fill-rule="evenodd" fill-opacity="1" stroke="#000000" stroke-opacity="1" stroke-width="5.12"/>
<path clip-path="url(#clip520)" d="M 0 0 M2076.2 438.86 L2082.49 438.86 L2097.82 467.771 L2097.82 438.86 L2102.35 438.86 L2102.35 473.42 L2096.06 473.42 L2080.73 444.508 L2080.73 473.42 L2076.2 473.42 L2076.2 438.86 Z" fill="#000000" fill-rule="evenodd" fill-opacity="1" /><path clip-path="url(#clip520)" d="M 0 0 M2127.1 451.892 L2156.77 451.892 L2156.77 455.781 L2127.1 455.781 L2127.1 451.892 M2127.1 461.336 L2156.77 461.336 L2156.77 465.271 L2127.1 465.271 L2127.1 461.336 Z" fill="#000000" fill-rule="evenodd" fill-opacity="1" /><path clip-path="url(#clip520)" d="M 0 0 M2180.75 438.86 L2202.98 438.86 L2202.98 440.85 L2190.43 473.42 L2185.55 473.42 L2197.35 442.795 L2180.75 442.795 L2180.75 438.86 Z" fill="#000000" fill-rule="evenodd" fill-opacity="1" /><polyline clip-path="url(#clip520)" style="stroke:#ed5d92; stroke-width:4; stroke-opacity:1; fill:none" points="
  1910,516.62 2052.45,516.62 
  "/>
<circle clip-path="url(#clip520)" cx="1981.22" cy="516.62" r="23" fill="#ed5d92" fill-rule="evenodd" fill-opacity="1" stroke="#000000" stroke-opacity="1" stroke-width="5.12"/>
<path clip-path="url(#clip520)" d="M 0 0 M2076.2 499.34 L2082.49 499.34 L2097.82 528.251 L2097.82 499.34 L2102.35 499.34 L2102.35 533.9 L2096.06 533.9 L2080.73 504.988 L2080.73 533.9 L2076.2 533.9 L2076.2 499.34 Z" fill="#000000" fill-rule="evenodd" fill-opacity="1" /><path clip-path="url(#clip520)" d="M 0 0 M2127.1 512.372 L2156.77 512.372 L2156.77 516.261 L2127.1 516.261 L2127.1 512.372 M2127.1 521.816 L2156.77 521.816 L2156.77 525.751 L2127.1 525.751 L2127.1 521.816 Z" fill="#000000" fill-rule="evenodd" fill-opacity="1" /><path clip-path="url(#clip520)" d="M 0 0 M2191.94 517.488 Q2188.6 517.488 2186.68 519.27 Q2184.78 521.052 2184.78 524.177 Q2184.78 527.302 2186.68 529.085 Q2188.6 530.867 2191.94 530.867 Q2195.27 530.867 2197.19 529.085 Q2199.11 527.279 2199.11 524.177 Q2199.11 521.052 2197.19 519.27 Q2195.29 517.488 2191.94 517.488 M2187.26 515.497 Q2184.25 514.756 2182.56 512.696 Q2180.89 510.636 2180.89 507.673 Q2180.89 503.529 2183.83 501.122 Q2186.8 498.715 2191.94 498.715 Q2197.1 498.715 2200.04 501.122 Q2202.98 503.529 2202.98 507.673 Q2202.98 510.636 2201.29 512.696 Q2199.62 514.756 2196.63 515.497 Q2200.01 516.284 2201.89 518.576 Q2203.79 520.867 2203.79 524.177 Q2203.79 529.201 2200.71 531.886 Q2197.65 534.571 2191.94 534.571 Q2186.22 534.571 2183.14 531.886 Q2180.08 529.201 2180.08 524.177 Q2180.08 520.867 2181.98 518.576 Q2183.88 516.284 2187.26 515.497 M2185.55 508.113 Q2185.55 510.798 2187.21 512.302 Q2188.9 513.807 2191.94 513.807 Q2194.94 513.807 2196.63 512.302 Q2198.35 510.798 2198.35 508.113 Q2198.35 505.427 2196.63 503.923 Q2194.94 502.418 2191.94 502.418 Q2188.9 502.418 2187.21 503.923 Q2185.55 505.427 2185.55 508.113 Z" fill="#000000" fill-rule="evenodd" fill-opacity="1" /><polyline clip-path="url(#clip520)" style="stroke:#c68125; stroke-width:4; stroke-opacity:1; fill:none" points="
  1910,577.1 2052.45,577.1 
  "/>
<circle clip-path="url(#clip520)" cx="1981.22" cy="577.1" r="23" fill="#c68125" fill-rule="evenodd" fill-opacity="1" stroke="#000000" stroke-opacity="1" stroke-width="5.12"/>
<path clip-path="url(#clip520)" d="M 0 0 M2076.2 559.82 L2082.49 559.82 L2097.82 588.731 L2097.82 559.82 L2102.35 559.82 L2102.35 594.38 L2096.06 594.38 L2080.73 565.468 L2080.73 594.38 L2076.2 594.38 L2076.2 559.82 Z" fill="#000000" fill-rule="evenodd" fill-opacity="1" /><path clip-path="url(#clip520)" d="M 0 0 M2127.1 572.852 L2156.77 572.852 L2156.77 576.741 L2127.1 576.741 L2127.1 572.852 M2127.1 582.296 L2156.77 582.296 L2156.77 586.231 L2127.1 586.231 L2127.1 582.296 Z" fill="#000000" fill-rule="evenodd" fill-opacity="1" /><path clip-path="url(#clip520)" d="M 0 0 M2182.07 593.662 L2182.07 589.403 Q2183.83 590.236 2185.64 590.676 Q2187.44 591.116 2189.18 591.116 Q2193.81 591.116 2196.24 588.014 Q2198.69 584.889 2199.04 578.546 Q2197.7 580.537 2195.64 581.602 Q2193.58 582.667 2191.08 582.667 Q2185.89 582.667 2182.86 579.542 Q2179.85 576.394 2179.85 570.954 Q2179.85 565.63 2183 562.412 Q2186.15 559.195 2191.38 559.195 Q2197.38 559.195 2200.52 563.801 Q2203.69 568.384 2203.69 577.134 Q2203.69 585.306 2199.81 590.19 Q2195.94 595.051 2189.39 595.051 Q2187.63 595.051 2185.82 594.704 Q2184.02 594.356 2182.07 593.662 M2191.38 579.009 Q2194.53 579.009 2196.36 576.857 Q2198.21 574.704 2198.21 570.954 Q2198.21 567.227 2196.36 565.074 Q2194.53 562.898 2191.38 562.898 Q2188.23 562.898 2186.38 565.074 Q2184.55 567.227 2184.55 570.954 Q2184.55 574.704 2186.38 576.857 Q2188.23 579.009 2191.38 579.009 Z" fill="#000000" fill-rule="evenodd" fill-opacity="1" /><polyline clip-path="url(#clip520)" style="stroke:#00a98d; stroke-width:4; stroke-opacity:1; fill:none" points="
  1910,637.58 2052.45,637.58 
  "/>
<circle clip-path="url(#clip520)" cx="1981.22" cy="637.58" r="23" fill="#00a98d" fill-rule="evenodd" fill-opacity="1" stroke="#000000" stroke-opacity="1" stroke-width="5.12"/>
<path clip-path="url(#clip520)" d="M 0 0 M2076.2 620.3 L2082.49 620.3 L2097.82 649.211 L2097.82 620.3 L2102.35 620.3 L2102.35 654.86 L2096.06 654.86 L2080.73 625.948 L2080.73 654.86 L2076.2 654.86 L2076.2 620.3 Z" fill="#000000" fill-rule="evenodd" fill-opacity="1" /><path clip-path="url(#clip520)" d="M 0 0 M2127.1 633.332 L2156.77 633.332 L2156.77 637.221 L2127.1 637.221 L2127.1 633.332 M2127.1 642.776 L2156.77 642.776 L2156.77 646.711 L2127.1 646.711 L2127.1 642.776 Z" fill="#000000" fill-rule="evenodd" fill-opacity="1" /><path clip-path="url(#clip520)" d="M 0 0 M2182.75 650.924 L2190.38 650.924 L2190.38 624.559 L2182.07 626.225 L2182.07 621.966 L2190.34 620.3 L2195.01 620.3 L2195.01 650.924 L2202.65 650.924 L2202.65 654.86 L2182.75 654.86 L2182.75 650.924 Z" fill="#000000" fill-rule="evenodd" fill-opacity="1" /><path clip-path="url(#clip520)" d="M 0 0 M2222.1 623.378 Q2218.49 623.378 2216.66 626.943 Q2214.85 630.485 2214.85 637.614 Q2214.85 644.721 2216.66 648.286 Q2218.49 651.827 2222.1 651.827 Q2225.73 651.827 2227.54 648.286 Q2229.37 644.721 2229.37 637.614 Q2229.37 630.485 2227.54 626.943 Q2225.73 623.378 2222.1 623.378 M2222.1 619.675 Q2227.91 619.675 2230.96 624.281 Q2234.04 628.864 2234.04 637.614 Q2234.04 646.341 2230.96 650.948 Q2227.91 655.531 2222.1 655.531 Q2216.29 655.531 2213.21 650.948 Q2210.15 646.341 2210.15 637.614 Q2210.15 628.864 2213.21 624.281 Q2216.29 619.675 2222.1 619.675 Z" fill="#000000" fill-rule="evenodd" fill-opacity="1" /></svg>
